M48
; DRILL file {KiCad (6.0.4)} date Wed Aug 17 14:12:51 2022
; FORMAT={-:-/ absolute / metric / decimal}
; #@! TF.CreationDate,2022-08-17T14:12:51+03:00
; #@! TF.GenerationSoftware,Kicad,Pcbnew,(6.0.4)
; #@! TF.FileFunction,Plated,1,2,PTH
FMAT,2
METRIC
; #@! TA.AperFunction,Plated,PTH,ViaDrill
T1C0.400
; #@! TA.AperFunction,Plated,PTH,ComponentDrill
T2C0.400
; #@! TA.AperFunction,Plated,PTH,ComponentDrill
T3C1.000
; #@! TA.AperFunction,Plated,PTH,ComponentDrill
T4C2.000
; #@! TA.AperFunction,Plated,PTH,ComponentDrill
T5C2.200
%
G90
G05
T1
X103.71Y-90.38
X103.72Y-99.49
X104.63Y-90.43
X104.63Y-99.51
X105.56Y-90.46
X105.58Y-99.46
X106.5Y-90.48
X106.5Y-99.47
X107.41Y-90.46
X107.42Y-99.49
X108.32Y-90.44
X108.32Y-99.51
X109.2Y-99.5
X109.24Y-90.48
X110.09Y-99.51
X110.2Y-90.5
X110.97Y-99.52
X111.85Y-99.53
X112.74Y-99.52
X112.86Y-90.46
X113.65Y-99.53
X113.72Y-90.47
X113.94Y-86.895
X116.3Y-97.98
X118.33Y-83.277
X118.96Y-90.06
X120.376Y-97.19
X120.38Y-99.34
X120.67Y-89.621
X121.5Y-88.269
X121.69Y-99.25
X121.71Y-97.19
X121.88Y-82.22
X123.22Y-92.22
X124.3Y-74.6
X124.35Y-110.572
X124.47Y-109.58
X124.48Y-85.54
X124.51Y-108.58
X124.8Y-76.2
X125.83Y-78.4
X128.25Y-92.99
X131.41Y-78.53
X131.44Y-76.27
X132.06Y-88.57
X132.06Y-89.53
X132.07Y-90.6
X133.02Y-89.53
X133.03Y-88.6
X133.11Y-90.6
X133.47Y-84.79
X133.52Y-101.68
X134.03Y-88.59
X134.03Y-89.49
X134.08Y-90.65
X134.39Y-96.11
X134.762Y-95.182
X135.56Y-103.602
X135.71Y-95.5
X135.95Y-94.46
X136.4Y-108.7
X137.58Y-103.623
X137.84Y-98.77
X138.5Y-74.0
X138.5Y-75.0
X138.5Y-76.0
X138.54Y-83.55
X138.59Y-81.58
X139.77Y-86.94
X141.68Y-86.94
X141.74Y-90.52
X143.34Y-92.29
X145.7Y-101.89
X145.73Y-99.52
X147.36Y-107.34
X147.7Y-83.27
X148.157Y-97.13
X149.17Y-77.37
X151.12Y-104.14
X153.04Y-101.44
T2
X104.78Y-73.42
X104.92Y-124.5
X105.263Y-72.253
X105.263Y-74.587
X105.403Y-123.333
X105.403Y-125.667
X106.43Y-71.77
X106.43Y-75.07
X106.57Y-122.85
X106.57Y-126.15
X107.597Y-72.253
X107.597Y-74.587
X107.737Y-123.333
X107.737Y-125.667
X108.08Y-73.42
X108.22Y-124.5
X151.94Y-73.36
X151.94Y-124.5
X152.423Y-72.193
X152.423Y-74.527
X152.423Y-123.333
X152.423Y-125.667
X153.59Y-71.71
X153.59Y-75.01
X153.59Y-122.85
X153.59Y-126.15
X154.757Y-72.193
X154.757Y-74.527
X154.757Y-123.333
X154.757Y-125.667
X155.24Y-73.36
X155.24Y-124.5
T3
X105.11Y-105.85
X105.11Y-109.75
X105.11Y-113.52
X105.15Y-101.96
X105.69Y-93.36
X105.69Y-95.9
X105.75Y-87.83
X108.96Y-109.71
X108.96Y-113.6
X126.45Y-115.8
X126.45Y-118.3
X126.45Y-120.8
X140.95Y-115.8
X140.95Y-120.8
T5
X106.43Y-73.42
X106.57Y-124.5
X153.59Y-73.36
X153.59Y-124.5
T3
G00X147.89Y-116.38
M15
G01X147.89Y-114.38
M16
G05
G00X151.89Y-110.68
M15
G01X149.89Y-110.68
M16
G05
G00X153.89Y-116.38
M15
G01X153.89Y-114.38
M16
G05
T4
G00X133.7Y-112.7
M15
G01X134.2Y-112.7
M16
G05
G00X133.7Y-123.9
M15
G01X134.2Y-123.9
M16
G05
T0
M30
