G04 #@! TF.GenerationSoftware,KiCad,Pcbnew,(6.0.4)*
G04 #@! TF.CreationDate,2022-04-25T08:49:56+03:00*
G04 #@! TF.ProjectId,ReflowController-v1,5265666c-6f77-4436-9f6e-74726f6c6c65,rev?*
G04 #@! TF.SameCoordinates,Original*
G04 #@! TF.FileFunction,Copper,L2,Bot*
G04 #@! TF.FilePolarity,Positive*
%FSLAX46Y46*%
G04 Gerber Fmt 4.6, Leading zero omitted, Abs format (unit mm)*
G04 Created by KiCad (PCBNEW (6.0.4)) date 2022-04-25 08:49:56*
%MOMM*%
%LPD*%
G01*
G04 APERTURE LIST*
G04 Aperture macros list*
%AMRoundRect*
0 Rectangle with rounded corners*
0 $1 Rounding radius*
0 $2 $3 $4 $5 $6 $7 $8 $9 X,Y pos of 4 corners*
0 Add a 4 corners polygon primitive as box body*
4,1,4,$2,$3,$4,$5,$6,$7,$8,$9,$2,$3,0*
0 Add four circle primitives for the rounded corners*
1,1,$1+$1,$2,$3*
1,1,$1+$1,$4,$5*
1,1,$1+$1,$6,$7*
1,1,$1+$1,$8,$9*
0 Add four rect primitives between the rounded corners*
20,1,$1+$1,$2,$3,$4,$5,0*
20,1,$1+$1,$4,$5,$6,$7,0*
20,1,$1+$1,$6,$7,$8,$9,0*
20,1,$1+$1,$8,$9,$2,$3,0*%
G04 Aperture macros list end*
G04 #@! TA.AperFunction,ComponentPad*
%ADD10C,4.400000*%
G04 #@! TD*
G04 #@! TA.AperFunction,ComponentPad*
%ADD11C,0.700000*%
G04 #@! TD*
G04 #@! TA.AperFunction,ComponentPad*
%ADD12R,1.700000X1.700000*%
G04 #@! TD*
G04 #@! TA.AperFunction,ComponentPad*
%ADD13R,3.500000X3.500000*%
G04 #@! TD*
G04 #@! TA.AperFunction,ComponentPad*
%ADD14RoundRect,0.750000X0.750000X1.000000X-0.750000X1.000000X-0.750000X-1.000000X0.750000X-1.000000X0*%
G04 #@! TD*
G04 #@! TA.AperFunction,ComponentPad*
%ADD15RoundRect,0.875000X0.875000X0.875000X-0.875000X0.875000X-0.875000X-0.875000X0.875000X-0.875000X0*%
G04 #@! TD*
G04 #@! TA.AperFunction,ComponentPad*
%ADD16O,1.700000X1.700000*%
G04 #@! TD*
G04 #@! TA.AperFunction,ComponentPad*
%ADD17R,2.000000X2.000000*%
G04 #@! TD*
G04 #@! TA.AperFunction,ComponentPad*
%ADD18C,2.000000*%
G04 #@! TD*
G04 #@! TA.AperFunction,ComponentPad*
%ADD19R,3.000000X2.500000*%
G04 #@! TD*
G04 #@! TA.AperFunction,ViaPad*
%ADD20C,0.800000*%
G04 #@! TD*
G04 #@! TA.AperFunction,Conductor*
%ADD21C,0.152400*%
G04 #@! TD*
G04 #@! TA.AperFunction,Conductor*
%ADD22C,0.300000*%
G04 #@! TD*
G04 #@! TA.AperFunction,Conductor*
%ADD23C,0.500000*%
G04 #@! TD*
G04 APERTURE END LIST*
D10*
X153590000Y-73360000D03*
D11*
X153590000Y-75010000D03*
X151940000Y-73360000D03*
X155240000Y-73360000D03*
X154756726Y-74526726D03*
X153590000Y-71710000D03*
X152423274Y-74526726D03*
X154756726Y-72193274D03*
X152423274Y-72193274D03*
X106570000Y-122850000D03*
X108220000Y-124500000D03*
X105403274Y-125666726D03*
X107736726Y-125666726D03*
D10*
X106570000Y-124500000D03*
D11*
X105403274Y-123333274D03*
X107736726Y-123333274D03*
X104920000Y-124500000D03*
X106570000Y-126150000D03*
D12*
X108960000Y-109710000D03*
D13*
X147890000Y-115380000D03*
D14*
X153890000Y-115380000D03*
D15*
X150890000Y-110680000D03*
D12*
X105150000Y-101960000D03*
X105110000Y-109750000D03*
D10*
X153590000Y-124500000D03*
D11*
X152423274Y-123333274D03*
X154756726Y-123333274D03*
X153590000Y-122850000D03*
X152423274Y-125666726D03*
X155240000Y-124500000D03*
X153590000Y-126150000D03*
X151940000Y-124500000D03*
X154756726Y-125666726D03*
D10*
X106430000Y-73420000D03*
D11*
X106430000Y-75070000D03*
X104780000Y-73420000D03*
X108080000Y-73420000D03*
X107596726Y-74586726D03*
X106430000Y-71770000D03*
X105263274Y-74586726D03*
X107596726Y-72253274D03*
X105263274Y-72253274D03*
D12*
X105750000Y-87830000D03*
X108960000Y-113600000D03*
X105110000Y-105850000D03*
X105110000Y-113520000D03*
X105690000Y-93360000D03*
D16*
X105690000Y-95900000D03*
D17*
X126450000Y-115800000D03*
D18*
X126450000Y-120800000D03*
X126450000Y-118300000D03*
D19*
X133950000Y-112700000D03*
X133950000Y-123900000D03*
D18*
X140950000Y-115800000D03*
X140950000Y-120800000D03*
D20*
X113650000Y-99530000D03*
X134080000Y-90650000D03*
X110090000Y-99510000D03*
X105580000Y-99460000D03*
X107410000Y-90460000D03*
X133520000Y-101680500D03*
X124800000Y-76200000D03*
X132070000Y-90600000D03*
X110970000Y-99520000D03*
X133030000Y-88600000D03*
X134030000Y-89490000D03*
X132060000Y-89530000D03*
X134030000Y-88590000D03*
X107420000Y-99490000D03*
X137840000Y-98770000D03*
X141740000Y-90520000D03*
X138500000Y-75000000D03*
X103720000Y-99490000D03*
X125830000Y-78400000D03*
X124300000Y-74600000D03*
X136400000Y-108700000D03*
X141680000Y-86940000D03*
X109200000Y-99500000D03*
X106500000Y-99470000D03*
X133110000Y-90600000D03*
X105560000Y-90460000D03*
X138500000Y-74000000D03*
X110200000Y-90500000D03*
X113720000Y-90470000D03*
X108320000Y-99510000D03*
X103710000Y-90380000D03*
X106500000Y-90480000D03*
X133020000Y-89530000D03*
X109240000Y-90480000D03*
X138590000Y-81580000D03*
X132060000Y-88570000D03*
X138500000Y-76000000D03*
X104630000Y-99510000D03*
X108320000Y-90440000D03*
X104630000Y-90430000D03*
X111850000Y-99530000D03*
X112860000Y-90460000D03*
X112740000Y-99520000D03*
X151120000Y-104140000D03*
X135710000Y-95500000D03*
X138540000Y-83550000D03*
X118960000Y-90060000D03*
X133469805Y-84789865D03*
X113940000Y-86895000D03*
X131410000Y-78530000D03*
X116300000Y-97980000D03*
X149170000Y-77370000D03*
X124480000Y-85540000D03*
X139770000Y-86940000D03*
X153040000Y-101440000D03*
X131440000Y-76270000D03*
X121880000Y-82220000D03*
X135560000Y-103602500D03*
X124510000Y-108580000D03*
X124470000Y-109580000D03*
X137580000Y-103622500D03*
X120670000Y-89620701D03*
X124349729Y-110572240D03*
X121500000Y-88269301D03*
X118330000Y-83277500D03*
X135950000Y-94460000D03*
X145700000Y-101890000D03*
X145730000Y-99520000D03*
X123220000Y-92220000D03*
X120380000Y-99340000D03*
X120375700Y-97190460D03*
X121710000Y-97190460D03*
X121690000Y-99250000D03*
X128250000Y-92990460D03*
X134390000Y-96110000D03*
X134762295Y-95182422D03*
X147360000Y-107340000D03*
X148157500Y-97130000D03*
X143340000Y-92290000D03*
X147700000Y-83270000D03*
D21*
X140790000Y-88360000D02*
X140790000Y-85800000D01*
X148080000Y-95500000D02*
X137000000Y-95500000D01*
X137000000Y-95500000D02*
X137000000Y-89810000D01*
X138110000Y-88700000D02*
X140450000Y-88700000D01*
X140790000Y-85800000D02*
X138540000Y-83550000D01*
X140450000Y-88700000D02*
X140790000Y-88360000D01*
X149020000Y-103340000D02*
X149020000Y-96440000D01*
X149020000Y-96440000D02*
X148080000Y-95500000D01*
X149820000Y-104140000D02*
X149020000Y-103340000D01*
X151120000Y-104140000D02*
X149820000Y-104140000D01*
X135710000Y-95500000D02*
X137000000Y-95500000D01*
X137000000Y-89810000D02*
X138110000Y-88700000D01*
D22*
X131410000Y-78530000D02*
X133060000Y-78530000D01*
X133469805Y-78939805D02*
X133469805Y-84789865D01*
D23*
X118960000Y-90060000D02*
X118960000Y-87160000D01*
D22*
X133060000Y-78530000D02*
X133469805Y-78939805D01*
D23*
X149170000Y-77370000D02*
X149670000Y-77870000D01*
X113560000Y-97980000D02*
X116300000Y-97980000D01*
X113940000Y-86895000D02*
X112325000Y-86895000D01*
X149670000Y-77870000D02*
X149670000Y-100750000D01*
D21*
X138859865Y-84789865D02*
X139770000Y-85700000D01*
D23*
X149670000Y-100750000D02*
X150360000Y-101440000D01*
X150360000Y-101440000D02*
X153040000Y-101440000D01*
X118960000Y-87160000D02*
X120580000Y-85540000D01*
X112325000Y-86895000D02*
X111770000Y-87450000D01*
X120580000Y-85540000D02*
X124480000Y-85540000D01*
D21*
X139770000Y-85700000D02*
X139770000Y-86940000D01*
D23*
X111770000Y-87450000D02*
X111770000Y-96190000D01*
D21*
X133469805Y-84789865D02*
X138859865Y-84789865D01*
D23*
X111770000Y-96190000D02*
X113560000Y-97980000D01*
D21*
X125040000Y-77370000D02*
X125040000Y-80780000D01*
X123600000Y-82220000D02*
X121880000Y-82220000D01*
X125040000Y-80780000D02*
X123600000Y-82220000D01*
X126140000Y-76270000D02*
X125040000Y-77370000D01*
X131440000Y-76270000D02*
X126140000Y-76270000D01*
X124510000Y-108580000D02*
X134890000Y-108580000D01*
X134890000Y-108580000D02*
X135560000Y-107910000D01*
X135560000Y-107910000D02*
X135560000Y-103602500D01*
X124470000Y-109580000D02*
X136820000Y-109580000D01*
X136820000Y-109580000D02*
X137580000Y-108820000D01*
X137580000Y-108820000D02*
X137580000Y-103622500D01*
X120670000Y-89099301D02*
X120670000Y-89620701D01*
X138032240Y-110572240D02*
X140950000Y-113490000D01*
X140950000Y-113490000D02*
X140950000Y-115800000D01*
X121500000Y-88269301D02*
X120670000Y-89099301D01*
X124349729Y-110572240D02*
X138032240Y-110572240D01*
X132556150Y-97866160D02*
X117926160Y-97866160D01*
X133920000Y-94460000D02*
X133300000Y-95080000D01*
X115671789Y-84548211D02*
X116942500Y-83277500D01*
X117926160Y-97866160D02*
X115671789Y-95611789D01*
X133300000Y-95080000D02*
X133300000Y-97122310D01*
X115671789Y-95611789D02*
X115671789Y-84548211D01*
X116942500Y-83277500D02*
X118330000Y-83277500D01*
X133300000Y-97122310D02*
X132556150Y-97866160D01*
X135950000Y-94460000D02*
X133920000Y-94460000D01*
D22*
X145730000Y-99520000D02*
X145730000Y-101860000D01*
D21*
X145730000Y-101860000D02*
X145700000Y-101890000D01*
X117245380Y-99340000D02*
X113921540Y-102663840D01*
X123220000Y-92220000D02*
X121640000Y-92220000D01*
X120890000Y-92970000D02*
X120375700Y-93484300D01*
X113921540Y-102663840D02*
X109096160Y-102663840D01*
X108341920Y-104675770D02*
X106680000Y-106337690D01*
X120375700Y-93484300D02*
X120375700Y-97190460D01*
X109096160Y-102663840D02*
X108341920Y-103418080D01*
X106680000Y-109290000D02*
X106220000Y-109750000D01*
X106220000Y-109750000D02*
X105110000Y-109750000D01*
X108341920Y-103418080D02*
X108341920Y-104675770D01*
X120380000Y-99340000D02*
X117245380Y-99340000D01*
X106680000Y-106337690D02*
X106680000Y-109290000D01*
X121640000Y-92220000D02*
X120890000Y-92970000D01*
X107070000Y-112250000D02*
X105800000Y-113520000D01*
X128249540Y-92990000D02*
X122410000Y-92990000D01*
X105800000Y-113520000D02*
X105110000Y-113520000D01*
X128250000Y-92990460D02*
X128249540Y-92990000D01*
X122410000Y-92990000D02*
X121710000Y-93690000D01*
X109241930Y-103015760D02*
X108693840Y-103563850D01*
X108693840Y-104821540D02*
X107070000Y-106445380D01*
X121710000Y-93690000D02*
X121710000Y-97190460D01*
X121690000Y-99250000D02*
X121690000Y-99460000D01*
X114067310Y-103015760D02*
X109241930Y-103015760D01*
X116913070Y-100170000D02*
X114067310Y-103015760D01*
X108693840Y-103563850D02*
X108693840Y-104821540D01*
X120980000Y-100170000D02*
X116913070Y-100170000D01*
X121690000Y-99460000D02*
X120980000Y-100170000D01*
X107070000Y-106445380D02*
X107070000Y-112250000D01*
X117517690Y-98570000D02*
X113775770Y-102311920D01*
X107990000Y-103272310D02*
X107990000Y-104530000D01*
X134390000Y-96110000D02*
X134390000Y-97180000D01*
X108950390Y-102311920D02*
X107990000Y-103272310D01*
X106670000Y-105850000D02*
X105110000Y-105850000D01*
X134390000Y-97180000D02*
X133000000Y-98570000D01*
X107990000Y-104530000D02*
X106670000Y-105850000D01*
X113775770Y-102311920D02*
X108950390Y-102311920D01*
X133000000Y-98570000D02*
X117517690Y-98570000D01*
X133710000Y-95834399D02*
X133710000Y-97210000D01*
X117371920Y-98218080D02*
X113630000Y-101960000D01*
X132701920Y-98218080D02*
X117371920Y-98218080D01*
X134762295Y-95182422D02*
X134361977Y-95182422D01*
X133710000Y-97210000D02*
X132701920Y-98218080D01*
X134361977Y-95182422D02*
X133710000Y-95834399D01*
X113630000Y-101960000D02*
X105150000Y-101960000D01*
D23*
X147360000Y-97927500D02*
X148157500Y-97130000D01*
D22*
X146630000Y-92150000D02*
X147700000Y-91080000D01*
D23*
X108960000Y-109710000D02*
X118690000Y-109710000D01*
D22*
X143340000Y-92290000D02*
X146490000Y-92290000D01*
X146490000Y-92290000D02*
X146630000Y-92150000D01*
D23*
X143320000Y-104260000D02*
X147360000Y-104260000D01*
X147360000Y-104260000D02*
X147360000Y-97927500D01*
X125870000Y-102530000D02*
X141590000Y-102530000D01*
X141590000Y-102530000D02*
X143320000Y-104260000D01*
D22*
X147700000Y-91080000D02*
X147700000Y-83270000D01*
D23*
X147360000Y-107340000D02*
X147360000Y-104260000D01*
X118690000Y-109710000D02*
X125870000Y-102530000D01*
G04 #@! TA.AperFunction,Conductor*
G36*
X152989495Y-70154961D02*
G01*
X153000000Y-70157776D01*
X153009563Y-70155214D01*
X153015587Y-70155214D01*
X153028726Y-70153811D01*
X153187413Y-70161607D01*
X153373438Y-70170746D01*
X153380782Y-70171469D01*
X153603275Y-70204473D01*
X153746983Y-70225790D01*
X153754211Y-70227228D01*
X153933764Y-70272203D01*
X154113313Y-70317178D01*
X154120375Y-70319320D01*
X154322464Y-70391628D01*
X154468937Y-70444037D01*
X154475748Y-70446858D01*
X154664891Y-70536316D01*
X154810405Y-70605140D01*
X154816914Y-70608619D01*
X155134449Y-70798942D01*
X155140582Y-70803040D01*
X155437932Y-71023570D01*
X155443623Y-71028240D01*
X155717927Y-71276855D01*
X155723142Y-71282070D01*
X155971760Y-71556377D01*
X155976430Y-71562068D01*
X156196958Y-71859416D01*
X156201058Y-71865551D01*
X156391381Y-72183086D01*
X156394860Y-72189595D01*
X156553140Y-72524248D01*
X156555963Y-72531063D01*
X156608372Y-72677536D01*
X156680680Y-72879625D01*
X156682822Y-72886687D01*
X156772771Y-73245784D01*
X156774210Y-73253017D01*
X156795527Y-73396725D01*
X156828531Y-73619218D01*
X156829254Y-73626562D01*
X156831083Y-73663782D01*
X156845656Y-73960419D01*
X156846189Y-73971272D01*
X156844786Y-73984413D01*
X156844786Y-73990437D01*
X156842224Y-74000000D01*
X156845039Y-74010505D01*
X156847600Y-74029962D01*
X156847600Y-83772400D01*
X156830007Y-83820738D01*
X156785458Y-83846458D01*
X156772400Y-83847600D01*
X155529962Y-83847600D01*
X155510505Y-83845039D01*
X155500000Y-83842224D01*
X155491963Y-83844378D01*
X155488333Y-83844787D01*
X155487535Y-83844787D01*
X155486362Y-83845009D01*
X155353909Y-83859933D01*
X155215143Y-83908489D01*
X155211570Y-83910734D01*
X155211568Y-83910735D01*
X155104069Y-83978282D01*
X155090662Y-83986706D01*
X154986706Y-84090662D01*
X154984459Y-84094238D01*
X154945044Y-84156967D01*
X154908489Y-84215143D01*
X154859933Y-84353909D01*
X154846891Y-84469667D01*
X154845010Y-84486357D01*
X154844787Y-84487535D01*
X154844787Y-84488333D01*
X154844378Y-84491963D01*
X154842224Y-84500000D01*
X154845039Y-84510505D01*
X154847600Y-84529962D01*
X154847600Y-94470038D01*
X154845039Y-94489495D01*
X154842224Y-94500000D01*
X154844378Y-94508037D01*
X154844787Y-94511667D01*
X154844787Y-94512465D01*
X154845009Y-94513638D01*
X154859933Y-94646091D01*
X154908489Y-94784857D01*
X154910734Y-94788430D01*
X154910735Y-94788432D01*
X154973710Y-94888655D01*
X154986706Y-94909338D01*
X155090662Y-95013294D01*
X155094238Y-95015541D01*
X155211568Y-95089265D01*
X155211570Y-95089266D01*
X155215143Y-95091511D01*
X155353909Y-95140067D01*
X155486362Y-95154991D01*
X155487535Y-95155213D01*
X155488333Y-95155213D01*
X155491963Y-95155622D01*
X155500000Y-95157776D01*
X155510505Y-95154961D01*
X155529962Y-95152400D01*
X156772400Y-95152400D01*
X156820738Y-95169993D01*
X156846458Y-95214542D01*
X156847600Y-95227600D01*
X156847600Y-123970038D01*
X156845039Y-123989495D01*
X156842224Y-124000000D01*
X156844786Y-124009563D01*
X156844786Y-124015587D01*
X156846189Y-124028728D01*
X156829254Y-124373438D01*
X156828531Y-124380782D01*
X156774211Y-124746978D01*
X156772772Y-124754211D01*
X156760938Y-124801457D01*
X156682822Y-125113313D01*
X156680680Y-125120375D01*
X156555964Y-125468934D01*
X156553140Y-125475752D01*
X156394860Y-125810405D01*
X156391381Y-125816914D01*
X156201058Y-126134449D01*
X156196960Y-126140582D01*
X155976430Y-126437932D01*
X155971760Y-126443623D01*
X155760054Y-126677204D01*
X155723145Y-126717927D01*
X155717930Y-126723142D01*
X155443623Y-126971760D01*
X155437932Y-126976430D01*
X155140584Y-127196958D01*
X155134449Y-127201058D01*
X154816914Y-127391381D01*
X154810405Y-127394860D01*
X154515772Y-127534212D01*
X154475752Y-127553140D01*
X154468937Y-127555963D01*
X154322464Y-127608372D01*
X154120375Y-127680680D01*
X154113313Y-127682822D01*
X153960714Y-127721046D01*
X153754211Y-127772772D01*
X153746983Y-127774210D01*
X153603275Y-127795527D01*
X153380782Y-127828531D01*
X153373438Y-127829254D01*
X153187413Y-127838393D01*
X153028726Y-127846189D01*
X153015587Y-127844786D01*
X153009563Y-127844786D01*
X153000000Y-127842224D01*
X152989495Y-127845039D01*
X152970038Y-127847600D01*
X107029962Y-127847600D01*
X107010505Y-127845039D01*
X107000000Y-127842224D01*
X106990437Y-127844786D01*
X106984413Y-127844786D01*
X106971274Y-127846189D01*
X106812587Y-127838393D01*
X106626562Y-127829254D01*
X106619218Y-127828531D01*
X106396725Y-127795527D01*
X106253017Y-127774210D01*
X106245789Y-127772772D01*
X106039286Y-127721046D01*
X105886687Y-127682822D01*
X105879625Y-127680680D01*
X105677536Y-127608372D01*
X105531063Y-127555963D01*
X105524248Y-127553140D01*
X105484229Y-127534212D01*
X105189595Y-127394860D01*
X105183086Y-127391381D01*
X104865551Y-127201058D01*
X104859416Y-127196958D01*
X104562068Y-126976430D01*
X104556377Y-126971760D01*
X104282070Y-126723142D01*
X104276855Y-126717927D01*
X104239946Y-126677204D01*
X104028240Y-126443623D01*
X104023570Y-126437932D01*
X103803040Y-126140582D01*
X103798942Y-126134449D01*
X103608619Y-125816914D01*
X103605140Y-125810405D01*
X103446860Y-125475752D01*
X103444036Y-125468934D01*
X103319320Y-125120375D01*
X103317178Y-125113313D01*
X103239062Y-124801457D01*
X103227228Y-124754211D01*
X103225789Y-124746978D01*
X103189153Y-124500000D01*
X104164754Y-124500000D01*
X104183720Y-124801457D01*
X104184164Y-124803782D01*
X104239874Y-125095830D01*
X104239876Y-125095838D01*
X104240319Y-125098160D01*
X104241053Y-125100419D01*
X104322310Y-125350500D01*
X104333659Y-125385430D01*
X104462267Y-125658736D01*
X104463540Y-125660741D01*
X104463540Y-125660742D01*
X104562650Y-125816914D01*
X104624115Y-125913768D01*
X104625619Y-125915586D01*
X104815148Y-126144688D01*
X104815154Y-126144694D01*
X104816651Y-126146504D01*
X104818365Y-126148113D01*
X104818371Y-126148120D01*
X104977123Y-126297198D01*
X105036838Y-126353274D01*
X105281205Y-126530816D01*
X105283279Y-126531956D01*
X105543820Y-126675191D01*
X105543824Y-126675193D01*
X105545896Y-126676332D01*
X105826738Y-126787525D01*
X105829028Y-126788113D01*
X106117010Y-126862054D01*
X106117017Y-126862055D01*
X106119302Y-126862642D01*
X106418973Y-126900500D01*
X106721027Y-126900500D01*
X107020698Y-126862642D01*
X107022983Y-126862055D01*
X107022990Y-126862054D01*
X107310972Y-126788113D01*
X107313262Y-126787525D01*
X107594104Y-126676332D01*
X107596176Y-126675193D01*
X107596180Y-126675191D01*
X107856721Y-126531956D01*
X107858795Y-126530816D01*
X108103162Y-126353274D01*
X108162877Y-126297198D01*
X108321629Y-126148120D01*
X108321635Y-126148113D01*
X108323349Y-126146504D01*
X108324846Y-126144694D01*
X108324852Y-126144688D01*
X108514381Y-125915586D01*
X108515885Y-125913768D01*
X108577351Y-125816914D01*
X108676460Y-125660742D01*
X108676460Y-125660741D01*
X108677733Y-125658736D01*
X108806341Y-125385430D01*
X108817691Y-125350500D01*
X108876421Y-125169748D01*
X132249500Y-125169748D01*
X132261133Y-125228231D01*
X132305448Y-125294552D01*
X132371769Y-125338867D01*
X132379033Y-125340312D01*
X132426627Y-125349779D01*
X132430252Y-125350500D01*
X135469748Y-125350500D01*
X135473373Y-125349779D01*
X135520967Y-125340312D01*
X135528231Y-125338867D01*
X135594552Y-125294552D01*
X135638867Y-125228231D01*
X135650500Y-125169748D01*
X135650500Y-124500000D01*
X151184754Y-124500000D01*
X151203720Y-124801457D01*
X151204164Y-124803782D01*
X151259874Y-125095830D01*
X151259876Y-125095838D01*
X151260319Y-125098160D01*
X151261053Y-125100419D01*
X151342310Y-125350500D01*
X151353659Y-125385430D01*
X151482267Y-125658736D01*
X151483540Y-125660741D01*
X151483540Y-125660742D01*
X151582650Y-125816914D01*
X151644115Y-125913768D01*
X151645619Y-125915586D01*
X151835148Y-126144688D01*
X151835154Y-126144694D01*
X151836651Y-126146504D01*
X151838365Y-126148113D01*
X151838371Y-126148120D01*
X151997123Y-126297198D01*
X152056838Y-126353274D01*
X152301205Y-126530816D01*
X152303279Y-126531956D01*
X152563820Y-126675191D01*
X152563824Y-126675193D01*
X152565896Y-126676332D01*
X152846738Y-126787525D01*
X152849028Y-126788113D01*
X153137010Y-126862054D01*
X153137017Y-126862055D01*
X153139302Y-126862642D01*
X153438973Y-126900500D01*
X153741027Y-126900500D01*
X154040698Y-126862642D01*
X154042983Y-126862055D01*
X154042990Y-126862054D01*
X154330972Y-126788113D01*
X154333262Y-126787525D01*
X154614104Y-126676332D01*
X154616176Y-126675193D01*
X154616180Y-126675191D01*
X154876721Y-126531956D01*
X154878795Y-126530816D01*
X155123162Y-126353274D01*
X155182877Y-126297198D01*
X155341629Y-126148120D01*
X155341635Y-126148113D01*
X155343349Y-126146504D01*
X155344846Y-126144694D01*
X155344852Y-126144688D01*
X155534381Y-125915586D01*
X155535885Y-125913768D01*
X155597351Y-125816914D01*
X155696460Y-125660742D01*
X155696460Y-125660741D01*
X155697733Y-125658736D01*
X155826341Y-125385430D01*
X155837691Y-125350500D01*
X155918947Y-125100419D01*
X155919681Y-125098160D01*
X155920124Y-125095838D01*
X155920126Y-125095830D01*
X155975836Y-124803782D01*
X155976280Y-124801457D01*
X155995246Y-124500000D01*
X155976280Y-124198543D01*
X155938406Y-124000000D01*
X155920126Y-123904170D01*
X155920124Y-123904162D01*
X155919681Y-123901840D01*
X155826341Y-123614570D01*
X155697733Y-123341264D01*
X155535885Y-123086232D01*
X155529099Y-123078029D01*
X155344852Y-122855312D01*
X155344846Y-122855306D01*
X155343349Y-122853496D01*
X155341635Y-122851887D01*
X155341629Y-122851880D01*
X155124890Y-122648349D01*
X155123162Y-122646726D01*
X154878795Y-122469184D01*
X154772599Y-122410802D01*
X154616180Y-122324809D01*
X154616176Y-122324807D01*
X154614104Y-122323668D01*
X154333262Y-122212475D01*
X154330972Y-122211887D01*
X154042990Y-122137946D01*
X154042983Y-122137945D01*
X154040698Y-122137358D01*
X153741027Y-122099500D01*
X153438973Y-122099500D01*
X153139302Y-122137358D01*
X153137017Y-122137945D01*
X153137010Y-122137946D01*
X152849028Y-122211887D01*
X152846738Y-122212475D01*
X152565896Y-122323668D01*
X152563824Y-122324807D01*
X152563820Y-122324809D01*
X152407401Y-122410802D01*
X152301205Y-122469184D01*
X152056838Y-122646726D01*
X152055110Y-122648349D01*
X151838371Y-122851880D01*
X151838365Y-122851887D01*
X151836651Y-122853496D01*
X151835154Y-122855306D01*
X151835148Y-122855312D01*
X151650901Y-123078029D01*
X151644115Y-123086232D01*
X151482267Y-123341264D01*
X151353659Y-123614570D01*
X151260319Y-123901840D01*
X151259876Y-123904162D01*
X151259874Y-123904170D01*
X151241594Y-124000000D01*
X151203720Y-124198543D01*
X151184754Y-124500000D01*
X135650500Y-124500000D01*
X135650500Y-122630252D01*
X135638867Y-122571769D01*
X135594552Y-122505448D01*
X135528231Y-122461133D01*
X135520967Y-122459688D01*
X135473373Y-122450221D01*
X135473372Y-122450221D01*
X135469748Y-122449500D01*
X132430252Y-122449500D01*
X132426628Y-122450221D01*
X132426627Y-122450221D01*
X132379033Y-122459688D01*
X132371769Y-122461133D01*
X132305448Y-122505448D01*
X132261133Y-122571769D01*
X132249500Y-122630252D01*
X132249500Y-125169748D01*
X108876421Y-125169748D01*
X108898947Y-125100419D01*
X108899681Y-125098160D01*
X108900124Y-125095838D01*
X108900126Y-125095830D01*
X108955836Y-124803782D01*
X108956280Y-124801457D01*
X108975246Y-124500000D01*
X108956280Y-124198543D01*
X108918406Y-124000000D01*
X108900126Y-123904170D01*
X108900124Y-123904162D01*
X108899681Y-123901840D01*
X108806341Y-123614570D01*
X108677733Y-123341264D01*
X108515885Y-123086232D01*
X108509099Y-123078029D01*
X108324852Y-122855312D01*
X108324846Y-122855306D01*
X108323349Y-122853496D01*
X108321635Y-122851887D01*
X108321629Y-122851880D01*
X108104890Y-122648349D01*
X108103162Y-122646726D01*
X107858795Y-122469184D01*
X107752599Y-122410802D01*
X107596180Y-122324809D01*
X107596176Y-122324807D01*
X107594104Y-122323668D01*
X107313262Y-122212475D01*
X107310972Y-122211887D01*
X107022990Y-122137946D01*
X107022983Y-122137945D01*
X107020698Y-122137358D01*
X106721027Y-122099500D01*
X106418973Y-122099500D01*
X106119302Y-122137358D01*
X106117017Y-122137945D01*
X106117010Y-122137946D01*
X105829028Y-122211887D01*
X105826738Y-122212475D01*
X105545896Y-122323668D01*
X105543824Y-122324807D01*
X105543820Y-122324809D01*
X105387401Y-122410802D01*
X105281205Y-122469184D01*
X105036838Y-122646726D01*
X105035110Y-122648349D01*
X104818371Y-122851880D01*
X104818365Y-122851887D01*
X104816651Y-122853496D01*
X104815154Y-122855306D01*
X104815148Y-122855312D01*
X104630901Y-123078029D01*
X104624115Y-123086232D01*
X104462267Y-123341264D01*
X104333659Y-123614570D01*
X104240319Y-123901840D01*
X104239876Y-123904162D01*
X104239874Y-123904170D01*
X104221594Y-124000000D01*
X104183720Y-124198543D01*
X104164754Y-124500000D01*
X103189153Y-124500000D01*
X103171469Y-124380782D01*
X103170746Y-124373438D01*
X103153811Y-124028728D01*
X103155214Y-124015587D01*
X103155214Y-124009563D01*
X103157776Y-124000000D01*
X103154961Y-123989495D01*
X103152400Y-123970038D01*
X103152400Y-121668596D01*
X125694397Y-121668596D01*
X125695942Y-121674363D01*
X125719199Y-121697019D01*
X125724524Y-121701331D01*
X125894906Y-121815176D01*
X125900930Y-121818447D01*
X126089197Y-121899333D01*
X126095723Y-121901453D01*
X126295574Y-121946675D01*
X126302384Y-121947571D01*
X126507126Y-121955616D01*
X126513980Y-121955257D01*
X126716760Y-121925855D01*
X126723445Y-121924250D01*
X126917468Y-121858388D01*
X126923736Y-121855597D01*
X127102514Y-121755477D01*
X127108174Y-121751587D01*
X127199333Y-121675770D01*
X127203517Y-121668596D01*
X140194397Y-121668596D01*
X140195942Y-121674363D01*
X140219199Y-121697019D01*
X140224524Y-121701331D01*
X140394906Y-121815176D01*
X140400930Y-121818447D01*
X140589197Y-121899333D01*
X140595723Y-121901453D01*
X140795574Y-121946675D01*
X140802384Y-121947571D01*
X141007126Y-121955616D01*
X141013980Y-121955257D01*
X141216760Y-121925855D01*
X141223445Y-121924250D01*
X141417468Y-121858388D01*
X141423736Y-121855597D01*
X141602514Y-121755477D01*
X141608174Y-121751587D01*
X141699333Y-121675770D01*
X141704778Y-121666433D01*
X141703971Y-121661734D01*
X140959377Y-120917140D01*
X140949578Y-120912571D01*
X140943587Y-120914176D01*
X140198966Y-121658797D01*
X140194397Y-121668596D01*
X127203517Y-121668596D01*
X127204778Y-121666433D01*
X127203971Y-121661734D01*
X126459377Y-120917140D01*
X126449578Y-120912571D01*
X126443587Y-120914176D01*
X125698966Y-121658797D01*
X125694397Y-121668596D01*
X103152400Y-121668596D01*
X103152400Y-120773141D01*
X125293285Y-120773141D01*
X125306687Y-120977608D01*
X125307761Y-120984388D01*
X125358197Y-121182984D01*
X125360491Y-121189461D01*
X125446274Y-121375538D01*
X125449704Y-121381479D01*
X125567962Y-121548811D01*
X125571330Y-121552755D01*
X125580773Y-121557008D01*
X125586979Y-121555258D01*
X126332860Y-120809377D01*
X126337035Y-120800422D01*
X126562571Y-120800422D01*
X126564176Y-120806413D01*
X127307914Y-121550151D01*
X127317713Y-121554720D01*
X127322315Y-121553487D01*
X127401587Y-121458174D01*
X127405477Y-121452514D01*
X127505597Y-121273736D01*
X127508388Y-121267468D01*
X127574250Y-121073445D01*
X127575855Y-121066760D01*
X127605434Y-120862755D01*
X127605809Y-120858359D01*
X127607279Y-120802217D01*
X127607135Y-120797798D01*
X127604869Y-120773141D01*
X139793285Y-120773141D01*
X139806687Y-120977608D01*
X139807761Y-120984388D01*
X139858197Y-121182984D01*
X139860491Y-121189461D01*
X139946274Y-121375538D01*
X139949704Y-121381479D01*
X140067962Y-121548811D01*
X140071330Y-121552755D01*
X140080773Y-121557008D01*
X140086979Y-121555258D01*
X140832860Y-120809377D01*
X140837035Y-120800422D01*
X141062571Y-120800422D01*
X141064176Y-120806413D01*
X141807914Y-121550151D01*
X141817713Y-121554720D01*
X141822315Y-121553487D01*
X141901587Y-121458174D01*
X141905477Y-121452514D01*
X142005597Y-121273736D01*
X142008388Y-121267468D01*
X142074250Y-121073445D01*
X142075855Y-121066760D01*
X142105434Y-120862755D01*
X142105809Y-120858359D01*
X142107279Y-120802217D01*
X142107135Y-120797798D01*
X142088272Y-120592525D01*
X142087021Y-120585773D01*
X142031402Y-120388564D01*
X142028943Y-120382157D01*
X141938317Y-120198386D01*
X141934727Y-120192528D01*
X141827453Y-120048870D01*
X141818413Y-120042942D01*
X141814339Y-120043424D01*
X141067140Y-120790623D01*
X141062571Y-120800422D01*
X140837035Y-120800422D01*
X140837429Y-120799578D01*
X140835824Y-120793587D01*
X140091257Y-120049020D01*
X140081458Y-120044451D01*
X140077188Y-120045595D01*
X139981508Y-120166964D01*
X139977771Y-120172719D01*
X139882363Y-120354059D01*
X139879740Y-120360391D01*
X139818975Y-120556087D01*
X139817549Y-120562797D01*
X139793465Y-120766285D01*
X139793285Y-120773141D01*
X127604869Y-120773141D01*
X127588272Y-120592525D01*
X127587021Y-120585773D01*
X127531402Y-120388564D01*
X127528943Y-120382157D01*
X127438317Y-120198386D01*
X127434727Y-120192528D01*
X127327453Y-120048870D01*
X127318413Y-120042942D01*
X127314339Y-120043424D01*
X126567140Y-120790623D01*
X126562571Y-120800422D01*
X126337035Y-120800422D01*
X126337429Y-120799578D01*
X126335824Y-120793587D01*
X125591257Y-120049020D01*
X125581458Y-120044451D01*
X125577188Y-120045595D01*
X125481508Y-120166964D01*
X125477771Y-120172719D01*
X125382363Y-120354059D01*
X125379740Y-120360391D01*
X125318975Y-120556087D01*
X125317549Y-120562797D01*
X125293465Y-120766285D01*
X125293285Y-120773141D01*
X103152400Y-120773141D01*
X103152400Y-118268440D01*
X125244770Y-118268440D01*
X125244995Y-118271874D01*
X125244995Y-118271877D01*
X125246984Y-118302217D01*
X125259200Y-118488604D01*
X125313511Y-118702452D01*
X125405883Y-118902821D01*
X125407879Y-118905645D01*
X125531232Y-119080187D01*
X125531235Y-119080191D01*
X125533222Y-119083002D01*
X125691264Y-119236961D01*
X125874717Y-119359540D01*
X125877879Y-119360899D01*
X125877880Y-119360899D01*
X126074270Y-119445275D01*
X126074272Y-119445276D01*
X126077436Y-119446635D01*
X126292632Y-119495329D01*
X126346643Y-119497451D01*
X126394253Y-119516929D01*
X126418204Y-119562452D01*
X126407290Y-119612721D01*
X126366617Y-119644213D01*
X126356426Y-119646707D01*
X126153851Y-119681515D01*
X126147229Y-119683290D01*
X125954988Y-119754212D01*
X125948790Y-119757169D01*
X125772699Y-119861931D01*
X125767141Y-119865969D01*
X125700706Y-119924231D01*
X125695507Y-119933708D01*
X125696509Y-119938746D01*
X126440623Y-120682860D01*
X126450422Y-120687429D01*
X126456413Y-120685824D01*
X127200181Y-119942056D01*
X127204073Y-119933708D01*
X140195507Y-119933708D01*
X140196509Y-119938746D01*
X140940623Y-120682860D01*
X140950422Y-120687429D01*
X140956413Y-120685824D01*
X141700181Y-119942056D01*
X141704750Y-119932257D01*
X141703318Y-119926910D01*
X141657071Y-119884161D01*
X141651631Y-119879986D01*
X141478332Y-119770642D01*
X141472218Y-119767528D01*
X141281910Y-119691602D01*
X141275315Y-119689648D01*
X141074358Y-119649676D01*
X141067529Y-119648958D01*
X140862639Y-119646276D01*
X140855801Y-119646814D01*
X140653851Y-119681515D01*
X140647229Y-119683290D01*
X140454988Y-119754212D01*
X140448790Y-119757169D01*
X140272699Y-119861931D01*
X140267141Y-119865969D01*
X140200706Y-119924231D01*
X140195507Y-119933708D01*
X127204073Y-119933708D01*
X127204750Y-119932257D01*
X127203318Y-119926910D01*
X127157071Y-119884161D01*
X127151631Y-119879986D01*
X126978332Y-119770642D01*
X126972218Y-119767528D01*
X126781910Y-119691602D01*
X126775315Y-119689648D01*
X126574358Y-119649676D01*
X126567528Y-119648958D01*
X126556008Y-119648807D01*
X126507905Y-119630582D01*
X126482771Y-119585700D01*
X126492366Y-119535163D01*
X126532201Y-119502617D01*
X126546201Y-119499191D01*
X126731452Y-119472331D01*
X126734722Y-119471221D01*
X126937116Y-119402518D01*
X126937119Y-119402516D01*
X126940379Y-119401410D01*
X127132884Y-119293602D01*
X127302518Y-119152518D01*
X127443602Y-118982884D01*
X127551410Y-118790379D01*
X127580194Y-118705586D01*
X127621221Y-118584722D01*
X127622331Y-118581452D01*
X127653991Y-118363098D01*
X127655643Y-118300000D01*
X127635454Y-118080289D01*
X127575565Y-117867936D01*
X127559606Y-117835573D01*
X127479505Y-117673146D01*
X127477980Y-117670053D01*
X127345967Y-117493267D01*
X127183949Y-117343499D01*
X127163347Y-117330500D01*
X127000261Y-117227600D01*
X127000255Y-117227597D01*
X126997350Y-117225764D01*
X126806814Y-117149748D01*
X145939500Y-117149748D01*
X145951133Y-117208231D01*
X145995448Y-117274552D01*
X146061769Y-117318867D01*
X146069033Y-117320312D01*
X146090661Y-117324614D01*
X146120252Y-117330500D01*
X149659748Y-117330500D01*
X149689339Y-117324614D01*
X149710967Y-117320312D01*
X149718231Y-117318867D01*
X149784552Y-117274552D01*
X149828867Y-117208231D01*
X149840500Y-117149748D01*
X149840500Y-116441684D01*
X152237600Y-116441684D01*
X152237716Y-116444642D01*
X152243530Y-116518510D01*
X152244691Y-116525268D01*
X152291877Y-116701372D01*
X152294683Y-116708679D01*
X152377225Y-116870677D01*
X152381498Y-116877256D01*
X152495914Y-117018548D01*
X152501452Y-117024086D01*
X152642744Y-117138502D01*
X152649323Y-117142775D01*
X152811321Y-117225317D01*
X152818628Y-117228123D01*
X152994732Y-117275309D01*
X153001490Y-117276470D01*
X153075358Y-117282284D01*
X153078316Y-117282400D01*
X153800541Y-117282400D01*
X153810698Y-117278703D01*
X153813800Y-117273331D01*
X153813800Y-117269141D01*
X153966200Y-117269141D01*
X153969897Y-117279298D01*
X153975269Y-117282400D01*
X154701684Y-117282400D01*
X154704642Y-117282284D01*
X154778510Y-117276470D01*
X154785268Y-117275309D01*
X154961372Y-117228123D01*
X154968679Y-117225317D01*
X155130677Y-117142775D01*
X155137256Y-117138502D01*
X155278548Y-117024086D01*
X155284086Y-117018548D01*
X155398502Y-116877256D01*
X155402775Y-116870677D01*
X155485317Y-116708679D01*
X155488123Y-116701372D01*
X155535309Y-116525268D01*
X155536470Y-116518510D01*
X155542284Y-116444642D01*
X155542400Y-116441684D01*
X155542400Y-115469459D01*
X155538703Y-115459302D01*
X155533331Y-115456200D01*
X153979459Y-115456200D01*
X153969302Y-115459897D01*
X153966200Y-115465269D01*
X153966200Y-117269141D01*
X153813800Y-117269141D01*
X153813800Y-115469459D01*
X153810103Y-115459302D01*
X153804731Y-115456200D01*
X152250859Y-115456200D01*
X152240702Y-115459897D01*
X152237600Y-115465269D01*
X152237600Y-116441684D01*
X149840500Y-116441684D01*
X149840500Y-115290541D01*
X152237600Y-115290541D01*
X152241297Y-115300698D01*
X152246669Y-115303800D01*
X153800541Y-115303800D01*
X153810698Y-115300103D01*
X153813800Y-115294731D01*
X153813800Y-115290541D01*
X153966200Y-115290541D01*
X153969897Y-115300698D01*
X153975269Y-115303800D01*
X155529141Y-115303800D01*
X155539298Y-115300103D01*
X155542400Y-115294731D01*
X155542400Y-114318316D01*
X155542284Y-114315358D01*
X155536470Y-114241490D01*
X155535309Y-114234732D01*
X155488123Y-114058628D01*
X155485317Y-114051321D01*
X155402775Y-113889323D01*
X155398502Y-113882744D01*
X155284086Y-113741452D01*
X155278548Y-113735914D01*
X155137256Y-113621498D01*
X155130677Y-113617225D01*
X154968679Y-113534683D01*
X154961372Y-113531877D01*
X154785268Y-113484691D01*
X154778510Y-113483530D01*
X154704642Y-113477716D01*
X154701684Y-113477600D01*
X153979459Y-113477600D01*
X153969302Y-113481297D01*
X153966200Y-113486669D01*
X153966200Y-115290541D01*
X153813800Y-115290541D01*
X153813800Y-113490859D01*
X153810103Y-113480702D01*
X153804731Y-113477600D01*
X153078316Y-113477600D01*
X153075358Y-113477716D01*
X153001490Y-113483530D01*
X152994732Y-113484691D01*
X152818628Y-113531877D01*
X152811321Y-113534683D01*
X152649323Y-113617225D01*
X152642744Y-113621498D01*
X152501452Y-113735914D01*
X152495914Y-113741452D01*
X152381498Y-113882744D01*
X152377225Y-113889323D01*
X152294683Y-114051321D01*
X152291877Y-114058628D01*
X152244691Y-114234732D01*
X152243530Y-114241490D01*
X152237716Y-114315358D01*
X152237600Y-114318316D01*
X152237600Y-115290541D01*
X149840500Y-115290541D01*
X149840500Y-113610252D01*
X149828867Y-113551769D01*
X149784552Y-113485448D01*
X149718231Y-113441133D01*
X149710967Y-113439688D01*
X149663373Y-113430221D01*
X149663372Y-113430221D01*
X149659748Y-113429500D01*
X146120252Y-113429500D01*
X146116628Y-113430221D01*
X146116627Y-113430221D01*
X146069033Y-113439688D01*
X146061769Y-113441133D01*
X145995448Y-113485448D01*
X145951133Y-113551769D01*
X145939500Y-113610252D01*
X145939500Y-117149748D01*
X126806814Y-117149748D01*
X126798051Y-117146252D01*
X126796284Y-117145547D01*
X126757907Y-117111294D01*
X126750526Y-117060386D01*
X126777594Y-117016644D01*
X126824150Y-117000500D01*
X127469748Y-117000500D01*
X127495066Y-116995464D01*
X127520967Y-116990312D01*
X127528231Y-116988867D01*
X127594552Y-116944552D01*
X127638867Y-116878231D01*
X127650500Y-116819748D01*
X127650500Y-114780252D01*
X127638867Y-114721769D01*
X127594552Y-114655448D01*
X127528231Y-114611133D01*
X127520967Y-114609688D01*
X127473373Y-114600221D01*
X127473372Y-114600221D01*
X127469748Y-114599500D01*
X125430252Y-114599500D01*
X125426628Y-114600221D01*
X125426627Y-114600221D01*
X125379033Y-114609688D01*
X125371769Y-114611133D01*
X125305448Y-114655448D01*
X125261133Y-114721769D01*
X125249500Y-114780252D01*
X125249500Y-116819748D01*
X125261133Y-116878231D01*
X125305448Y-116944552D01*
X125371769Y-116988867D01*
X125379033Y-116990312D01*
X125404934Y-116995464D01*
X125430252Y-117000500D01*
X126082616Y-117000500D01*
X126130954Y-117018093D01*
X126156674Y-117062642D01*
X126147741Y-117113300D01*
X126108644Y-117146252D01*
X125930957Y-117211804D01*
X125741341Y-117324614D01*
X125575457Y-117470090D01*
X125573323Y-117472796D01*
X125573321Y-117472799D01*
X125557186Y-117493267D01*
X125438863Y-117643360D01*
X125437260Y-117646408D01*
X125437258Y-117646410D01*
X125337734Y-117835573D01*
X125336131Y-117838620D01*
X125335111Y-117841905D01*
X125325999Y-117871252D01*
X125270703Y-118049333D01*
X125244770Y-118268440D01*
X103152400Y-118268440D01*
X103152400Y-114389748D01*
X104059500Y-114389748D01*
X104071133Y-114448231D01*
X104115448Y-114514552D01*
X104181769Y-114558867D01*
X104189033Y-114560312D01*
X104207504Y-114563986D01*
X104240252Y-114570500D01*
X105979748Y-114570500D01*
X106012496Y-114563986D01*
X106030967Y-114560312D01*
X106038231Y-114558867D01*
X106104552Y-114514552D01*
X106140124Y-114461316D01*
X107957600Y-114461316D01*
X107958321Y-114468637D01*
X107964997Y-114502198D01*
X107970558Y-114515623D01*
X107996014Y-114553720D01*
X108006280Y-114563986D01*
X108044377Y-114589442D01*
X108057802Y-114595003D01*
X108091363Y-114601679D01*
X108098684Y-114602400D01*
X108870541Y-114602400D01*
X108880698Y-114598703D01*
X108883800Y-114593331D01*
X108883800Y-114589141D01*
X109036200Y-114589141D01*
X109039897Y-114599298D01*
X109045269Y-114602400D01*
X109821316Y-114602400D01*
X109828637Y-114601679D01*
X109862198Y-114595003D01*
X109875623Y-114589442D01*
X109913720Y-114563986D01*
X109923986Y-114553720D01*
X109949442Y-114515623D01*
X109955003Y-114502198D01*
X109961679Y-114468637D01*
X109962400Y-114461316D01*
X109962400Y-113969748D01*
X132249500Y-113969748D01*
X132261133Y-114028231D01*
X132305448Y-114094552D01*
X132371769Y-114138867D01*
X132379033Y-114140312D01*
X132426627Y-114149779D01*
X132430252Y-114150500D01*
X135469748Y-114150500D01*
X135473373Y-114149779D01*
X135520967Y-114140312D01*
X135528231Y-114138867D01*
X135594552Y-114094552D01*
X135638867Y-114028231D01*
X135650500Y-113969748D01*
X135650500Y-111430252D01*
X135638867Y-111371769D01*
X135594552Y-111305448D01*
X135528231Y-111261133D01*
X135520967Y-111259688D01*
X135473373Y-111250221D01*
X135473372Y-111250221D01*
X135469748Y-111249500D01*
X132430252Y-111249500D01*
X132426628Y-111250221D01*
X132426627Y-111250221D01*
X132379033Y-111259688D01*
X132371769Y-111261133D01*
X132305448Y-111305448D01*
X132261133Y-111371769D01*
X132249500Y-111430252D01*
X132249500Y-113969748D01*
X109962400Y-113969748D01*
X109962400Y-113689459D01*
X109958703Y-113679302D01*
X109953331Y-113676200D01*
X109049459Y-113676200D01*
X109039302Y-113679897D01*
X109036200Y-113685269D01*
X109036200Y-114589141D01*
X108883800Y-114589141D01*
X108883800Y-113689459D01*
X108880103Y-113679302D01*
X108874731Y-113676200D01*
X107970859Y-113676200D01*
X107960702Y-113679897D01*
X107957600Y-113685269D01*
X107957600Y-114461316D01*
X106140124Y-114461316D01*
X106148867Y-114448231D01*
X106160500Y-114389748D01*
X106160500Y-113581961D01*
X106178093Y-113533623D01*
X106182526Y-113528787D01*
X106200772Y-113510541D01*
X107957600Y-113510541D01*
X107961297Y-113520698D01*
X107966669Y-113523800D01*
X108870541Y-113523800D01*
X108880698Y-113520103D01*
X108883800Y-113514731D01*
X108883800Y-113510541D01*
X109036200Y-113510541D01*
X109039897Y-113520698D01*
X109045269Y-113523800D01*
X109949141Y-113523800D01*
X109959298Y-113520103D01*
X109962400Y-113514731D01*
X109962400Y-112738684D01*
X109961679Y-112731363D01*
X109955003Y-112697802D01*
X109949442Y-112684377D01*
X109923986Y-112646280D01*
X109913720Y-112636014D01*
X109875623Y-112610558D01*
X109862198Y-112604997D01*
X109828637Y-112598321D01*
X109821316Y-112597600D01*
X109049459Y-112597600D01*
X109039302Y-112601297D01*
X109036200Y-112606669D01*
X109036200Y-113510541D01*
X108883800Y-113510541D01*
X108883800Y-112610859D01*
X108880103Y-112600702D01*
X108874731Y-112597600D01*
X108098684Y-112597600D01*
X108091363Y-112598321D01*
X108057802Y-112604997D01*
X108044377Y-112610558D01*
X108006280Y-112636014D01*
X107996014Y-112646280D01*
X107970558Y-112684377D01*
X107964997Y-112697802D01*
X107958321Y-112731363D01*
X107957600Y-112738684D01*
X107957600Y-113510541D01*
X106200772Y-113510541D01*
X107230337Y-112480976D01*
X107233876Y-112477921D01*
X107237833Y-112475987D01*
X107269020Y-112442367D01*
X107270977Y-112440336D01*
X107283854Y-112427459D01*
X107285815Y-112424601D01*
X107287209Y-112422923D01*
X107289913Y-112419844D01*
X107303213Y-112405507D01*
X107303214Y-112405505D01*
X107307935Y-112400416D01*
X107312521Y-112388919D01*
X107320356Y-112374248D01*
X107327356Y-112364044D01*
X107330656Y-112350141D01*
X107333290Y-112339040D01*
X107336612Y-112328538D01*
X107344164Y-112309608D01*
X107346132Y-112304676D01*
X107346700Y-112298883D01*
X107346700Y-112291334D01*
X107348732Y-112273971D01*
X107349554Y-112270506D01*
X107351157Y-112263751D01*
X107347387Y-112236049D01*
X107346700Y-112225908D01*
X107346700Y-106591141D01*
X107364293Y-106542803D01*
X107368726Y-106537967D01*
X108854177Y-105052516D01*
X108857716Y-105049461D01*
X108861673Y-105047527D01*
X108892860Y-105013907D01*
X108894817Y-105011876D01*
X108907695Y-104998998D01*
X108909656Y-104996140D01*
X108911050Y-104994462D01*
X108913754Y-104991383D01*
X108927053Y-104977047D01*
X108927054Y-104977045D01*
X108931775Y-104971956D01*
X108936360Y-104960462D01*
X108944195Y-104945791D01*
X108947269Y-104941310D01*
X108951197Y-104935584D01*
X108957129Y-104910585D01*
X108960451Y-104900082D01*
X108968005Y-104881149D01*
X108968007Y-104881141D01*
X108969972Y-104876216D01*
X108970540Y-104870423D01*
X108970540Y-104862872D01*
X108972572Y-104845509D01*
X108973394Y-104842044D01*
X108974997Y-104835290D01*
X108972270Y-104815248D01*
X108971227Y-104807588D01*
X108970540Y-104797447D01*
X108970540Y-103709611D01*
X108988133Y-103661273D01*
X108992566Y-103656437D01*
X109334517Y-103314486D01*
X109381137Y-103292746D01*
X109387691Y-103292460D01*
X114017360Y-103292460D01*
X114022021Y-103292802D01*
X114026189Y-103294233D01*
X114072005Y-103292513D01*
X114074826Y-103292460D01*
X114093046Y-103292460D01*
X114096457Y-103291825D01*
X114098620Y-103291625D01*
X114102708Y-103291360D01*
X114129195Y-103290366D01*
X114135575Y-103287625D01*
X114140564Y-103285482D01*
X114156479Y-103280646D01*
X114168647Y-103278380D01*
X114190521Y-103264897D01*
X114200295Y-103259820D01*
X114200436Y-103259760D01*
X114223903Y-103249677D01*
X114228401Y-103245982D01*
X114233739Y-103240644D01*
X114247453Y-103229803D01*
X114250484Y-103227935D01*
X114250485Y-103227934D01*
X114256395Y-103224291D01*
X114273318Y-103202036D01*
X114280003Y-103194380D01*
X115584383Y-101890000D01*
X145094318Y-101890000D01*
X145094961Y-101894884D01*
X145112097Y-102025044D01*
X145114956Y-102046762D01*
X145175464Y-102192841D01*
X145271718Y-102318282D01*
X145397159Y-102414536D01*
X145543238Y-102475044D01*
X145548116Y-102475686D01*
X145548119Y-102475687D01*
X145695116Y-102495039D01*
X145700000Y-102495682D01*
X145704884Y-102495039D01*
X145851881Y-102475687D01*
X145851884Y-102475686D01*
X145856762Y-102475044D01*
X146002841Y-102414536D01*
X146128282Y-102318282D01*
X146224536Y-102192841D01*
X146285044Y-102046762D01*
X146287904Y-102025044D01*
X146305039Y-101894884D01*
X146305682Y-101890000D01*
X146304459Y-101880710D01*
X146285687Y-101738119D01*
X146285686Y-101738116D01*
X146285044Y-101733238D01*
X146224536Y-101587159D01*
X146128282Y-101461718D01*
X146109921Y-101447629D01*
X146082282Y-101404245D01*
X146080500Y-101387969D01*
X146080500Y-100045051D01*
X146098093Y-99996713D01*
X146109921Y-99985391D01*
X146154375Y-99951280D01*
X146158282Y-99948282D01*
X146254536Y-99822841D01*
X146315044Y-99676762D01*
X146320110Y-99638286D01*
X146335039Y-99524884D01*
X146335682Y-99520000D01*
X146320513Y-99404779D01*
X146315687Y-99368119D01*
X146315686Y-99368116D01*
X146315044Y-99363238D01*
X146254536Y-99217159D01*
X146158282Y-99091718D01*
X146032841Y-98995464D01*
X145886762Y-98934956D01*
X145881884Y-98934314D01*
X145881881Y-98934313D01*
X145734884Y-98914961D01*
X145730000Y-98914318D01*
X145725116Y-98914961D01*
X145578119Y-98934313D01*
X145578116Y-98934314D01*
X145573238Y-98934956D01*
X145427159Y-98995464D01*
X145301718Y-99091718D01*
X145205464Y-99217159D01*
X145144956Y-99363238D01*
X145144314Y-99368116D01*
X145144313Y-99368119D01*
X145139487Y-99404779D01*
X145124318Y-99520000D01*
X145124961Y-99524884D01*
X145139891Y-99638286D01*
X145144956Y-99676762D01*
X145205464Y-99822841D01*
X145301718Y-99948282D01*
X145305625Y-99951280D01*
X145350079Y-99985391D01*
X145377718Y-100028775D01*
X145379500Y-100045051D01*
X145379500Y-101341930D01*
X145361907Y-101390268D01*
X145350082Y-101401588D01*
X145271718Y-101461718D01*
X145175464Y-101587159D01*
X145114956Y-101733238D01*
X145114314Y-101738116D01*
X145114313Y-101738119D01*
X145095541Y-101880710D01*
X145094318Y-101890000D01*
X115584383Y-101890000D01*
X117005657Y-100468726D01*
X117052277Y-100446986D01*
X117058831Y-100446700D01*
X120930050Y-100446700D01*
X120934711Y-100447042D01*
X120938879Y-100448473D01*
X120984695Y-100446753D01*
X120987516Y-100446700D01*
X121005736Y-100446700D01*
X121009147Y-100446065D01*
X121011310Y-100445865D01*
X121015398Y-100445600D01*
X121041885Y-100444606D01*
X121048265Y-100441865D01*
X121053254Y-100439722D01*
X121069169Y-100434886D01*
X121081337Y-100432620D01*
X121103211Y-100419137D01*
X121112985Y-100414060D01*
X121113126Y-100414000D01*
X121136593Y-100403917D01*
X121141091Y-100400222D01*
X121146429Y-100394884D01*
X121160143Y-100384043D01*
X121163174Y-100382175D01*
X121163175Y-100382174D01*
X121169085Y-100378531D01*
X121186008Y-100356276D01*
X121192693Y-100348620D01*
X121666917Y-99874396D01*
X121710275Y-99853013D01*
X121841881Y-99835687D01*
X121841884Y-99835686D01*
X121846762Y-99835044D01*
X121992841Y-99774536D01*
X122118282Y-99678282D01*
X122214536Y-99552841D01*
X122275044Y-99406762D01*
X122275861Y-99400562D01*
X122295039Y-99254884D01*
X122295682Y-99250000D01*
X122275044Y-99093238D01*
X122273160Y-99088689D01*
X122215994Y-98950678D01*
X122213751Y-98899287D01*
X122245065Y-98858477D01*
X122285470Y-98846700D01*
X132950050Y-98846700D01*
X132954711Y-98847042D01*
X132958879Y-98848473D01*
X133004695Y-98846753D01*
X133007516Y-98846700D01*
X133025736Y-98846700D01*
X133029147Y-98846065D01*
X133031310Y-98845865D01*
X133035398Y-98845600D01*
X133061885Y-98844606D01*
X133068265Y-98841865D01*
X133073254Y-98839722D01*
X133089169Y-98834886D01*
X133101337Y-98832620D01*
X133123211Y-98819137D01*
X133132985Y-98814060D01*
X133133126Y-98814000D01*
X133156593Y-98803917D01*
X133161091Y-98800222D01*
X133166429Y-98794884D01*
X133180143Y-98784043D01*
X133183174Y-98782175D01*
X133183175Y-98782174D01*
X133189085Y-98778531D01*
X133206008Y-98756276D01*
X133212693Y-98748620D01*
X134550337Y-97410976D01*
X134553876Y-97407921D01*
X134557833Y-97405987D01*
X134589020Y-97372367D01*
X134590977Y-97370336D01*
X134603855Y-97357458D01*
X134605816Y-97354600D01*
X134607210Y-97352922D01*
X134609914Y-97349843D01*
X134623213Y-97335507D01*
X134623214Y-97335505D01*
X134627935Y-97330416D01*
X134632520Y-97318922D01*
X134640355Y-97304251D01*
X134643429Y-97299770D01*
X134647357Y-97294044D01*
X134653289Y-97269045D01*
X134656611Y-97258542D01*
X134664165Y-97239609D01*
X134664167Y-97239601D01*
X134666132Y-97234676D01*
X134666700Y-97228883D01*
X134666700Y-97221332D01*
X134668732Y-97203969D01*
X134669554Y-97200504D01*
X134671157Y-97193750D01*
X134667387Y-97166048D01*
X134666700Y-97155907D01*
X134666700Y-96691679D01*
X134684293Y-96643341D01*
X134696121Y-96632019D01*
X134698242Y-96630392D01*
X134818282Y-96538282D01*
X134914536Y-96412841D01*
X134975044Y-96266762D01*
X134978035Y-96244048D01*
X134995039Y-96114884D01*
X134995682Y-96110000D01*
X134992481Y-96085687D01*
X134975687Y-95958119D01*
X134975686Y-95958116D01*
X134975044Y-95953238D01*
X134929942Y-95844352D01*
X134927698Y-95792962D01*
X134959013Y-95752152D01*
X134970634Y-95746102D01*
X135064467Y-95707235D01*
X135115857Y-95704991D01*
X135156667Y-95736306D01*
X135162720Y-95747933D01*
X135185464Y-95802841D01*
X135188462Y-95806748D01*
X135260017Y-95900000D01*
X135281718Y-95928282D01*
X135285625Y-95931280D01*
X135308314Y-95948690D01*
X135407159Y-96024536D01*
X135553238Y-96085044D01*
X135558116Y-96085686D01*
X135558119Y-96085687D01*
X135705116Y-96105039D01*
X135710000Y-96105682D01*
X135714884Y-96105039D01*
X135861881Y-96085687D01*
X135861884Y-96085686D01*
X135866762Y-96085044D01*
X136012841Y-96024536D01*
X136111686Y-95948690D01*
X136134375Y-95931280D01*
X136138282Y-95928282D01*
X136161590Y-95897907D01*
X136232019Y-95806121D01*
X136275403Y-95778483D01*
X136291679Y-95776700D01*
X136949949Y-95776700D01*
X136958910Y-95777971D01*
X136958952Y-95777541D01*
X136965861Y-95778218D01*
X136972531Y-95780150D01*
X136979448Y-95779551D01*
X136979450Y-95779551D01*
X137009118Y-95776981D01*
X137015607Y-95776700D01*
X147934239Y-95776700D01*
X147982577Y-95794293D01*
X147987413Y-95798726D01*
X148721274Y-96532587D01*
X148743014Y-96579207D01*
X148743300Y-96585761D01*
X148743300Y-96685468D01*
X148725707Y-96733806D01*
X148681158Y-96759526D01*
X148630500Y-96750593D01*
X148608441Y-96731248D01*
X148585782Y-96701718D01*
X148533553Y-96661641D01*
X148464248Y-96608462D01*
X148460341Y-96605464D01*
X148314262Y-96544956D01*
X148309384Y-96544314D01*
X148309381Y-96544313D01*
X148162384Y-96524961D01*
X148157500Y-96524318D01*
X148152616Y-96524961D01*
X148005619Y-96544313D01*
X148005616Y-96544314D01*
X148000738Y-96544956D01*
X147854659Y-96605464D01*
X147850752Y-96608462D01*
X147781448Y-96661641D01*
X147729218Y-96701718D01*
X147632964Y-96827159D01*
X147631080Y-96831708D01*
X147580046Y-96954915D01*
X147572456Y-96973238D01*
X147563854Y-97038579D01*
X147559914Y-97068507D01*
X147538531Y-97111866D01*
X147063532Y-97586865D01*
X147056914Y-97592747D01*
X147027890Y-97615628D01*
X147024697Y-97620248D01*
X147024696Y-97620249D01*
X146994076Y-97664553D01*
X146992702Y-97666475D01*
X146987697Y-97673252D01*
X146957366Y-97714316D01*
X146955584Y-97719391D01*
X146955473Y-97719574D01*
X146955298Y-97719932D01*
X146954219Y-97722049D01*
X146954019Y-97722427D01*
X146953929Y-97722643D01*
X146950869Y-97727069D01*
X146949173Y-97732433D01*
X146932931Y-97783788D01*
X146932194Y-97785996D01*
X146912481Y-97842131D01*
X146912270Y-97847508D01*
X146912037Y-97848429D01*
X146911314Y-97852140D01*
X146910020Y-97856230D01*
X146909500Y-97862837D01*
X146909500Y-97916517D01*
X146909442Y-97919470D01*
X146907162Y-97977494D01*
X146908604Y-97982932D01*
X146909046Y-97986938D01*
X146909500Y-97995191D01*
X146909500Y-103734300D01*
X146891907Y-103782638D01*
X146847358Y-103808358D01*
X146834300Y-103809500D01*
X143537751Y-103809500D01*
X143489413Y-103791907D01*
X143484577Y-103787474D01*
X141930635Y-102233532D01*
X141924753Y-102226914D01*
X141908036Y-102205709D01*
X141901872Y-102197890D01*
X141852947Y-102164076D01*
X141851025Y-102162702D01*
X141807705Y-102130705D01*
X141807704Y-102130704D01*
X141803184Y-102127366D01*
X141798109Y-102125584D01*
X141797926Y-102125473D01*
X141797568Y-102125298D01*
X141795451Y-102124219D01*
X141795073Y-102124019D01*
X141794857Y-102123929D01*
X141790431Y-102120869D01*
X141733700Y-102102927D01*
X141731504Y-102102194D01*
X141675369Y-102082481D01*
X141669992Y-102082270D01*
X141669071Y-102082037D01*
X141665360Y-102081314D01*
X141661270Y-102080020D01*
X141656993Y-102079683D01*
X141656991Y-102079683D01*
X141656141Y-102079616D01*
X141656133Y-102079616D01*
X141654663Y-102079500D01*
X141600983Y-102079500D01*
X141598030Y-102079442D01*
X141597446Y-102079419D01*
X141540006Y-102077162D01*
X141534568Y-102078604D01*
X141530562Y-102079046D01*
X141522309Y-102079500D01*
X125901223Y-102079500D01*
X125892384Y-102078979D01*
X125891708Y-102078899D01*
X125855689Y-102074636D01*
X125850159Y-102075646D01*
X125850158Y-102075646D01*
X125836617Y-102078119D01*
X125797170Y-102085324D01*
X125794890Y-102085703D01*
X125777375Y-102088336D01*
X125741602Y-102093714D01*
X125741599Y-102093715D01*
X125736038Y-102094551D01*
X125731184Y-102096882D01*
X125730960Y-102096937D01*
X125730594Y-102097062D01*
X125728358Y-102097789D01*
X125727942Y-102097917D01*
X125727717Y-102098009D01*
X125722427Y-102098975D01*
X125672378Y-102124973D01*
X125669652Y-102126389D01*
X125667539Y-102127444D01*
X125618993Y-102150755D01*
X125618991Y-102150757D01*
X125613921Y-102153191D01*
X125609968Y-102156845D01*
X125609154Y-102157330D01*
X125606019Y-102159443D01*
X125602211Y-102161421D01*
X125597172Y-102165725D01*
X125559235Y-102203662D01*
X125557107Y-102205709D01*
X125514444Y-102245146D01*
X125511622Y-102250004D01*
X125509089Y-102253166D01*
X125503575Y-102259322D01*
X118525423Y-109237474D01*
X118478803Y-109259214D01*
X118472249Y-109259500D01*
X110085700Y-109259500D01*
X110037362Y-109241907D01*
X110011642Y-109197358D01*
X110010500Y-109184300D01*
X110010500Y-108840252D01*
X110001680Y-108795910D01*
X110000312Y-108789033D01*
X109998867Y-108781769D01*
X109954552Y-108715448D01*
X109888231Y-108671133D01*
X109880967Y-108669688D01*
X109833373Y-108660221D01*
X109833372Y-108660221D01*
X109829748Y-108659500D01*
X108090252Y-108659500D01*
X108086628Y-108660221D01*
X108086627Y-108660221D01*
X108039033Y-108669688D01*
X108031769Y-108671133D01*
X107965448Y-108715448D01*
X107921133Y-108781769D01*
X107919688Y-108789033D01*
X107918320Y-108795910D01*
X107909500Y-108840252D01*
X107909500Y-110579748D01*
X107910221Y-110583372D01*
X107910221Y-110583373D01*
X107918178Y-110623373D01*
X107921133Y-110638231D01*
X107965448Y-110704552D01*
X108031769Y-110748867D01*
X108039033Y-110750312D01*
X108068634Y-110756200D01*
X108090252Y-110760500D01*
X109829748Y-110760500D01*
X109851366Y-110756200D01*
X109880967Y-110750312D01*
X109888231Y-110748867D01*
X109954552Y-110704552D01*
X109998867Y-110638231D01*
X110001823Y-110623373D01*
X110009779Y-110583373D01*
X110009779Y-110583372D01*
X110010500Y-110579748D01*
X110010500Y-110235700D01*
X110028093Y-110187362D01*
X110072642Y-110161642D01*
X110085700Y-110160500D01*
X118658776Y-110160500D01*
X118667615Y-110161021D01*
X118704310Y-110165364D01*
X118709840Y-110164354D01*
X118709842Y-110164354D01*
X118733652Y-110160005D01*
X118762816Y-110154679D01*
X118765097Y-110154299D01*
X118823962Y-110145449D01*
X118828816Y-110143118D01*
X118829040Y-110143063D01*
X118829406Y-110142938D01*
X118831642Y-110142211D01*
X118832058Y-110142083D01*
X118832283Y-110141991D01*
X118837573Y-110141025D01*
X118842559Y-110138435D01*
X118842562Y-110138434D01*
X118890342Y-110113614D01*
X118892455Y-110112559D01*
X118941013Y-110089242D01*
X118941015Y-110089241D01*
X118946079Y-110086809D01*
X118950030Y-110083157D01*
X118950837Y-110082675D01*
X118953982Y-110080556D01*
X118957788Y-110078579D01*
X118962828Y-110074275D01*
X119000765Y-110036338D01*
X119002893Y-110034291D01*
X119041431Y-109998667D01*
X119045556Y-109994854D01*
X119048378Y-109989996D01*
X119050911Y-109986834D01*
X119056425Y-109980678D01*
X126034577Y-103002526D01*
X126081197Y-102980786D01*
X126087751Y-102980500D01*
X135162644Y-102980500D01*
X135210982Y-102998093D01*
X135236702Y-103042642D01*
X135227769Y-103093300D01*
X135208423Y-103115360D01*
X135199908Y-103121894D01*
X135131718Y-103174218D01*
X135128720Y-103178125D01*
X135094604Y-103222586D01*
X135035464Y-103299659D01*
X134974956Y-103445738D01*
X134974314Y-103450616D01*
X134974313Y-103450619D01*
X134960875Y-103552693D01*
X134954318Y-103602500D01*
X134954961Y-103607384D01*
X134971670Y-103734300D01*
X134974956Y-103759262D01*
X135035464Y-103905341D01*
X135131718Y-104030782D01*
X135135625Y-104033780D01*
X135253879Y-104124519D01*
X135281517Y-104167903D01*
X135283300Y-104184179D01*
X135283300Y-107764239D01*
X135265707Y-107812577D01*
X135261274Y-107817413D01*
X134797413Y-108281274D01*
X134750793Y-108303014D01*
X134744239Y-108303300D01*
X125091679Y-108303300D01*
X125043341Y-108285707D01*
X125032019Y-108273879D01*
X124941280Y-108155625D01*
X124938282Y-108151718D01*
X124812841Y-108055464D01*
X124666762Y-107994956D01*
X124661884Y-107994314D01*
X124661881Y-107994313D01*
X124514884Y-107974961D01*
X124510000Y-107974318D01*
X124505116Y-107974961D01*
X124358119Y-107994313D01*
X124358116Y-107994314D01*
X124353238Y-107994956D01*
X124207159Y-108055464D01*
X124081718Y-108151718D01*
X123985464Y-108277159D01*
X123924956Y-108423238D01*
X123904318Y-108580000D01*
X123904961Y-108584884D01*
X123923089Y-108722577D01*
X123924956Y-108736762D01*
X123985464Y-108882841D01*
X124081718Y-109008282D01*
X124085431Y-109011131D01*
X124107132Y-109057667D01*
X124093818Y-109107354D01*
X124077999Y-109123879D01*
X124041718Y-109151718D01*
X123945464Y-109277159D01*
X123884956Y-109423238D01*
X123864318Y-109580000D01*
X123864961Y-109584884D01*
X123884079Y-109730098D01*
X123884956Y-109736762D01*
X123945464Y-109882841D01*
X123948462Y-109886748D01*
X124016894Y-109975931D01*
X124032362Y-110024990D01*
X124012677Y-110072515D01*
X124003013Y-110081370D01*
X123928646Y-110138434D01*
X123921447Y-110143958D01*
X123825193Y-110269399D01*
X123764685Y-110415478D01*
X123744047Y-110572240D01*
X123744690Y-110577124D01*
X123762008Y-110708666D01*
X123764685Y-110729002D01*
X123825193Y-110875081D01*
X123921447Y-111000522D01*
X124046888Y-111096776D01*
X124192967Y-111157284D01*
X124197845Y-111157926D01*
X124197848Y-111157927D01*
X124344845Y-111177279D01*
X124349729Y-111177922D01*
X124354613Y-111177279D01*
X124501610Y-111157927D01*
X124501613Y-111157926D01*
X124506491Y-111157284D01*
X124652570Y-111096776D01*
X124778011Y-111000522D01*
X124871748Y-110878361D01*
X124915132Y-110850723D01*
X124931408Y-110848940D01*
X137886479Y-110848940D01*
X137934817Y-110866533D01*
X137939653Y-110870966D01*
X140651274Y-113582587D01*
X140673014Y-113629207D01*
X140673300Y-113635761D01*
X140673300Y-114569988D01*
X140655707Y-114618326D01*
X140624129Y-114640540D01*
X140430957Y-114711804D01*
X140241341Y-114824614D01*
X140075457Y-114970090D01*
X140073323Y-114972796D01*
X140073321Y-114972799D01*
X140057186Y-114993267D01*
X139938863Y-115143360D01*
X139937260Y-115146408D01*
X139937258Y-115146410D01*
X139861427Y-115290541D01*
X139836131Y-115338620D01*
X139835111Y-115341905D01*
X139796806Y-115465269D01*
X139770703Y-115549333D01*
X139744770Y-115768440D01*
X139744995Y-115771874D01*
X139744995Y-115771877D01*
X139746984Y-115802217D01*
X139759200Y-115988604D01*
X139813511Y-116202452D01*
X139905883Y-116402821D01*
X139907879Y-116405645D01*
X140031232Y-116580187D01*
X140031235Y-116580191D01*
X140033222Y-116583002D01*
X140191264Y-116736961D01*
X140374717Y-116859540D01*
X140377879Y-116860899D01*
X140377880Y-116860899D01*
X140574270Y-116945275D01*
X140574272Y-116945276D01*
X140577436Y-116946635D01*
X140792632Y-116995329D01*
X140919785Y-117000325D01*
X141009654Y-117003856D01*
X141009657Y-117003856D01*
X141013098Y-117003991D01*
X141016503Y-117003497D01*
X141016508Y-117003497D01*
X141172130Y-116980932D01*
X141231452Y-116972331D01*
X141301167Y-116948666D01*
X141437116Y-116902518D01*
X141437119Y-116902516D01*
X141440379Y-116901410D01*
X141632884Y-116793602D01*
X141802518Y-116652518D01*
X141943602Y-116482884D01*
X142051410Y-116290379D01*
X142080194Y-116205586D01*
X142121221Y-116084722D01*
X142122331Y-116081452D01*
X142153991Y-115863098D01*
X142155643Y-115800000D01*
X142135454Y-115580289D01*
X142075565Y-115367936D01*
X142059606Y-115335573D01*
X141979505Y-115173146D01*
X141977980Y-115170053D01*
X141845967Y-114993267D01*
X141683949Y-114843499D01*
X141681038Y-114841662D01*
X141500261Y-114727600D01*
X141500255Y-114727597D01*
X141497350Y-114725764D01*
X141292421Y-114644006D01*
X141289043Y-114643334D01*
X141289036Y-114643332D01*
X141287226Y-114642972D01*
X141286660Y-114642628D01*
X141285737Y-114642355D01*
X141285809Y-114642112D01*
X141243251Y-114616285D01*
X141226700Y-114569218D01*
X141226700Y-113539950D01*
X141227042Y-113535289D01*
X141228473Y-113531121D01*
X141226753Y-113485305D01*
X141226700Y-113482484D01*
X141226700Y-113464264D01*
X141226065Y-113460853D01*
X141225865Y-113458690D01*
X141225600Y-113454597D01*
X141225249Y-113445248D01*
X141224606Y-113428115D01*
X141221865Y-113421735D01*
X141219722Y-113416746D01*
X141214886Y-113400831D01*
X141213890Y-113395485D01*
X141212620Y-113388663D01*
X141199137Y-113366789D01*
X141194060Y-113357015D01*
X141194000Y-113356874D01*
X141183917Y-113333407D01*
X141180222Y-113328909D01*
X141174884Y-113323571D01*
X141164043Y-113309857D01*
X141162175Y-113306826D01*
X141162174Y-113306825D01*
X141158531Y-113300915D01*
X141136276Y-113283992D01*
X141128620Y-113277307D01*
X139503497Y-111652184D01*
X148987600Y-111652184D01*
X148987648Y-111654068D01*
X148987773Y-111656538D01*
X148988467Y-111662071D01*
X149027011Y-111853226D01*
X149029154Y-111860236D01*
X149103755Y-112039453D01*
X149107213Y-112045903D01*
X149215202Y-112207214D01*
X149219859Y-112212884D01*
X149357116Y-112350141D01*
X149362786Y-112354798D01*
X149524097Y-112462787D01*
X149530547Y-112466245D01*
X149709764Y-112540846D01*
X149716774Y-112542989D01*
X149907929Y-112581533D01*
X149913462Y-112582227D01*
X149915932Y-112582352D01*
X149917816Y-112582400D01*
X150800541Y-112582400D01*
X150810698Y-112578703D01*
X150813800Y-112573331D01*
X150813800Y-112569141D01*
X150966200Y-112569141D01*
X150969897Y-112579298D01*
X150975269Y-112582400D01*
X151862184Y-112582400D01*
X151864068Y-112582352D01*
X151866538Y-112582227D01*
X151872071Y-112581533D01*
X152063226Y-112542989D01*
X152070236Y-112540846D01*
X152249453Y-112466245D01*
X152255903Y-112462787D01*
X152417214Y-112354798D01*
X152422884Y-112350141D01*
X152560141Y-112212884D01*
X152564798Y-112207214D01*
X152672787Y-112045903D01*
X152676245Y-112039453D01*
X152750846Y-111860236D01*
X152752989Y-111853226D01*
X152791533Y-111662071D01*
X152792227Y-111656538D01*
X152792352Y-111654068D01*
X152792400Y-111652184D01*
X152792400Y-110769459D01*
X152788703Y-110759302D01*
X152783331Y-110756200D01*
X150979459Y-110756200D01*
X150969302Y-110759897D01*
X150966200Y-110765269D01*
X150966200Y-112569141D01*
X150813800Y-112569141D01*
X150813800Y-110769459D01*
X150810103Y-110759302D01*
X150804731Y-110756200D01*
X149000859Y-110756200D01*
X148990702Y-110759897D01*
X148987600Y-110765269D01*
X148987600Y-111652184D01*
X139503497Y-111652184D01*
X138441854Y-110590541D01*
X148987600Y-110590541D01*
X148991297Y-110600698D01*
X148996669Y-110603800D01*
X150800541Y-110603800D01*
X150810698Y-110600103D01*
X150813800Y-110594731D01*
X150813800Y-110590541D01*
X150966200Y-110590541D01*
X150969897Y-110600698D01*
X150975269Y-110603800D01*
X152779141Y-110603800D01*
X152789298Y-110600103D01*
X152792400Y-110594731D01*
X152792400Y-109707816D01*
X152792352Y-109705932D01*
X152792227Y-109703462D01*
X152791533Y-109697929D01*
X152752989Y-109506774D01*
X152750846Y-109499764D01*
X152676245Y-109320547D01*
X152672787Y-109314097D01*
X152564798Y-109152786D01*
X152560141Y-109147116D01*
X152422884Y-109009859D01*
X152417214Y-109005202D01*
X152255903Y-108897213D01*
X152249453Y-108893755D01*
X152070236Y-108819154D01*
X152063226Y-108817011D01*
X151872071Y-108778467D01*
X151866538Y-108777773D01*
X151864068Y-108777648D01*
X151862184Y-108777600D01*
X150979459Y-108777600D01*
X150969302Y-108781297D01*
X150966200Y-108786669D01*
X150966200Y-110590541D01*
X150813800Y-110590541D01*
X150813800Y-108790859D01*
X150810103Y-108780702D01*
X150804731Y-108777600D01*
X149917816Y-108777600D01*
X149915932Y-108777648D01*
X149913462Y-108777773D01*
X149907929Y-108778467D01*
X149716774Y-108817011D01*
X149709764Y-108819154D01*
X149530547Y-108893755D01*
X149524097Y-108897213D01*
X149362786Y-109005202D01*
X149357116Y-109009859D01*
X149219859Y-109147116D01*
X149215202Y-109152786D01*
X149107213Y-109314097D01*
X149103755Y-109320547D01*
X149029154Y-109499764D01*
X149027011Y-109506774D01*
X148988467Y-109697929D01*
X148987773Y-109703462D01*
X148987648Y-109705932D01*
X148987600Y-109707816D01*
X148987600Y-110590541D01*
X138441854Y-110590541D01*
X138263216Y-110411903D01*
X138260161Y-110408364D01*
X138258227Y-110404407D01*
X138224607Y-110373220D01*
X138222576Y-110371263D01*
X138209698Y-110358385D01*
X138206840Y-110356424D01*
X138205162Y-110355030D01*
X138202083Y-110352326D01*
X138187747Y-110339027D01*
X138187745Y-110339026D01*
X138182656Y-110334305D01*
X138171159Y-110329719D01*
X138156488Y-110321884D01*
X138146284Y-110314884D01*
X138121283Y-110308951D01*
X138110784Y-110305630D01*
X138104682Y-110303196D01*
X138086916Y-110296108D01*
X138081123Y-110295540D01*
X138073573Y-110295540D01*
X138056210Y-110293508D01*
X138052745Y-110292686D01*
X138045990Y-110291083D01*
X138039112Y-110292019D01*
X138039111Y-110292019D01*
X138018288Y-110294853D01*
X138008147Y-110295540D01*
X124931408Y-110295540D01*
X124883070Y-110277947D01*
X124871748Y-110266119D01*
X124802835Y-110176309D01*
X124787367Y-110127249D01*
X124807052Y-110079725D01*
X124816716Y-110070870D01*
X124894375Y-110011280D01*
X124898282Y-110008282D01*
X124992019Y-109886121D01*
X125035403Y-109858483D01*
X125051679Y-109856700D01*
X136770050Y-109856700D01*
X136774711Y-109857042D01*
X136778879Y-109858473D01*
X136824695Y-109856753D01*
X136827516Y-109856700D01*
X136845736Y-109856700D01*
X136849147Y-109856065D01*
X136851310Y-109855865D01*
X136855398Y-109855600D01*
X136881885Y-109854606D01*
X136888265Y-109851865D01*
X136893254Y-109849722D01*
X136909169Y-109844886D01*
X136921337Y-109842620D01*
X136943211Y-109829137D01*
X136952985Y-109824060D01*
X136953126Y-109824000D01*
X136976593Y-109813917D01*
X136981091Y-109810222D01*
X136986429Y-109804884D01*
X137000143Y-109794043D01*
X137003174Y-109792175D01*
X137003175Y-109792174D01*
X137009085Y-109788531D01*
X137026008Y-109766276D01*
X137032693Y-109758620D01*
X137740337Y-109050976D01*
X137743876Y-109047921D01*
X137747833Y-109045987D01*
X137779020Y-109012367D01*
X137780977Y-109010336D01*
X137793854Y-108997459D01*
X137795815Y-108994601D01*
X137797209Y-108992923D01*
X137799913Y-108989844D01*
X137813214Y-108975505D01*
X137817935Y-108970416D01*
X137822520Y-108958923D01*
X137830355Y-108944251D01*
X137833429Y-108939770D01*
X137833429Y-108939769D01*
X137837356Y-108934045D01*
X137843289Y-108909043D01*
X137846611Y-108898541D01*
X137854164Y-108879609D01*
X137854164Y-108879608D01*
X137856132Y-108874676D01*
X137856700Y-108868883D01*
X137856700Y-108861334D01*
X137858732Y-108843971D01*
X137859554Y-108840506D01*
X137861157Y-108833751D01*
X137857387Y-108806051D01*
X137856700Y-108795910D01*
X137856700Y-104204179D01*
X137874293Y-104155841D01*
X137886121Y-104144519D01*
X137892011Y-104140000D01*
X138008282Y-104050782D01*
X138023629Y-104030782D01*
X138101538Y-103929248D01*
X138104536Y-103925341D01*
X138165044Y-103779262D01*
X138167079Y-103763810D01*
X138185039Y-103627384D01*
X138185682Y-103622500D01*
X138176492Y-103552693D01*
X138165687Y-103470619D01*
X138165686Y-103470616D01*
X138165044Y-103465738D01*
X138104536Y-103319659D01*
X138030695Y-103223427D01*
X138011280Y-103198125D01*
X138008282Y-103194218D01*
X137905512Y-103115360D01*
X137877874Y-103071976D01*
X137884588Y-103020977D01*
X137922513Y-102986224D01*
X137951291Y-102980500D01*
X141372249Y-102980500D01*
X141420587Y-102998093D01*
X141425423Y-103002526D01*
X142979365Y-104556468D01*
X142985247Y-104563086D01*
X143008128Y-104592110D01*
X143012748Y-104595303D01*
X143012749Y-104595304D01*
X143057053Y-104625924D01*
X143058975Y-104627298D01*
X143106816Y-104662634D01*
X143111891Y-104664416D01*
X143112074Y-104664527D01*
X143112432Y-104664702D01*
X143114549Y-104665781D01*
X143114927Y-104665981D01*
X143115143Y-104666071D01*
X143119569Y-104669131D01*
X143176300Y-104687073D01*
X143178496Y-104687806D01*
X143234631Y-104707519D01*
X143240008Y-104707730D01*
X143240929Y-104707963D01*
X143244640Y-104708686D01*
X143248730Y-104709980D01*
X143253007Y-104710317D01*
X143253009Y-104710317D01*
X143253859Y-104710384D01*
X143253867Y-104710384D01*
X143255337Y-104710500D01*
X143309017Y-104710500D01*
X143311970Y-104710558D01*
X143369994Y-104712838D01*
X143375429Y-104711397D01*
X143379441Y-104710954D01*
X143387693Y-104710500D01*
X146834300Y-104710500D01*
X146882638Y-104728093D01*
X146908358Y-104772642D01*
X146909500Y-104785700D01*
X146909500Y-106915146D01*
X146893960Y-106960925D01*
X146835464Y-107037159D01*
X146774956Y-107183238D01*
X146754318Y-107340000D01*
X146774956Y-107496762D01*
X146835464Y-107642841D01*
X146931718Y-107768282D01*
X147057159Y-107864536D01*
X147203238Y-107925044D01*
X147208116Y-107925686D01*
X147208119Y-107925687D01*
X147355116Y-107945039D01*
X147360000Y-107945682D01*
X147364884Y-107945039D01*
X147511881Y-107925687D01*
X147511884Y-107925686D01*
X147516762Y-107925044D01*
X147662841Y-107864536D01*
X147788282Y-107768282D01*
X147884536Y-107642841D01*
X147945044Y-107496762D01*
X147965682Y-107340000D01*
X147945044Y-107183238D01*
X147884536Y-107037159D01*
X147826040Y-106960925D01*
X147810500Y-106915146D01*
X147810500Y-104320245D01*
X147812442Y-104303265D01*
X147812916Y-104301219D01*
X147814185Y-104295745D01*
X147810688Y-104246357D01*
X147810500Y-104241046D01*
X147810500Y-98145251D01*
X147828093Y-98096913D01*
X147832526Y-98092077D01*
X148175634Y-97748969D01*
X148218992Y-97727586D01*
X148314262Y-97715044D01*
X148318814Y-97713159D01*
X148318816Y-97713158D01*
X148405724Y-97677159D01*
X148460341Y-97654536D01*
X148585782Y-97558282D01*
X148608440Y-97528753D01*
X148651823Y-97501115D01*
X148702823Y-97507828D01*
X148737575Y-97545754D01*
X148743300Y-97574532D01*
X148743300Y-103290050D01*
X148742958Y-103294711D01*
X148741527Y-103298879D01*
X148742307Y-103319659D01*
X148743247Y-103344695D01*
X148743300Y-103347516D01*
X148743300Y-103365736D01*
X148743935Y-103369147D01*
X148744135Y-103371310D01*
X148744400Y-103375398D01*
X148745394Y-103401885D01*
X148748135Y-103408265D01*
X148750278Y-103413254D01*
X148755114Y-103429168D01*
X148757380Y-103441337D01*
X148769617Y-103461190D01*
X148770863Y-103463211D01*
X148775940Y-103472985D01*
X148786083Y-103496593D01*
X148789778Y-103501091D01*
X148795116Y-103506429D01*
X148805957Y-103520143D01*
X148811469Y-103529085D01*
X148833724Y-103546008D01*
X148841380Y-103552693D01*
X149589024Y-104300337D01*
X149592079Y-104303876D01*
X149594013Y-104307833D01*
X149599100Y-104312552D01*
X149599101Y-104312553D01*
X149627632Y-104339019D01*
X149629664Y-104340977D01*
X149642542Y-104353855D01*
X149645400Y-104355816D01*
X149647078Y-104357210D01*
X149650157Y-104359914D01*
X149664493Y-104373213D01*
X149664495Y-104373214D01*
X149669584Y-104377935D01*
X149681078Y-104382520D01*
X149695750Y-104390355D01*
X149705956Y-104397357D01*
X149712712Y-104398960D01*
X149730955Y-104403289D01*
X149741458Y-104406611D01*
X149760391Y-104414165D01*
X149760399Y-104414167D01*
X149765324Y-104416132D01*
X149771117Y-104416700D01*
X149778668Y-104416700D01*
X149796031Y-104418732D01*
X149806250Y-104421157D01*
X149813128Y-104420221D01*
X149813129Y-104420221D01*
X149833952Y-104417387D01*
X149844093Y-104416700D01*
X150538321Y-104416700D01*
X150586659Y-104434293D01*
X150597980Y-104446120D01*
X150691718Y-104568282D01*
X150817159Y-104664536D01*
X150963238Y-104725044D01*
X150968116Y-104725686D01*
X150968119Y-104725687D01*
X151115116Y-104745039D01*
X151120000Y-104745682D01*
X151124884Y-104745039D01*
X151271881Y-104725687D01*
X151271884Y-104725686D01*
X151276762Y-104725044D01*
X151422841Y-104664536D01*
X151548282Y-104568282D01*
X151644536Y-104442841D01*
X151705044Y-104296762D01*
X151712030Y-104243702D01*
X151725039Y-104144884D01*
X151725682Y-104140000D01*
X151714331Y-104053780D01*
X151705687Y-103988119D01*
X151705686Y-103988116D01*
X151705044Y-103983238D01*
X151644536Y-103837159D01*
X151548282Y-103711718D01*
X151422841Y-103615464D01*
X151276762Y-103554956D01*
X151271884Y-103554314D01*
X151271881Y-103554313D01*
X151124884Y-103534961D01*
X151120000Y-103534318D01*
X151115116Y-103534961D01*
X150968119Y-103554313D01*
X150968116Y-103554314D01*
X150963238Y-103554956D01*
X150817159Y-103615464D01*
X150691718Y-103711718D01*
X150616688Y-103809500D01*
X150597981Y-103833879D01*
X150554597Y-103861517D01*
X150538321Y-103863300D01*
X149965761Y-103863300D01*
X149917423Y-103845707D01*
X149912587Y-103841274D01*
X149318726Y-103247413D01*
X149296986Y-103200793D01*
X149296700Y-103194239D01*
X149296700Y-101195351D01*
X149314293Y-101147013D01*
X149358842Y-101121293D01*
X149409500Y-101130226D01*
X149425074Y-101142177D01*
X150019365Y-101736468D01*
X150025247Y-101743086D01*
X150048128Y-101772110D01*
X150052748Y-101775303D01*
X150052749Y-101775304D01*
X150097053Y-101805924D01*
X150098975Y-101807298D01*
X150146816Y-101842634D01*
X150151891Y-101844416D01*
X150152074Y-101844527D01*
X150152432Y-101844702D01*
X150154549Y-101845781D01*
X150154927Y-101845981D01*
X150155143Y-101846071D01*
X150159569Y-101849131D01*
X150216300Y-101867073D01*
X150218496Y-101867806D01*
X150274631Y-101887519D01*
X150280008Y-101887730D01*
X150280929Y-101887963D01*
X150284640Y-101888686D01*
X150288730Y-101889980D01*
X150293007Y-101890317D01*
X150293009Y-101890317D01*
X150293859Y-101890384D01*
X150293867Y-101890384D01*
X150295337Y-101890500D01*
X150349017Y-101890500D01*
X150351970Y-101890558D01*
X150409994Y-101892838D01*
X150415429Y-101891397D01*
X150419441Y-101890954D01*
X150427693Y-101890500D01*
X152615146Y-101890500D01*
X152660925Y-101906040D01*
X152737159Y-101964536D01*
X152883238Y-102025044D01*
X152888116Y-102025686D01*
X152888119Y-102025687D01*
X153035116Y-102045039D01*
X153040000Y-102045682D01*
X153044884Y-102045039D01*
X153191881Y-102025687D01*
X153191884Y-102025686D01*
X153196762Y-102025044D01*
X153342841Y-101964536D01*
X153439565Y-101890317D01*
X153464375Y-101871280D01*
X153468282Y-101868282D01*
X153564536Y-101742841D01*
X153625044Y-101596762D01*
X153625710Y-101591708D01*
X153645039Y-101444884D01*
X153645682Y-101440000D01*
X153625044Y-101283238D01*
X153564536Y-101137159D01*
X153506728Y-101061822D01*
X153471280Y-101015625D01*
X153468282Y-101011718D01*
X153342841Y-100915464D01*
X153196762Y-100854956D01*
X153191884Y-100854314D01*
X153191881Y-100854313D01*
X153044884Y-100834961D01*
X153040000Y-100834318D01*
X153035116Y-100834961D01*
X152888119Y-100854313D01*
X152888116Y-100854314D01*
X152883238Y-100854956D01*
X152737159Y-100915464D01*
X152733252Y-100918462D01*
X152660925Y-100973960D01*
X152615146Y-100989500D01*
X150577751Y-100989500D01*
X150529413Y-100971907D01*
X150524577Y-100967474D01*
X150142526Y-100585423D01*
X150120786Y-100538803D01*
X150120500Y-100532249D01*
X150120500Y-77901224D01*
X150121021Y-77892385D01*
X150124703Y-77861273D01*
X150125364Y-77855690D01*
X150114683Y-77797202D01*
X150114295Y-77794874D01*
X150106285Y-77741596D01*
X150106284Y-77741594D01*
X150105449Y-77736038D01*
X150103120Y-77731187D01*
X150103066Y-77730968D01*
X150102944Y-77730611D01*
X150102206Y-77728340D01*
X150102082Y-77727938D01*
X150101993Y-77727720D01*
X150101026Y-77722427D01*
X150098434Y-77717437D01*
X150073615Y-77669656D01*
X150072560Y-77667545D01*
X150049243Y-77618989D01*
X150049242Y-77618987D01*
X150046809Y-77613921D01*
X150043158Y-77609972D01*
X150042667Y-77609149D01*
X150040555Y-77606015D01*
X150038580Y-77602212D01*
X150034275Y-77597172D01*
X149996338Y-77559235D01*
X149994291Y-77557107D01*
X149970445Y-77531310D01*
X149954854Y-77514444D01*
X149949996Y-77511622D01*
X149946834Y-77509089D01*
X149940678Y-77503575D01*
X149788969Y-77351866D01*
X149767586Y-77308507D01*
X149759325Y-77245756D01*
X149755044Y-77213238D01*
X149748351Y-77197078D01*
X149696420Y-77071708D01*
X149694536Y-77067159D01*
X149598282Y-76941718D01*
X149472841Y-76845464D01*
X149326762Y-76784956D01*
X149321884Y-76784314D01*
X149321881Y-76784313D01*
X149174884Y-76764961D01*
X149170000Y-76764318D01*
X149165116Y-76764961D01*
X149018119Y-76784313D01*
X149018116Y-76784314D01*
X149013238Y-76784956D01*
X148867159Y-76845464D01*
X148741718Y-76941718D01*
X148645464Y-77067159D01*
X148584956Y-77213238D01*
X148584314Y-77218116D01*
X148584313Y-77218119D01*
X148566705Y-77351866D01*
X148564318Y-77370000D01*
X148564961Y-77374884D01*
X148583508Y-77515761D01*
X148584956Y-77526762D01*
X148645464Y-77672841D01*
X148741718Y-77798282D01*
X148867159Y-77894536D01*
X148931975Y-77921384D01*
X149008684Y-77953158D01*
X149008686Y-77953159D01*
X149013238Y-77955044D01*
X149108508Y-77967586D01*
X149151866Y-77988969D01*
X149197474Y-78034577D01*
X149219214Y-78081197D01*
X149219500Y-78087751D01*
X149219500Y-96066639D01*
X149201907Y-96114977D01*
X149157358Y-96140697D01*
X149106700Y-96131764D01*
X149091126Y-96119813D01*
X148310976Y-95339663D01*
X148307921Y-95336124D01*
X148305987Y-95332167D01*
X148272367Y-95300980D01*
X148270336Y-95299023D01*
X148257458Y-95286145D01*
X148254600Y-95284184D01*
X148252922Y-95282790D01*
X148249843Y-95280086D01*
X148235507Y-95266787D01*
X148235505Y-95266786D01*
X148230416Y-95262065D01*
X148218919Y-95257479D01*
X148204248Y-95249644D01*
X148194044Y-95242644D01*
X148169043Y-95236711D01*
X148158544Y-95233390D01*
X148152442Y-95230956D01*
X148134676Y-95223868D01*
X148128883Y-95223300D01*
X148121333Y-95223300D01*
X148103970Y-95221268D01*
X148100505Y-95220446D01*
X148093750Y-95218843D01*
X148086872Y-95219779D01*
X148086871Y-95219779D01*
X148066048Y-95222613D01*
X148055907Y-95223300D01*
X137351900Y-95223300D01*
X137303562Y-95205707D01*
X137277842Y-95161158D01*
X137276700Y-95148100D01*
X137276700Y-92290000D01*
X142734318Y-92290000D01*
X142734961Y-92294884D01*
X142749761Y-92407300D01*
X142754956Y-92446762D01*
X142815464Y-92592841D01*
X142818462Y-92596748D01*
X142907855Y-92713247D01*
X142911718Y-92718282D01*
X142915625Y-92721280D01*
X142944926Y-92743763D01*
X143037159Y-92814536D01*
X143183238Y-92875044D01*
X143188116Y-92875686D01*
X143188119Y-92875687D01*
X143335116Y-92895039D01*
X143340000Y-92895682D01*
X143344884Y-92895039D01*
X143491881Y-92875687D01*
X143491884Y-92875686D01*
X143496762Y-92875044D01*
X143642841Y-92814536D01*
X143735074Y-92743763D01*
X143764375Y-92721280D01*
X143768282Y-92718282D01*
X143772105Y-92713300D01*
X143805391Y-92669921D01*
X143848775Y-92642282D01*
X143865051Y-92640500D01*
X146444582Y-92640500D01*
X146460410Y-92642185D01*
X146467180Y-92643643D01*
X146467187Y-92643643D01*
X146473261Y-92644951D01*
X146506465Y-92641021D01*
X146515304Y-92640500D01*
X146519115Y-92640500D01*
X146522176Y-92639991D01*
X146522183Y-92639990D01*
X146537670Y-92637412D01*
X146541166Y-92636914D01*
X146589138Y-92631236D01*
X146594737Y-92628548D01*
X146595589Y-92628300D01*
X146596447Y-92628104D01*
X146597320Y-92627828D01*
X146598132Y-92627496D01*
X146598971Y-92627209D01*
X146605103Y-92626188D01*
X146647635Y-92603239D01*
X146650748Y-92601652D01*
X146694326Y-92580726D01*
X146698274Y-92577408D01*
X146699276Y-92576406D01*
X146702666Y-92573545D01*
X146707794Y-92570778D01*
X146742143Y-92533620D01*
X146744190Y-92531492D01*
X147915723Y-91359959D01*
X147928105Y-91349958D01*
X147933931Y-91346196D01*
X147939152Y-91342825D01*
X147959857Y-91316561D01*
X147965739Y-91309943D01*
X147968429Y-91307253D01*
X147979363Y-91291952D01*
X147981491Y-91289118D01*
X148007544Y-91256070D01*
X148011392Y-91251189D01*
X148013453Y-91245322D01*
X148013877Y-91244550D01*
X148014355Y-91243790D01*
X148014763Y-91243004D01*
X148015106Y-91242186D01*
X148015497Y-91241387D01*
X148019111Y-91236330D01*
X148032955Y-91190038D01*
X148034042Y-91186693D01*
X148050055Y-91141094D01*
X148050500Y-91135956D01*
X148050500Y-91134543D01*
X148050875Y-91130118D01*
X148052544Y-91124536D01*
X148050558Y-91073988D01*
X148050500Y-91071036D01*
X148050500Y-83795051D01*
X148068093Y-83746713D01*
X148079921Y-83735391D01*
X148124375Y-83701280D01*
X148128282Y-83698282D01*
X148224536Y-83572841D01*
X148285044Y-83426762D01*
X148289458Y-83393238D01*
X148305039Y-83274884D01*
X148305682Y-83270000D01*
X148286674Y-83125619D01*
X148285687Y-83118119D01*
X148285686Y-83118116D01*
X148285044Y-83113238D01*
X148224536Y-82967159D01*
X148134037Y-82849218D01*
X148131280Y-82845625D01*
X148128282Y-82841718D01*
X148106546Y-82825039D01*
X148006748Y-82748462D01*
X148002841Y-82745464D01*
X147856762Y-82684956D01*
X147851884Y-82684314D01*
X147851881Y-82684313D01*
X147704884Y-82664961D01*
X147700000Y-82664318D01*
X147695116Y-82664961D01*
X147548119Y-82684313D01*
X147548116Y-82684314D01*
X147543238Y-82684956D01*
X147397159Y-82745464D01*
X147393252Y-82748462D01*
X147293455Y-82825039D01*
X147271718Y-82841718D01*
X147268720Y-82845625D01*
X147265963Y-82849218D01*
X147175464Y-82967159D01*
X147114956Y-83113238D01*
X147114314Y-83118116D01*
X147114313Y-83118119D01*
X147113326Y-83125619D01*
X147094318Y-83270000D01*
X147094961Y-83274884D01*
X147110543Y-83393238D01*
X147114956Y-83426762D01*
X147175464Y-83572841D01*
X147271718Y-83698282D01*
X147275625Y-83701280D01*
X147320079Y-83735391D01*
X147347718Y-83778775D01*
X147349500Y-83795051D01*
X147349500Y-90903670D01*
X147331907Y-90952008D01*
X147327474Y-90956844D01*
X146366844Y-91917474D01*
X146320224Y-91939214D01*
X146313670Y-91939500D01*
X143865051Y-91939500D01*
X143816713Y-91921907D01*
X143805391Y-91910079D01*
X143771280Y-91865625D01*
X143768282Y-91861718D01*
X143642841Y-91765464D01*
X143496762Y-91704956D01*
X143491884Y-91704314D01*
X143491881Y-91704313D01*
X143344884Y-91684961D01*
X143340000Y-91684318D01*
X143335116Y-91684961D01*
X143188119Y-91704313D01*
X143188116Y-91704314D01*
X143183238Y-91704956D01*
X143037159Y-91765464D01*
X142911718Y-91861718D01*
X142815464Y-91987159D01*
X142754956Y-92133238D01*
X142754314Y-92138116D01*
X142754313Y-92138119D01*
X142735541Y-92280710D01*
X142734318Y-92290000D01*
X137276700Y-92290000D01*
X137276700Y-89955761D01*
X137294293Y-89907423D01*
X137298726Y-89902587D01*
X138202587Y-88998726D01*
X138249207Y-88976986D01*
X138255761Y-88976700D01*
X140400050Y-88976700D01*
X140404711Y-88977042D01*
X140408879Y-88978473D01*
X140454695Y-88976753D01*
X140457516Y-88976700D01*
X140475736Y-88976700D01*
X140479147Y-88976065D01*
X140481310Y-88975865D01*
X140485398Y-88975600D01*
X140511885Y-88974606D01*
X140518265Y-88971865D01*
X140523254Y-88969722D01*
X140539169Y-88964886D01*
X140551337Y-88962620D01*
X140573211Y-88949137D01*
X140582985Y-88944060D01*
X140583604Y-88943794D01*
X140606593Y-88933917D01*
X140611091Y-88930222D01*
X140616429Y-88924884D01*
X140630143Y-88914043D01*
X140633174Y-88912175D01*
X140633175Y-88912174D01*
X140639085Y-88908531D01*
X140656008Y-88886276D01*
X140662693Y-88878620D01*
X140950337Y-88590976D01*
X140953876Y-88587921D01*
X140957833Y-88585987D01*
X140989020Y-88552367D01*
X140990977Y-88550336D01*
X141003855Y-88537458D01*
X141005816Y-88534600D01*
X141007210Y-88532922D01*
X141009914Y-88529843D01*
X141023213Y-88515507D01*
X141023214Y-88515505D01*
X141027935Y-88510416D01*
X141032520Y-88498922D01*
X141040355Y-88484251D01*
X141043429Y-88479770D01*
X141047357Y-88474044D01*
X141052539Y-88452204D01*
X141053289Y-88449045D01*
X141056611Y-88438542D01*
X141064165Y-88419609D01*
X141064167Y-88419601D01*
X141066132Y-88414676D01*
X141066700Y-88408883D01*
X141066700Y-88401332D01*
X141068732Y-88383969D01*
X141069554Y-88380504D01*
X141071157Y-88373750D01*
X141067387Y-88346048D01*
X141066700Y-88335907D01*
X141066700Y-85849950D01*
X141067042Y-85845289D01*
X141068473Y-85841121D01*
X141066753Y-85795305D01*
X141066700Y-85792484D01*
X141066700Y-85774264D01*
X141066065Y-85770853D01*
X141065865Y-85768690D01*
X141065600Y-85764597D01*
X141065050Y-85749949D01*
X141064606Y-85738115D01*
X141061865Y-85731735D01*
X141059722Y-85726746D01*
X141054886Y-85710831D01*
X141053890Y-85705485D01*
X141052620Y-85698663D01*
X141039137Y-85676789D01*
X141034060Y-85667015D01*
X141034000Y-85666874D01*
X141023917Y-85643407D01*
X141020222Y-85638909D01*
X141014884Y-85633571D01*
X141004043Y-85619857D01*
X141002175Y-85616826D01*
X141002174Y-85616825D01*
X140998531Y-85610915D01*
X140976276Y-85593992D01*
X140968620Y-85587307D01*
X139146967Y-83765654D01*
X139125227Y-83719034D01*
X139125584Y-83702665D01*
X139145039Y-83554885D01*
X139145039Y-83554884D01*
X139145682Y-83550000D01*
X139130445Y-83434262D01*
X139125687Y-83398119D01*
X139125686Y-83398116D01*
X139125044Y-83393238D01*
X139064536Y-83247159D01*
X138968282Y-83121718D01*
X138842841Y-83025464D01*
X138696762Y-82964956D01*
X138691884Y-82964314D01*
X138691881Y-82964313D01*
X138544884Y-82944961D01*
X138540000Y-82944318D01*
X138535116Y-82944961D01*
X138388119Y-82964313D01*
X138388116Y-82964314D01*
X138383238Y-82964956D01*
X138237159Y-83025464D01*
X138111718Y-83121718D01*
X138015464Y-83247159D01*
X137954956Y-83393238D01*
X137954314Y-83398116D01*
X137954313Y-83398119D01*
X137949555Y-83434262D01*
X137934318Y-83550000D01*
X137934961Y-83554884D01*
X137954313Y-83701875D01*
X137954956Y-83706762D01*
X138015464Y-83852841D01*
X138111718Y-83978282D01*
X138115625Y-83981280D01*
X138174438Y-84026409D01*
X138237159Y-84074536D01*
X138383238Y-84135044D01*
X138388116Y-84135686D01*
X138388119Y-84135687D01*
X138535116Y-84155039D01*
X138540000Y-84155682D01*
X138544884Y-84155039D01*
X138544885Y-84155039D01*
X138692665Y-84135584D01*
X138742885Y-84146718D01*
X138755654Y-84156967D01*
X138987412Y-84388725D01*
X139009152Y-84435345D01*
X138995838Y-84485032D01*
X138953701Y-84514537D01*
X138917601Y-84514954D01*
X138914541Y-84513733D01*
X138908748Y-84513165D01*
X138901198Y-84513165D01*
X138883835Y-84511133D01*
X138880370Y-84510311D01*
X138873615Y-84508708D01*
X138866737Y-84509644D01*
X138866736Y-84509644D01*
X138845913Y-84512478D01*
X138835772Y-84513165D01*
X134051484Y-84513165D01*
X134003146Y-84495572D01*
X133991824Y-84483744D01*
X133981023Y-84469667D01*
X133898087Y-84361583D01*
X133891940Y-84356866D01*
X133849726Y-84324474D01*
X133822087Y-84281090D01*
X133820305Y-84264814D01*
X133820305Y-78985223D01*
X133821990Y-78969395D01*
X133823448Y-78962625D01*
X133823448Y-78962618D01*
X133824756Y-78956544D01*
X133820826Y-78923340D01*
X133820305Y-78914501D01*
X133820305Y-78910690D01*
X133819796Y-78907629D01*
X133819795Y-78907622D01*
X133817217Y-78892135D01*
X133816717Y-78888625D01*
X133815967Y-78882282D01*
X133811041Y-78840667D01*
X133808353Y-78835068D01*
X133808105Y-78834216D01*
X133807909Y-78833358D01*
X133807633Y-78832485D01*
X133807301Y-78831673D01*
X133807014Y-78830834D01*
X133805993Y-78824702D01*
X133783044Y-78782170D01*
X133781457Y-78779057D01*
X133760531Y-78735479D01*
X133757213Y-78731531D01*
X133756211Y-78730529D01*
X133753350Y-78727139D01*
X133750583Y-78722011D01*
X133746023Y-78717796D01*
X133746021Y-78717793D01*
X133713428Y-78687665D01*
X133711300Y-78685618D01*
X133339959Y-78314277D01*
X133329958Y-78301895D01*
X133326196Y-78296069D01*
X133322825Y-78290848D01*
X133296562Y-78270143D01*
X133289943Y-78264261D01*
X133287254Y-78261572D01*
X133271939Y-78250628D01*
X133269132Y-78248520D01*
X133231189Y-78218608D01*
X133225325Y-78216549D01*
X133224556Y-78216126D01*
X133223799Y-78215650D01*
X133223001Y-78215235D01*
X133222189Y-78214895D01*
X133221387Y-78214502D01*
X133216331Y-78210889D01*
X133170032Y-78197043D01*
X133166692Y-78195958D01*
X133142717Y-78187538D01*
X133125557Y-78181512D01*
X133125555Y-78181512D01*
X133121094Y-78179945D01*
X133115956Y-78179500D01*
X133114543Y-78179500D01*
X133110118Y-78179125D01*
X133104536Y-78177456D01*
X133065365Y-78178995D01*
X133053988Y-78179442D01*
X133051036Y-78179500D01*
X131935051Y-78179500D01*
X131886713Y-78161907D01*
X131875391Y-78150079D01*
X131841280Y-78105625D01*
X131838282Y-78101718D01*
X131712841Y-78005464D01*
X131566762Y-77944956D01*
X131561884Y-77944314D01*
X131561881Y-77944313D01*
X131414884Y-77924961D01*
X131410000Y-77924318D01*
X131405116Y-77924961D01*
X131258119Y-77944313D01*
X131258116Y-77944314D01*
X131253238Y-77944956D01*
X131107159Y-78005464D01*
X130981718Y-78101718D01*
X130885464Y-78227159D01*
X130824956Y-78373238D01*
X130804318Y-78530000D01*
X130824956Y-78686762D01*
X130885464Y-78832841D01*
X130981718Y-78958282D01*
X131107159Y-79054536D01*
X131253238Y-79115044D01*
X131258116Y-79115686D01*
X131258119Y-79115687D01*
X131405116Y-79135039D01*
X131410000Y-79135682D01*
X131414884Y-79135039D01*
X131561881Y-79115687D01*
X131561884Y-79115686D01*
X131566762Y-79115044D01*
X131712841Y-79054536D01*
X131838282Y-78958282D01*
X131868472Y-78918938D01*
X131875391Y-78909921D01*
X131918775Y-78882282D01*
X131935051Y-78880500D01*
X132883669Y-78880500D01*
X132932007Y-78898093D01*
X132936843Y-78902525D01*
X133097279Y-79062960D01*
X133119019Y-79109581D01*
X133119305Y-79116135D01*
X133119305Y-84264814D01*
X133101712Y-84313152D01*
X133089884Y-84324474D01*
X133047670Y-84356866D01*
X133041523Y-84361583D01*
X132945269Y-84487024D01*
X132884761Y-84633103D01*
X132864123Y-84789865D01*
X132884761Y-84946627D01*
X132945269Y-85092706D01*
X132954358Y-85104551D01*
X133038082Y-85213662D01*
X133041523Y-85218147D01*
X133166964Y-85314401D01*
X133313043Y-85374909D01*
X133317921Y-85375551D01*
X133317924Y-85375552D01*
X133464921Y-85394904D01*
X133469805Y-85395547D01*
X133474689Y-85394904D01*
X133621686Y-85375552D01*
X133621689Y-85375551D01*
X133626567Y-85374909D01*
X133772646Y-85314401D01*
X133898087Y-85218147D01*
X133901529Y-85213662D01*
X133976755Y-85115625D01*
X133991824Y-85095986D01*
X134035208Y-85068348D01*
X134051484Y-85066565D01*
X138714104Y-85066565D01*
X138762442Y-85084158D01*
X138767278Y-85088591D01*
X139471274Y-85792587D01*
X139493014Y-85839207D01*
X139493300Y-85845761D01*
X139493300Y-86358321D01*
X139475707Y-86406659D01*
X139463880Y-86417980D01*
X139341718Y-86511718D01*
X139245464Y-86637159D01*
X139184956Y-86783238D01*
X139184314Y-86788116D01*
X139184313Y-86788119D01*
X139169719Y-86898975D01*
X139164318Y-86940000D01*
X139164961Y-86944884D01*
X139183899Y-87088730D01*
X139184956Y-87096762D01*
X139245464Y-87242841D01*
X139341718Y-87368282D01*
X139467159Y-87464536D01*
X139613238Y-87525044D01*
X139618116Y-87525686D01*
X139618119Y-87525687D01*
X139765116Y-87545039D01*
X139770000Y-87545682D01*
X139774884Y-87545039D01*
X139921881Y-87525687D01*
X139921884Y-87525686D01*
X139926762Y-87525044D01*
X140072841Y-87464536D01*
X140198282Y-87368282D01*
X140294536Y-87242841D01*
X140355044Y-87096762D01*
X140356102Y-87088730D01*
X140363543Y-87032206D01*
X140387296Y-86986578D01*
X140434820Y-86966893D01*
X140483879Y-86982361D01*
X140511517Y-87025745D01*
X140513300Y-87042021D01*
X140513300Y-88214239D01*
X140495707Y-88262577D01*
X140491274Y-88267413D01*
X140357413Y-88401274D01*
X140310793Y-88423014D01*
X140304239Y-88423300D01*
X138159950Y-88423300D01*
X138155289Y-88422958D01*
X138151121Y-88421527D01*
X138105305Y-88423247D01*
X138102484Y-88423300D01*
X138084264Y-88423300D01*
X138080853Y-88423935D01*
X138078690Y-88424135D01*
X138074602Y-88424400D01*
X138048115Y-88425394D01*
X138041735Y-88428135D01*
X138036746Y-88430278D01*
X138020832Y-88435114D01*
X138008663Y-88437380D01*
X137986789Y-88450863D01*
X137977015Y-88455940D01*
X137953407Y-88466083D01*
X137948909Y-88469778D01*
X137943571Y-88475116D01*
X137929857Y-88485957D01*
X137926826Y-88487825D01*
X137926825Y-88487826D01*
X137920915Y-88491469D01*
X137903992Y-88513724D01*
X137897307Y-88521380D01*
X136839663Y-89579024D01*
X136836124Y-89582079D01*
X136832167Y-89584013D01*
X136827448Y-89589100D01*
X136827447Y-89589101D01*
X136800981Y-89617632D01*
X136799023Y-89619664D01*
X136786145Y-89632542D01*
X136784184Y-89635400D01*
X136782790Y-89637078D01*
X136780086Y-89640157D01*
X136766787Y-89654493D01*
X136766786Y-89654495D01*
X136762065Y-89659584D01*
X136757479Y-89671081D01*
X136749644Y-89685752D01*
X136742644Y-89695956D01*
X136736711Y-89720956D01*
X136733390Y-89731456D01*
X136723868Y-89755324D01*
X136723300Y-89761117D01*
X136723300Y-89768667D01*
X136721268Y-89786030D01*
X136718843Y-89796250D01*
X136719779Y-89803128D01*
X136719779Y-89803129D01*
X136722613Y-89823952D01*
X136723300Y-89834093D01*
X136723300Y-95148100D01*
X136705707Y-95196438D01*
X136661158Y-95222158D01*
X136648100Y-95223300D01*
X136291679Y-95223300D01*
X136243341Y-95205707D01*
X136232019Y-95193879D01*
X136206912Y-95161158D01*
X136174809Y-95119321D01*
X136159341Y-95070262D01*
X136179026Y-95022737D01*
X136205691Y-95004066D01*
X136252841Y-94984536D01*
X136378282Y-94888282D01*
X136384959Y-94879581D01*
X136471538Y-94766748D01*
X136474536Y-94762841D01*
X136535044Y-94616762D01*
X136555682Y-94460000D01*
X136535044Y-94303238D01*
X136474536Y-94157159D01*
X136378282Y-94031718D01*
X136252841Y-93935464D01*
X136106762Y-93874956D01*
X136101884Y-93874314D01*
X136101881Y-93874313D01*
X135954884Y-93854961D01*
X135950000Y-93854318D01*
X135945116Y-93854961D01*
X135798119Y-93874313D01*
X135798116Y-93874314D01*
X135793238Y-93874956D01*
X135647159Y-93935464D01*
X135521718Y-94031718D01*
X135518720Y-94035625D01*
X135427981Y-94153879D01*
X135384597Y-94181517D01*
X135368321Y-94183300D01*
X133969949Y-94183300D01*
X133965289Y-94182958D01*
X133961121Y-94181527D01*
X133916801Y-94183191D01*
X133915316Y-94183247D01*
X133912494Y-94183300D01*
X133894264Y-94183300D01*
X133890859Y-94183934D01*
X133888686Y-94184135D01*
X133884593Y-94184401D01*
X133858114Y-94185395D01*
X133846747Y-94190279D01*
X133830835Y-94195113D01*
X133825485Y-94196109D01*
X133825483Y-94196110D01*
X133818663Y-94197380D01*
X133812754Y-94201022D01*
X133812755Y-94201022D01*
X133796788Y-94210864D01*
X133787013Y-94215942D01*
X133763407Y-94226084D01*
X133758909Y-94229778D01*
X133753571Y-94235116D01*
X133739857Y-94245957D01*
X133736826Y-94247825D01*
X133736825Y-94247826D01*
X133730915Y-94251469D01*
X133713992Y-94273724D01*
X133707307Y-94281380D01*
X133139663Y-94849024D01*
X133136124Y-94852079D01*
X133132167Y-94854013D01*
X133127448Y-94859100D01*
X133127447Y-94859101D01*
X133100981Y-94887632D01*
X133099023Y-94889664D01*
X133086145Y-94902542D01*
X133084184Y-94905400D01*
X133082790Y-94907078D01*
X133080086Y-94910157D01*
X133066787Y-94924493D01*
X133066786Y-94924495D01*
X133062065Y-94929584D01*
X133057479Y-94941081D01*
X133049644Y-94955752D01*
X133042644Y-94965956D01*
X133036711Y-94990956D01*
X133033390Y-95001456D01*
X133023868Y-95025324D01*
X133023300Y-95031117D01*
X133023300Y-95038667D01*
X133021268Y-95056030D01*
X133018843Y-95066250D01*
X133019779Y-95073128D01*
X133019779Y-95073129D01*
X133022613Y-95093952D01*
X133023300Y-95104093D01*
X133023300Y-96976549D01*
X133005707Y-97024887D01*
X133001274Y-97029723D01*
X132463563Y-97567434D01*
X132416943Y-97589174D01*
X132410389Y-97589460D01*
X122307251Y-97589460D01*
X122258913Y-97571867D01*
X122233193Y-97527318D01*
X122237775Y-97485482D01*
X122293160Y-97351771D01*
X122293160Y-97351769D01*
X122295044Y-97347222D01*
X122296587Y-97335507D01*
X122315039Y-97195344D01*
X122315682Y-97190460D01*
X122311804Y-97161000D01*
X122295687Y-97038579D01*
X122295686Y-97038576D01*
X122295044Y-97033698D01*
X122234536Y-96887619D01*
X122138282Y-96762178D01*
X122016121Y-96668441D01*
X121988483Y-96625057D01*
X121986700Y-96608781D01*
X121986700Y-93835761D01*
X122004293Y-93787423D01*
X122008726Y-93782587D01*
X122502587Y-93288726D01*
X122549207Y-93266986D01*
X122555761Y-93266700D01*
X127667968Y-93266700D01*
X127716306Y-93284293D01*
X127727627Y-93296120D01*
X127789695Y-93377009D01*
X127811754Y-93405756D01*
X127821718Y-93418742D01*
X127947159Y-93514996D01*
X128093238Y-93575504D01*
X128098116Y-93576146D01*
X128098119Y-93576147D01*
X128245116Y-93595499D01*
X128250000Y-93596142D01*
X128254884Y-93595499D01*
X128401881Y-93576147D01*
X128401884Y-93576146D01*
X128406762Y-93575504D01*
X128552841Y-93514996D01*
X128678282Y-93418742D01*
X128688247Y-93405756D01*
X128771538Y-93297208D01*
X128774536Y-93293301D01*
X128835044Y-93147222D01*
X128855682Y-92990460D01*
X128854459Y-92981170D01*
X128835687Y-92838579D01*
X128835686Y-92838576D01*
X128835044Y-92833698D01*
X128774536Y-92687619D01*
X128704808Y-92596748D01*
X128681280Y-92566085D01*
X128678282Y-92562178D01*
X128621089Y-92518292D01*
X128556748Y-92468922D01*
X128552841Y-92465924D01*
X128406762Y-92405416D01*
X128401884Y-92404774D01*
X128401881Y-92404773D01*
X128254884Y-92385421D01*
X128250000Y-92384778D01*
X128245116Y-92385421D01*
X128098119Y-92404773D01*
X128098116Y-92404774D01*
X128093238Y-92405416D01*
X127947159Y-92465924D01*
X127943252Y-92468922D01*
X127878912Y-92518292D01*
X127821718Y-92562178D01*
X127818720Y-92566085D01*
X127812520Y-92574165D01*
X127753442Y-92651158D01*
X127728334Y-92683879D01*
X127684950Y-92711517D01*
X127668674Y-92713300D01*
X123750882Y-92713300D01*
X123702544Y-92695707D01*
X123676824Y-92651158D01*
X123685757Y-92600500D01*
X123691222Y-92592321D01*
X123741538Y-92526748D01*
X123744536Y-92522841D01*
X123805044Y-92376762D01*
X123807076Y-92361334D01*
X123825039Y-92224884D01*
X123825682Y-92220000D01*
X123805044Y-92063238D01*
X123744536Y-91917159D01*
X123648282Y-91791718D01*
X123522841Y-91695464D01*
X123376762Y-91634956D01*
X123371884Y-91634314D01*
X123371881Y-91634313D01*
X123224884Y-91614961D01*
X123220000Y-91614318D01*
X123215116Y-91614961D01*
X123068119Y-91634313D01*
X123068116Y-91634314D01*
X123063238Y-91634956D01*
X122917159Y-91695464D01*
X122791718Y-91791718D01*
X122788720Y-91795625D01*
X122697981Y-91913879D01*
X122654597Y-91941517D01*
X122638321Y-91943300D01*
X121689950Y-91943300D01*
X121685289Y-91942958D01*
X121681121Y-91941527D01*
X121635305Y-91943247D01*
X121632484Y-91943300D01*
X121614264Y-91943300D01*
X121610853Y-91943935D01*
X121608690Y-91944135D01*
X121604602Y-91944400D01*
X121578115Y-91945394D01*
X121566743Y-91950280D01*
X121550833Y-91955114D01*
X121538663Y-91957380D01*
X121516789Y-91970864D01*
X121507011Y-91975943D01*
X121488284Y-91983988D01*
X121488280Y-91983991D01*
X121483407Y-91986084D01*
X121478909Y-91989778D01*
X121473571Y-91995116D01*
X121459857Y-92005957D01*
X121456826Y-92007825D01*
X121456825Y-92007826D01*
X121450915Y-92011469D01*
X121433992Y-92033724D01*
X121427307Y-92041380D01*
X120215363Y-93253324D01*
X120211824Y-93256379D01*
X120207867Y-93258313D01*
X120203148Y-93263400D01*
X120203147Y-93263401D01*
X120176681Y-93291932D01*
X120174723Y-93293964D01*
X120161845Y-93306842D01*
X120159884Y-93309700D01*
X120158490Y-93311378D01*
X120155786Y-93314457D01*
X120142487Y-93328793D01*
X120142486Y-93328795D01*
X120137765Y-93333884D01*
X120133179Y-93345381D01*
X120125344Y-93360052D01*
X120118344Y-93370256D01*
X120112411Y-93395256D01*
X120109090Y-93405756D01*
X120099568Y-93429624D01*
X120099000Y-93435417D01*
X120099000Y-93442967D01*
X120096968Y-93460330D01*
X120094543Y-93470550D01*
X120095479Y-93477428D01*
X120095479Y-93477429D01*
X120098313Y-93498252D01*
X120099000Y-93508393D01*
X120099000Y-96608781D01*
X120081407Y-96657119D01*
X120069580Y-96668440D01*
X119947418Y-96762178D01*
X119851164Y-96887619D01*
X119790656Y-97033698D01*
X119790014Y-97038576D01*
X119790013Y-97038579D01*
X119773896Y-97161000D01*
X119770018Y-97190460D01*
X119770661Y-97195344D01*
X119789114Y-97335507D01*
X119790656Y-97347222D01*
X119792540Y-97351769D01*
X119792540Y-97351771D01*
X119847925Y-97485482D01*
X119850168Y-97536873D01*
X119818854Y-97577683D01*
X119778449Y-97589460D01*
X118071921Y-97589460D01*
X118023583Y-97571867D01*
X118018747Y-97567434D01*
X115970515Y-95519202D01*
X115948775Y-95472582D01*
X115948489Y-95466028D01*
X115948489Y-90060000D01*
X118354318Y-90060000D01*
X118354961Y-90064884D01*
X118373506Y-90205745D01*
X118374956Y-90216762D01*
X118435464Y-90362841D01*
X118531718Y-90488282D01*
X118657159Y-90584536D01*
X118803238Y-90645044D01*
X118808116Y-90645686D01*
X118808119Y-90645687D01*
X118955116Y-90665039D01*
X118960000Y-90665682D01*
X118964884Y-90665039D01*
X119111881Y-90645687D01*
X119111884Y-90645686D01*
X119116762Y-90645044D01*
X119262841Y-90584536D01*
X119388282Y-90488282D01*
X119484536Y-90362841D01*
X119545044Y-90216762D01*
X119546495Y-90205745D01*
X119565039Y-90064884D01*
X119565682Y-90060000D01*
X119551959Y-89955761D01*
X119545687Y-89908119D01*
X119545686Y-89908116D01*
X119545044Y-89903238D01*
X119484536Y-89757159D01*
X119442755Y-89702709D01*
X119426040Y-89680925D01*
X119410500Y-89635146D01*
X119410500Y-89620701D01*
X120064318Y-89620701D01*
X120064961Y-89625585D01*
X120083046Y-89762952D01*
X120084956Y-89777463D01*
X120145464Y-89923542D01*
X120241718Y-90048983D01*
X120367159Y-90145237D01*
X120513238Y-90205745D01*
X120518116Y-90206387D01*
X120518119Y-90206388D01*
X120665116Y-90225740D01*
X120670000Y-90226383D01*
X120674884Y-90225740D01*
X120821881Y-90206388D01*
X120821884Y-90206387D01*
X120826762Y-90205745D01*
X120972841Y-90145237D01*
X121098282Y-90048983D01*
X121194536Y-89923542D01*
X121255044Y-89777463D01*
X121256955Y-89762952D01*
X121275039Y-89625585D01*
X121275682Y-89620701D01*
X121255044Y-89463939D01*
X121194536Y-89317860D01*
X121098282Y-89192419D01*
X121092705Y-89188139D01*
X121092022Y-89187068D01*
X121090887Y-89185933D01*
X121091139Y-89185681D01*
X121065066Y-89144757D01*
X121071779Y-89093757D01*
X121085309Y-89075305D01*
X121284346Y-88876268D01*
X121330966Y-88854528D01*
X121347335Y-88854885D01*
X121495115Y-88874340D01*
X121495116Y-88874340D01*
X121500000Y-88874983D01*
X121504884Y-88874340D01*
X121651881Y-88854988D01*
X121651884Y-88854987D01*
X121656762Y-88854345D01*
X121802841Y-88793837D01*
X121928282Y-88697583D01*
X122024536Y-88572142D01*
X122085044Y-88426063D01*
X122086544Y-88414676D01*
X122105039Y-88274185D01*
X122105682Y-88269301D01*
X122085044Y-88112539D01*
X122024536Y-87966460D01*
X121928282Y-87841019D01*
X121802841Y-87744765D01*
X121656762Y-87684257D01*
X121651884Y-87683615D01*
X121651881Y-87683614D01*
X121504884Y-87664262D01*
X121500000Y-87663619D01*
X121495116Y-87664262D01*
X121348119Y-87683614D01*
X121348116Y-87683615D01*
X121343238Y-87684257D01*
X121197159Y-87744765D01*
X121071718Y-87841019D01*
X120975464Y-87966460D01*
X120914956Y-88112539D01*
X120894318Y-88269301D01*
X120894961Y-88274185D01*
X120894961Y-88274186D01*
X120914416Y-88421966D01*
X120903282Y-88472186D01*
X120893033Y-88484955D01*
X120509663Y-88868325D01*
X120506124Y-88871380D01*
X120502167Y-88873314D01*
X120497448Y-88878401D01*
X120497447Y-88878402D01*
X120470981Y-88906933D01*
X120469023Y-88908965D01*
X120456145Y-88921843D01*
X120454184Y-88924701D01*
X120452790Y-88926379D01*
X120450086Y-88929458D01*
X120436787Y-88943794D01*
X120436786Y-88943796D01*
X120432065Y-88948885D01*
X120427479Y-88960382D01*
X120419644Y-88975053D01*
X120412644Y-88985257D01*
X120406711Y-89010257D01*
X120403390Y-89020757D01*
X120393868Y-89044625D01*
X120393350Y-89049912D01*
X120392096Y-89055064D01*
X120389588Y-89054454D01*
X120371511Y-89092144D01*
X120364697Y-89098054D01*
X120245625Y-89189421D01*
X120241718Y-89192419D01*
X120145464Y-89317860D01*
X120084956Y-89463939D01*
X120064318Y-89620701D01*
X119410500Y-89620701D01*
X119410500Y-87377751D01*
X119428093Y-87329413D01*
X119432526Y-87324577D01*
X120744577Y-86012526D01*
X120791197Y-85990786D01*
X120797751Y-85990500D01*
X124055146Y-85990500D01*
X124100925Y-86006040D01*
X124177159Y-86064536D01*
X124323238Y-86125044D01*
X124328116Y-86125686D01*
X124328119Y-86125687D01*
X124475116Y-86145039D01*
X124480000Y-86145682D01*
X124484884Y-86145039D01*
X124631881Y-86125687D01*
X124631884Y-86125686D01*
X124636762Y-86125044D01*
X124782841Y-86064536D01*
X124908282Y-85968282D01*
X125004536Y-85842841D01*
X125065044Y-85696762D01*
X125067674Y-85676789D01*
X125085039Y-85544884D01*
X125085682Y-85540000D01*
X125065044Y-85383238D01*
X125004536Y-85237159D01*
X124908282Y-85111718D01*
X124903329Y-85107917D01*
X124786748Y-85018462D01*
X124782841Y-85015464D01*
X124636762Y-84954956D01*
X124631884Y-84954314D01*
X124631881Y-84954313D01*
X124484884Y-84934961D01*
X124480000Y-84934318D01*
X124475116Y-84934961D01*
X124328119Y-84954313D01*
X124328116Y-84954314D01*
X124323238Y-84954956D01*
X124177159Y-85015464D01*
X124173252Y-85018462D01*
X124100925Y-85073960D01*
X124055146Y-85089500D01*
X120611224Y-85089500D01*
X120602385Y-85088979D01*
X120601709Y-85088899D01*
X120565690Y-85084636D01*
X120560160Y-85085646D01*
X120560158Y-85085646D01*
X120541910Y-85088979D01*
X120507184Y-85095321D01*
X120504903Y-85095701D01*
X120446038Y-85104551D01*
X120441184Y-85106882D01*
X120440960Y-85106937D01*
X120440594Y-85107062D01*
X120438358Y-85107789D01*
X120437942Y-85107917D01*
X120437717Y-85108009D01*
X120432427Y-85108975D01*
X120427441Y-85111565D01*
X120427438Y-85111566D01*
X120379658Y-85136386D01*
X120377545Y-85137441D01*
X120328987Y-85160758D01*
X120328985Y-85160759D01*
X120323921Y-85163191D01*
X120319970Y-85166843D01*
X120319163Y-85167325D01*
X120316018Y-85169444D01*
X120312212Y-85171421D01*
X120307172Y-85175725D01*
X120269235Y-85213662D01*
X120267107Y-85215709D01*
X120224444Y-85255146D01*
X120221622Y-85260004D01*
X120219089Y-85263166D01*
X120213575Y-85269322D01*
X118663532Y-86819365D01*
X118656914Y-86825247D01*
X118627890Y-86848128D01*
X118624697Y-86852748D01*
X118624696Y-86852749D01*
X118594076Y-86897053D01*
X118592702Y-86898975D01*
X118557366Y-86946816D01*
X118555584Y-86951891D01*
X118555473Y-86952074D01*
X118555298Y-86952432D01*
X118554219Y-86954549D01*
X118554019Y-86954927D01*
X118553929Y-86955143D01*
X118550869Y-86959569D01*
X118549173Y-86964933D01*
X118532931Y-87016288D01*
X118532194Y-87018496D01*
X118512481Y-87074631D01*
X118512270Y-87080008D01*
X118512037Y-87080929D01*
X118511314Y-87084640D01*
X118510020Y-87088730D01*
X118509500Y-87095337D01*
X118509500Y-87149017D01*
X118509442Y-87151970D01*
X118507162Y-87209994D01*
X118508604Y-87215432D01*
X118509046Y-87219438D01*
X118509500Y-87227691D01*
X118509500Y-89635146D01*
X118493960Y-89680925D01*
X118477245Y-89702709D01*
X118435464Y-89757159D01*
X118374956Y-89903238D01*
X118374314Y-89908116D01*
X118374313Y-89908119D01*
X118368041Y-89955761D01*
X118354318Y-90060000D01*
X115948489Y-90060000D01*
X115948489Y-84693972D01*
X115966082Y-84645634D01*
X115970515Y-84640798D01*
X117035087Y-83576226D01*
X117081707Y-83554486D01*
X117088261Y-83554200D01*
X117748321Y-83554200D01*
X117796659Y-83571793D01*
X117807981Y-83583621D01*
X117898264Y-83701280D01*
X117901718Y-83705782D01*
X118027159Y-83802036D01*
X118173238Y-83862544D01*
X118178116Y-83863186D01*
X118178119Y-83863187D01*
X118325116Y-83882539D01*
X118330000Y-83883182D01*
X118334884Y-83882539D01*
X118481881Y-83863187D01*
X118481884Y-83863186D01*
X118486762Y-83862544D01*
X118632841Y-83802036D01*
X118758282Y-83705782D01*
X118761737Y-83701280D01*
X118851538Y-83584248D01*
X118854536Y-83580341D01*
X118915044Y-83434262D01*
X118916032Y-83426762D01*
X118935039Y-83282384D01*
X118935682Y-83277500D01*
X118931173Y-83243252D01*
X118915687Y-83125619D01*
X118915686Y-83125616D01*
X118915044Y-83120738D01*
X118854536Y-82974659D01*
X118758282Y-82849218D01*
X118753600Y-82845625D01*
X118636748Y-82755962D01*
X118632841Y-82752964D01*
X118486762Y-82692456D01*
X118481884Y-82691814D01*
X118481881Y-82691813D01*
X118334884Y-82672461D01*
X118330000Y-82671818D01*
X118325116Y-82672461D01*
X118178119Y-82691813D01*
X118178116Y-82691814D01*
X118173238Y-82692456D01*
X118027159Y-82752964D01*
X118023252Y-82755962D01*
X117906401Y-82845625D01*
X117901718Y-82849218D01*
X117812910Y-82964956D01*
X117807981Y-82971379D01*
X117764597Y-82999017D01*
X117748321Y-83000800D01*
X116992450Y-83000800D01*
X116987789Y-83000458D01*
X116983621Y-82999027D01*
X116937805Y-83000747D01*
X116934984Y-83000800D01*
X116916764Y-83000800D01*
X116913353Y-83001435D01*
X116911190Y-83001635D01*
X116907102Y-83001900D01*
X116880615Y-83002894D01*
X116874235Y-83005635D01*
X116869246Y-83007778D01*
X116853332Y-83012614D01*
X116841163Y-83014880D01*
X116827049Y-83023580D01*
X116819289Y-83028363D01*
X116809515Y-83033440D01*
X116785907Y-83043583D01*
X116781409Y-83047278D01*
X116776071Y-83052616D01*
X116762357Y-83063457D01*
X116759326Y-83065325D01*
X116759325Y-83065326D01*
X116753415Y-83068969D01*
X116736492Y-83091224D01*
X116729807Y-83098880D01*
X115511452Y-84317235D01*
X115507913Y-84320290D01*
X115503956Y-84322224D01*
X115499237Y-84327311D01*
X115499236Y-84327312D01*
X115472770Y-84355843D01*
X115470812Y-84357875D01*
X115457934Y-84370753D01*
X115455973Y-84373611D01*
X115454579Y-84375289D01*
X115451875Y-84378368D01*
X115438576Y-84392704D01*
X115438575Y-84392706D01*
X115433854Y-84397795D01*
X115429268Y-84409292D01*
X115421433Y-84423963D01*
X115414433Y-84434167D01*
X115408500Y-84459167D01*
X115405179Y-84469667D01*
X115395657Y-84493535D01*
X115395089Y-84499328D01*
X115395089Y-84506878D01*
X115393057Y-84524241D01*
X115390632Y-84534461D01*
X115391568Y-84541339D01*
X115391568Y-84541340D01*
X115394402Y-84562163D01*
X115395089Y-84572304D01*
X115395089Y-95561839D01*
X115394747Y-95566500D01*
X115393316Y-95570668D01*
X115395036Y-95616484D01*
X115395089Y-95619305D01*
X115395089Y-95637525D01*
X115395724Y-95640936D01*
X115395924Y-95643099D01*
X115396189Y-95647187D01*
X115397183Y-95673674D01*
X115399924Y-95680054D01*
X115402067Y-95685043D01*
X115406903Y-95700957D01*
X115409169Y-95713126D01*
X115412811Y-95719034D01*
X115422652Y-95735000D01*
X115427729Y-95744774D01*
X115437872Y-95768382D01*
X115441567Y-95772880D01*
X115446905Y-95778218D01*
X115457746Y-95791932D01*
X115463258Y-95800874D01*
X115485513Y-95817797D01*
X115493169Y-95824482D01*
X117481693Y-97813006D01*
X117503433Y-97859626D01*
X117490119Y-97909313D01*
X117447982Y-97938818D01*
X117428519Y-97941380D01*
X117421870Y-97941380D01*
X117417209Y-97941038D01*
X117413041Y-97939607D01*
X117367225Y-97941327D01*
X117364404Y-97941380D01*
X117346184Y-97941380D01*
X117342773Y-97942015D01*
X117340610Y-97942215D01*
X117336522Y-97942480D01*
X117310035Y-97943474D01*
X117303655Y-97946215D01*
X117298666Y-97948358D01*
X117282752Y-97953194D01*
X117270583Y-97955460D01*
X117248709Y-97968943D01*
X117238935Y-97974020D01*
X117215327Y-97984163D01*
X117210829Y-97987858D01*
X117205491Y-97993196D01*
X117191777Y-98004037D01*
X117188746Y-98005905D01*
X117188745Y-98005906D01*
X117182835Y-98009549D01*
X117165912Y-98031804D01*
X117159227Y-98039460D01*
X117014873Y-98183814D01*
X116968253Y-98205554D01*
X116918566Y-98192240D01*
X116889061Y-98150103D01*
X116887142Y-98120824D01*
X116905039Y-97984884D01*
X116905682Y-97980000D01*
X116900839Y-97943214D01*
X116885687Y-97828119D01*
X116885686Y-97828116D01*
X116885044Y-97823238D01*
X116824536Y-97677159D01*
X116728282Y-97551718D01*
X116602841Y-97455464D01*
X116456762Y-97394956D01*
X116451884Y-97394314D01*
X116451881Y-97394313D01*
X116304884Y-97374961D01*
X116300000Y-97374318D01*
X116295116Y-97374961D01*
X116148119Y-97394313D01*
X116148116Y-97394314D01*
X116143238Y-97394956D01*
X115997159Y-97455464D01*
X115993252Y-97458462D01*
X115920925Y-97513960D01*
X115875146Y-97529500D01*
X113777751Y-97529500D01*
X113729413Y-97511907D01*
X113724577Y-97507474D01*
X112242526Y-96025423D01*
X112220786Y-95978803D01*
X112220500Y-95972249D01*
X112220500Y-87667752D01*
X112238093Y-87619414D01*
X112242526Y-87614577D01*
X112489579Y-87367525D01*
X112536199Y-87345786D01*
X112542753Y-87345500D01*
X113515146Y-87345500D01*
X113560925Y-87361040D01*
X113582703Y-87377751D01*
X113637159Y-87419536D01*
X113783238Y-87480044D01*
X113788116Y-87480686D01*
X113788119Y-87480687D01*
X113935116Y-87500039D01*
X113940000Y-87500682D01*
X113944884Y-87500039D01*
X114091881Y-87480687D01*
X114091884Y-87480686D01*
X114096762Y-87480044D01*
X114242841Y-87419536D01*
X114368282Y-87323282D01*
X114464536Y-87197841D01*
X114525044Y-87051762D01*
X114526327Y-87042021D01*
X114545039Y-86899884D01*
X114545682Y-86895000D01*
X114539053Y-86844650D01*
X114525687Y-86743119D01*
X114525686Y-86743116D01*
X114525044Y-86738238D01*
X114464536Y-86592159D01*
X114368282Y-86466718D01*
X114242841Y-86370464D01*
X114096762Y-86309956D01*
X114091884Y-86309314D01*
X114091881Y-86309313D01*
X113944884Y-86289961D01*
X113940000Y-86289318D01*
X113935116Y-86289961D01*
X113788119Y-86309313D01*
X113788116Y-86309314D01*
X113783238Y-86309956D01*
X113637159Y-86370464D01*
X113633252Y-86373462D01*
X113560925Y-86428960D01*
X113515146Y-86444500D01*
X112356224Y-86444500D01*
X112347385Y-86443979D01*
X112346709Y-86443899D01*
X112310690Y-86439636D01*
X112305160Y-86440646D01*
X112305157Y-86440646D01*
X112252204Y-86450317D01*
X112249874Y-86450705D01*
X112196596Y-86458715D01*
X112196594Y-86458716D01*
X112191038Y-86459551D01*
X112186187Y-86461880D01*
X112185968Y-86461934D01*
X112185611Y-86462056D01*
X112183340Y-86462794D01*
X112182938Y-86462918D01*
X112182720Y-86463007D01*
X112177427Y-86463974D01*
X112172437Y-86466566D01*
X112124656Y-86491385D01*
X112122545Y-86492440D01*
X112073989Y-86515757D01*
X112073987Y-86515758D01*
X112068921Y-86518191D01*
X112064972Y-86521842D01*
X112064156Y-86522329D01*
X112061016Y-86524444D01*
X112057212Y-86526420D01*
X112052172Y-86530724D01*
X112014223Y-86568673D01*
X112012095Y-86570720D01*
X111969444Y-86610146D01*
X111966621Y-86615007D01*
X111964096Y-86618159D01*
X111958580Y-86624317D01*
X111473531Y-87109366D01*
X111466912Y-87115248D01*
X111437890Y-87138128D01*
X111434697Y-87142748D01*
X111434696Y-87142749D01*
X111404076Y-87187053D01*
X111402702Y-87188975D01*
X111380202Y-87219438D01*
X111367366Y-87236816D01*
X111365584Y-87241891D01*
X111365473Y-87242074D01*
X111365298Y-87242432D01*
X111364219Y-87244549D01*
X111364019Y-87244927D01*
X111363929Y-87245143D01*
X111360869Y-87249569D01*
X111359173Y-87254933D01*
X111342931Y-87306288D01*
X111342194Y-87308496D01*
X111322481Y-87364631D01*
X111322270Y-87370008D01*
X111322037Y-87370929D01*
X111321314Y-87374640D01*
X111320020Y-87378730D01*
X111319500Y-87385337D01*
X111319500Y-87439017D01*
X111319442Y-87441970D01*
X111317162Y-87499994D01*
X111318604Y-87505432D01*
X111319046Y-87509438D01*
X111319500Y-87517691D01*
X111319500Y-96158776D01*
X111318979Y-96167615D01*
X111314636Y-96204310D01*
X111325151Y-96261881D01*
X111325317Y-96262791D01*
X111325701Y-96265097D01*
X111334551Y-96323962D01*
X111336882Y-96328816D01*
X111336937Y-96329040D01*
X111337062Y-96329406D01*
X111337789Y-96331642D01*
X111337917Y-96332058D01*
X111338009Y-96332283D01*
X111338975Y-96337573D01*
X111341565Y-96342559D01*
X111341566Y-96342562D01*
X111366386Y-96390342D01*
X111367441Y-96392455D01*
X111393191Y-96446079D01*
X111396843Y-96450030D01*
X111397325Y-96450837D01*
X111399444Y-96453982D01*
X111401421Y-96457788D01*
X111405725Y-96462828D01*
X111443662Y-96500765D01*
X111445709Y-96502893D01*
X111485146Y-96545556D01*
X111490004Y-96548378D01*
X111493166Y-96550911D01*
X111499322Y-96556425D01*
X113219365Y-98276468D01*
X113225247Y-98283086D01*
X113248128Y-98312110D01*
X113252748Y-98315303D01*
X113252749Y-98315304D01*
X113297053Y-98345924D01*
X113298975Y-98347298D01*
X113346816Y-98382634D01*
X113351891Y-98384416D01*
X113352074Y-98384527D01*
X113352432Y-98384702D01*
X113354549Y-98385781D01*
X113354927Y-98385981D01*
X113355143Y-98386071D01*
X113359569Y-98389131D01*
X113416300Y-98407073D01*
X113418496Y-98407806D01*
X113474631Y-98427519D01*
X113480008Y-98427730D01*
X113480929Y-98427963D01*
X113484640Y-98428686D01*
X113488730Y-98429980D01*
X113493007Y-98430317D01*
X113493009Y-98430317D01*
X113493859Y-98430384D01*
X113493867Y-98430384D01*
X113495337Y-98430500D01*
X113549017Y-98430500D01*
X113551970Y-98430558D01*
X113609994Y-98432838D01*
X113615429Y-98431397D01*
X113619441Y-98430954D01*
X113627693Y-98430500D01*
X115875146Y-98430500D01*
X115920925Y-98446040D01*
X115997159Y-98504536D01*
X116143238Y-98565044D01*
X116148116Y-98565686D01*
X116148119Y-98565687D01*
X116295116Y-98585039D01*
X116300000Y-98585682D01*
X116440825Y-98567142D01*
X116491045Y-98578276D01*
X116522359Y-98619086D01*
X116520116Y-98670477D01*
X116503814Y-98694873D01*
X113537413Y-101661274D01*
X113490793Y-101683014D01*
X113484239Y-101683300D01*
X106275700Y-101683300D01*
X106227362Y-101665707D01*
X106201642Y-101621158D01*
X106200500Y-101608100D01*
X106200500Y-101090252D01*
X106188867Y-101031769D01*
X106144552Y-100965448D01*
X106078231Y-100921133D01*
X106070967Y-100919688D01*
X106023373Y-100910221D01*
X106023372Y-100910221D01*
X106019748Y-100909500D01*
X104280252Y-100909500D01*
X104276628Y-100910221D01*
X104276627Y-100910221D01*
X104229033Y-100919688D01*
X104221769Y-100921133D01*
X104155448Y-100965448D01*
X104111133Y-101031769D01*
X104099500Y-101090252D01*
X104099500Y-102829748D01*
X104111133Y-102888231D01*
X104155448Y-102954552D01*
X104221769Y-102998867D01*
X104229033Y-103000312D01*
X104240164Y-103002526D01*
X104280252Y-103010500D01*
X106019748Y-103010500D01*
X106059836Y-103002526D01*
X106070967Y-103000312D01*
X106078231Y-102998867D01*
X106144552Y-102954552D01*
X106188867Y-102888231D01*
X106200500Y-102829748D01*
X106200500Y-102311900D01*
X106218093Y-102263562D01*
X106262642Y-102237842D01*
X106275700Y-102236700D01*
X108452749Y-102236700D01*
X108501087Y-102254293D01*
X108526807Y-102298842D01*
X108517874Y-102349500D01*
X108505923Y-102365074D01*
X107829663Y-103041334D01*
X107826124Y-103044389D01*
X107822167Y-103046323D01*
X107817448Y-103051410D01*
X107817447Y-103051411D01*
X107790981Y-103079942D01*
X107789023Y-103081974D01*
X107776145Y-103094852D01*
X107774184Y-103097710D01*
X107772790Y-103099388D01*
X107770086Y-103102467D01*
X107756787Y-103116803D01*
X107756786Y-103116805D01*
X107752065Y-103121894D01*
X107747479Y-103133391D01*
X107739644Y-103148062D01*
X107732644Y-103158266D01*
X107727931Y-103178125D01*
X107726711Y-103183266D01*
X107723390Y-103193766D01*
X107713868Y-103217634D01*
X107713300Y-103223427D01*
X107713300Y-103230977D01*
X107711268Y-103248340D01*
X107708843Y-103258560D01*
X107709779Y-103265438D01*
X107709779Y-103265439D01*
X107712613Y-103286262D01*
X107713300Y-103296403D01*
X107713300Y-104384239D01*
X107695707Y-104432577D01*
X107691274Y-104437413D01*
X106577413Y-105551274D01*
X106530793Y-105573014D01*
X106524239Y-105573300D01*
X106235700Y-105573300D01*
X106187362Y-105555707D01*
X106161642Y-105511158D01*
X106160500Y-105498100D01*
X106160500Y-104980252D01*
X106148867Y-104921769D01*
X106104552Y-104855448D01*
X106038231Y-104811133D01*
X106030967Y-104809688D01*
X105983373Y-104800221D01*
X105983372Y-104800221D01*
X105979748Y-104799500D01*
X104240252Y-104799500D01*
X104236628Y-104800221D01*
X104236627Y-104800221D01*
X104189033Y-104809688D01*
X104181769Y-104811133D01*
X104115448Y-104855448D01*
X104071133Y-104921769D01*
X104059500Y-104980252D01*
X104059500Y-106719748D01*
X104071133Y-106778231D01*
X104115448Y-106844552D01*
X104181769Y-106888867D01*
X104189033Y-106890312D01*
X104236627Y-106899779D01*
X104240252Y-106900500D01*
X105979748Y-106900500D01*
X105983373Y-106899779D01*
X106030967Y-106890312D01*
X106038231Y-106888867D01*
X106104552Y-106844552D01*
X106148867Y-106778231D01*
X106160500Y-106719748D01*
X106160500Y-106201900D01*
X106178093Y-106153562D01*
X106222642Y-106127842D01*
X106235700Y-106126700D01*
X106351418Y-106126700D01*
X106399756Y-106144293D01*
X106425476Y-106188842D01*
X106421272Y-106223321D01*
X106422644Y-106223647D01*
X106416711Y-106248646D01*
X106413390Y-106259146D01*
X106403868Y-106283014D01*
X106403300Y-106288807D01*
X106403300Y-106296357D01*
X106401268Y-106313720D01*
X106398843Y-106323940D01*
X106399779Y-106330818D01*
X106399779Y-106330819D01*
X106402613Y-106351642D01*
X106403300Y-106361783D01*
X106403300Y-109144239D01*
X106385707Y-109192577D01*
X106381274Y-109197413D01*
X106288874Y-109289813D01*
X106242254Y-109311553D01*
X106192567Y-109298239D01*
X106163062Y-109256102D01*
X106160500Y-109236639D01*
X106160500Y-108880252D01*
X106154986Y-108852532D01*
X106150312Y-108829033D01*
X106148867Y-108821769D01*
X106104552Y-108755448D01*
X106038231Y-108711133D01*
X106030967Y-108709688D01*
X105983373Y-108700221D01*
X105983372Y-108700221D01*
X105979748Y-108699500D01*
X104240252Y-108699500D01*
X104236628Y-108700221D01*
X104236627Y-108700221D01*
X104189033Y-108709688D01*
X104181769Y-108711133D01*
X104115448Y-108755448D01*
X104071133Y-108821769D01*
X104069688Y-108829033D01*
X104065014Y-108852532D01*
X104059500Y-108880252D01*
X104059500Y-110619748D01*
X104071133Y-110678231D01*
X104115448Y-110744552D01*
X104181769Y-110788867D01*
X104189033Y-110790312D01*
X104236627Y-110799779D01*
X104240252Y-110800500D01*
X105979748Y-110800500D01*
X105983373Y-110799779D01*
X106030967Y-110790312D01*
X106038231Y-110788867D01*
X106104552Y-110744552D01*
X106148867Y-110678231D01*
X106160500Y-110619748D01*
X106160500Y-110101900D01*
X106178093Y-110053562D01*
X106222642Y-110027842D01*
X106235700Y-110026700D01*
X106245736Y-110026700D01*
X106249147Y-110026065D01*
X106251310Y-110025865D01*
X106255398Y-110025600D01*
X106281885Y-110024606D01*
X106288265Y-110021865D01*
X106293254Y-110019722D01*
X106309169Y-110014886D01*
X106321337Y-110012620D01*
X106343211Y-109999137D01*
X106352985Y-109994060D01*
X106353126Y-109994000D01*
X106376593Y-109983917D01*
X106381091Y-109980222D01*
X106386429Y-109974884D01*
X106400143Y-109964043D01*
X106403174Y-109962175D01*
X106403175Y-109962174D01*
X106409085Y-109958531D01*
X106426008Y-109936276D01*
X106432693Y-109928620D01*
X106664926Y-109696387D01*
X106711546Y-109674647D01*
X106761233Y-109687961D01*
X106790738Y-109730098D01*
X106793300Y-109749561D01*
X106793300Y-112104239D01*
X106775707Y-112152577D01*
X106771274Y-112157413D01*
X106279549Y-112649138D01*
X106232929Y-112670878D01*
X106183242Y-112657564D01*
X106152620Y-112610636D01*
X106150312Y-112599032D01*
X106150311Y-112599031D01*
X106148867Y-112591769D01*
X106104552Y-112525448D01*
X106038231Y-112481133D01*
X106030967Y-112479688D01*
X105983373Y-112470221D01*
X105983372Y-112470221D01*
X105979748Y-112469500D01*
X104240252Y-112469500D01*
X104236628Y-112470221D01*
X104236627Y-112470221D01*
X104189033Y-112479688D01*
X104181769Y-112481133D01*
X104115448Y-112525448D01*
X104071133Y-112591769D01*
X104059500Y-112650252D01*
X104059500Y-114389748D01*
X103152400Y-114389748D01*
X103152400Y-95885262D01*
X104634520Y-95885262D01*
X104634828Y-95888930D01*
X104634828Y-95888933D01*
X104649751Y-96066639D01*
X104651759Y-96090553D01*
X104708544Y-96288586D01*
X104802712Y-96471818D01*
X104930677Y-96633270D01*
X105087564Y-96766791D01*
X105090765Y-96768580D01*
X105090768Y-96768582D01*
X105264187Y-96865503D01*
X105264192Y-96865505D01*
X105267398Y-96867297D01*
X105463329Y-96930959D01*
X105577143Y-96944530D01*
X105664236Y-96954915D01*
X105664238Y-96954915D01*
X105667894Y-96955351D01*
X105873300Y-96939546D01*
X106042990Y-96892168D01*
X106068180Y-96885135D01*
X106068182Y-96885134D01*
X106071725Y-96884145D01*
X106255610Y-96791258D01*
X106292831Y-96762178D01*
X106415058Y-96666685D01*
X106415062Y-96666681D01*
X106417951Y-96664424D01*
X106552564Y-96508472D01*
X106577899Y-96463874D01*
X106652505Y-96332545D01*
X106652507Y-96332542D01*
X106654323Y-96329344D01*
X106719351Y-96133863D01*
X106742169Y-95953238D01*
X106744907Y-95931565D01*
X106744907Y-95931562D01*
X106745171Y-95929474D01*
X106745583Y-95900000D01*
X106738179Y-95824482D01*
X106725840Y-95698637D01*
X106725839Y-95698632D01*
X106725480Y-95694970D01*
X106665935Y-95497749D01*
X106660577Y-95487671D01*
X106577446Y-95331324D01*
X106569218Y-95315849D01*
X106439011Y-95156200D01*
X106280275Y-95024882D01*
X106099055Y-94926897D01*
X105902254Y-94865977D01*
X105774302Y-94852529D01*
X105701024Y-94844827D01*
X105701022Y-94844827D01*
X105697369Y-94844443D01*
X105618549Y-94851616D01*
X105495861Y-94862781D01*
X105495860Y-94862781D01*
X105492203Y-94863114D01*
X105488678Y-94864151D01*
X105488675Y-94864152D01*
X105298101Y-94920241D01*
X105298098Y-94920242D01*
X105294572Y-94921280D01*
X105291315Y-94922983D01*
X105291312Y-94922984D01*
X105115261Y-95015022D01*
X105112002Y-95016726D01*
X105109136Y-95019030D01*
X105109135Y-95019031D01*
X104954317Y-95143507D01*
X104954314Y-95143510D01*
X104951447Y-95145815D01*
X104949084Y-95148631D01*
X104949081Y-95148634D01*
X104821388Y-95300812D01*
X104821385Y-95300816D01*
X104819024Y-95303630D01*
X104817253Y-95306852D01*
X104817252Y-95306853D01*
X104735017Y-95456438D01*
X104719776Y-95484162D01*
X104693973Y-95565504D01*
X104671127Y-95637525D01*
X104657484Y-95680532D01*
X104634520Y-95885262D01*
X103152400Y-95885262D01*
X103152400Y-94229748D01*
X104639500Y-94229748D01*
X104640221Y-94233372D01*
X104640221Y-94233373D01*
X104649054Y-94277777D01*
X104651133Y-94288231D01*
X104695448Y-94354552D01*
X104761769Y-94398867D01*
X104769033Y-94400312D01*
X104816627Y-94409779D01*
X104820252Y-94410500D01*
X106559748Y-94410500D01*
X106563373Y-94409779D01*
X106610967Y-94400312D01*
X106618231Y-94398867D01*
X106684552Y-94354552D01*
X106728867Y-94288231D01*
X106730947Y-94277777D01*
X106739779Y-94233373D01*
X106739779Y-94233372D01*
X106740500Y-94229748D01*
X106740500Y-92490252D01*
X106731849Y-92446762D01*
X106730312Y-92439033D01*
X106728867Y-92431769D01*
X106684552Y-92365448D01*
X106618231Y-92321133D01*
X106610967Y-92319688D01*
X106563373Y-92310221D01*
X106563372Y-92310221D01*
X106559748Y-92309500D01*
X104820252Y-92309500D01*
X104816628Y-92310221D01*
X104816627Y-92310221D01*
X104769033Y-92319688D01*
X104761769Y-92321133D01*
X104695448Y-92365448D01*
X104651133Y-92431769D01*
X104649688Y-92439033D01*
X104648151Y-92446762D01*
X104639500Y-92490252D01*
X104639500Y-94229748D01*
X103152400Y-94229748D01*
X103152400Y-88699748D01*
X104699500Y-88699748D01*
X104711133Y-88758231D01*
X104755448Y-88824552D01*
X104821769Y-88868867D01*
X104829033Y-88870312D01*
X104876627Y-88879779D01*
X104880252Y-88880500D01*
X106619748Y-88880500D01*
X106623373Y-88879779D01*
X106670967Y-88870312D01*
X106678231Y-88868867D01*
X106744552Y-88824552D01*
X106788867Y-88758231D01*
X106800500Y-88699748D01*
X106800500Y-86960252D01*
X106795500Y-86935116D01*
X106790312Y-86909033D01*
X106788867Y-86901769D01*
X106744552Y-86835448D01*
X106678231Y-86791133D01*
X106670967Y-86789688D01*
X106623373Y-86780221D01*
X106623372Y-86780221D01*
X106619748Y-86779500D01*
X104880252Y-86779500D01*
X104876628Y-86780221D01*
X104876627Y-86780221D01*
X104829033Y-86789688D01*
X104821769Y-86791133D01*
X104755448Y-86835448D01*
X104711133Y-86901769D01*
X104709688Y-86909033D01*
X104704500Y-86935116D01*
X104699500Y-86960252D01*
X104699500Y-88699748D01*
X103152400Y-88699748D01*
X103152400Y-82220000D01*
X121274318Y-82220000D01*
X121294956Y-82376762D01*
X121355464Y-82522841D01*
X121451718Y-82648282D01*
X121455625Y-82651280D01*
X121482391Y-82671818D01*
X121577159Y-82744536D01*
X121723238Y-82805044D01*
X121728116Y-82805686D01*
X121728119Y-82805687D01*
X121875116Y-82825039D01*
X121880000Y-82825682D01*
X121884884Y-82825039D01*
X122031881Y-82805687D01*
X122031884Y-82805686D01*
X122036762Y-82805044D01*
X122182841Y-82744536D01*
X122277609Y-82671818D01*
X122304375Y-82651280D01*
X122308282Y-82648282D01*
X122402019Y-82526121D01*
X122445403Y-82498483D01*
X122461679Y-82496700D01*
X123550050Y-82496700D01*
X123554711Y-82497042D01*
X123558879Y-82498473D01*
X123604695Y-82496753D01*
X123607516Y-82496700D01*
X123625736Y-82496700D01*
X123629147Y-82496065D01*
X123631310Y-82495865D01*
X123635398Y-82495600D01*
X123661885Y-82494606D01*
X123668265Y-82491865D01*
X123673254Y-82489722D01*
X123689169Y-82484886D01*
X123701337Y-82482620D01*
X123723211Y-82469137D01*
X123732985Y-82464060D01*
X123733126Y-82464000D01*
X123756593Y-82453917D01*
X123761091Y-82450222D01*
X123766429Y-82444884D01*
X123780143Y-82434043D01*
X123783174Y-82432175D01*
X123783175Y-82432174D01*
X123789085Y-82428531D01*
X123806008Y-82406276D01*
X123812693Y-82398620D01*
X125200337Y-81010976D01*
X125203876Y-81007921D01*
X125207833Y-81005987D01*
X125239020Y-80972367D01*
X125240977Y-80970336D01*
X125253855Y-80957458D01*
X125255816Y-80954600D01*
X125257210Y-80952922D01*
X125259914Y-80949843D01*
X125273213Y-80935507D01*
X125273214Y-80935505D01*
X125277935Y-80930416D01*
X125282520Y-80918922D01*
X125290355Y-80904251D01*
X125293429Y-80899770D01*
X125297357Y-80894044D01*
X125303289Y-80869045D01*
X125306611Y-80858542D01*
X125314165Y-80839609D01*
X125314167Y-80839601D01*
X125316132Y-80834676D01*
X125316700Y-80828883D01*
X125316700Y-80821332D01*
X125318732Y-80803969D01*
X125319554Y-80800504D01*
X125321157Y-80793750D01*
X125317387Y-80766048D01*
X125316700Y-80755907D01*
X125316700Y-77515761D01*
X125334293Y-77467423D01*
X125338726Y-77462587D01*
X126232587Y-76568726D01*
X126279207Y-76546986D01*
X126285761Y-76546700D01*
X130858321Y-76546700D01*
X130906659Y-76564293D01*
X130917980Y-76576120D01*
X131011718Y-76698282D01*
X131137159Y-76794536D01*
X131283238Y-76855044D01*
X131288116Y-76855686D01*
X131288119Y-76855687D01*
X131435116Y-76875039D01*
X131440000Y-76875682D01*
X131444884Y-76875039D01*
X131591881Y-76855687D01*
X131591884Y-76855686D01*
X131596762Y-76855044D01*
X131742841Y-76794536D01*
X131868282Y-76698282D01*
X131964536Y-76572841D01*
X132025044Y-76426762D01*
X132045682Y-76270000D01*
X132025044Y-76113238D01*
X131964536Y-75967159D01*
X131868282Y-75841718D01*
X131742841Y-75745464D01*
X131596762Y-75684956D01*
X131591884Y-75684314D01*
X131591881Y-75684313D01*
X131444884Y-75664961D01*
X131440000Y-75664318D01*
X131435116Y-75664961D01*
X131288119Y-75684313D01*
X131288116Y-75684314D01*
X131283238Y-75684956D01*
X131137159Y-75745464D01*
X131011718Y-75841718D01*
X131008720Y-75845625D01*
X130917981Y-75963879D01*
X130874597Y-75991517D01*
X130858321Y-75993300D01*
X126189950Y-75993300D01*
X126185289Y-75992958D01*
X126181121Y-75991527D01*
X126135305Y-75993247D01*
X126132484Y-75993300D01*
X126114264Y-75993300D01*
X126110853Y-75993935D01*
X126108690Y-75994135D01*
X126104602Y-75994400D01*
X126078115Y-75995394D01*
X126071735Y-75998135D01*
X126066746Y-76000278D01*
X126050832Y-76005114D01*
X126038663Y-76007380D01*
X126016789Y-76020863D01*
X126007015Y-76025940D01*
X125983407Y-76036083D01*
X125978909Y-76039778D01*
X125973571Y-76045116D01*
X125959857Y-76055957D01*
X125956826Y-76057825D01*
X125956825Y-76057826D01*
X125950915Y-76061469D01*
X125933992Y-76083724D01*
X125927307Y-76091380D01*
X124879663Y-77139024D01*
X124876124Y-77142079D01*
X124872167Y-77144013D01*
X124867448Y-77149100D01*
X124867447Y-77149101D01*
X124840981Y-77177632D01*
X124839023Y-77179664D01*
X124826145Y-77192542D01*
X124824184Y-77195400D01*
X124822790Y-77197078D01*
X124820086Y-77200157D01*
X124806787Y-77214493D01*
X124806786Y-77214495D01*
X124802065Y-77219584D01*
X124797479Y-77231081D01*
X124789644Y-77245752D01*
X124782644Y-77255956D01*
X124776711Y-77280956D01*
X124773390Y-77291456D01*
X124763868Y-77315324D01*
X124763300Y-77321117D01*
X124763300Y-77328667D01*
X124761268Y-77346030D01*
X124758843Y-77356250D01*
X124759779Y-77363128D01*
X124759779Y-77363129D01*
X124762613Y-77383952D01*
X124763300Y-77394093D01*
X124763300Y-80634239D01*
X124745707Y-80682577D01*
X124741274Y-80687413D01*
X123507413Y-81921274D01*
X123460793Y-81943014D01*
X123454239Y-81943300D01*
X122461679Y-81943300D01*
X122413341Y-81925707D01*
X122402019Y-81913879D01*
X122311280Y-81795625D01*
X122308282Y-81791718D01*
X122182841Y-81695464D01*
X122036762Y-81634956D01*
X122031884Y-81634314D01*
X122031881Y-81634313D01*
X121884884Y-81614961D01*
X121880000Y-81614318D01*
X121875116Y-81614961D01*
X121728119Y-81634313D01*
X121728116Y-81634314D01*
X121723238Y-81634956D01*
X121577159Y-81695464D01*
X121451718Y-81791718D01*
X121355464Y-81917159D01*
X121294956Y-82063238D01*
X121274318Y-82220000D01*
X103152400Y-82220000D01*
X103152400Y-74029962D01*
X103154961Y-74010505D01*
X103157776Y-74000000D01*
X103155214Y-73990437D01*
X103155214Y-73984413D01*
X103153811Y-73971272D01*
X103154345Y-73960419D01*
X103168917Y-73663782D01*
X103170746Y-73626562D01*
X103171469Y-73619218D01*
X103201020Y-73420000D01*
X104024754Y-73420000D01*
X104043720Y-73721457D01*
X104044164Y-73723782D01*
X104099874Y-74015830D01*
X104099876Y-74015838D01*
X104100319Y-74018160D01*
X104101053Y-74020419D01*
X104174860Y-74247572D01*
X104193659Y-74305430D01*
X104322267Y-74578736D01*
X104323540Y-74580741D01*
X104323540Y-74580742D01*
X104447192Y-74775586D01*
X104484115Y-74833768D01*
X104485619Y-74835586D01*
X104675148Y-75064688D01*
X104675154Y-75064694D01*
X104676651Y-75066504D01*
X104678365Y-75068113D01*
X104678371Y-75068120D01*
X104831216Y-75211651D01*
X104896838Y-75273274D01*
X105141205Y-75450816D01*
X105143279Y-75451956D01*
X105403820Y-75595191D01*
X105403824Y-75595193D01*
X105405896Y-75596332D01*
X105408096Y-75597203D01*
X105408098Y-75597204D01*
X105684543Y-75706656D01*
X105686738Y-75707525D01*
X105689028Y-75708113D01*
X105977010Y-75782054D01*
X105977017Y-75782055D01*
X105979302Y-75782642D01*
X106278973Y-75820500D01*
X106581027Y-75820500D01*
X106880698Y-75782642D01*
X106882983Y-75782055D01*
X106882990Y-75782054D01*
X107170972Y-75708113D01*
X107173262Y-75707525D01*
X107175457Y-75706656D01*
X107451902Y-75597204D01*
X107451904Y-75597203D01*
X107454104Y-75596332D01*
X107456176Y-75595193D01*
X107456180Y-75595191D01*
X107716721Y-75451956D01*
X107718795Y-75450816D01*
X107963162Y-75273274D01*
X108028784Y-75211651D01*
X108181629Y-75068120D01*
X108181635Y-75068113D01*
X108183349Y-75066504D01*
X108184846Y-75064694D01*
X108184852Y-75064688D01*
X108374381Y-74835586D01*
X108375885Y-74833768D01*
X108412809Y-74775586D01*
X108536460Y-74580742D01*
X108536460Y-74580741D01*
X108537733Y-74578736D01*
X108666341Y-74305430D01*
X108685141Y-74247572D01*
X108758947Y-74020419D01*
X108759681Y-74018160D01*
X108760124Y-74015838D01*
X108760126Y-74015830D01*
X108815836Y-73723782D01*
X108816280Y-73721457D01*
X108835246Y-73420000D01*
X108831471Y-73360000D01*
X151184754Y-73360000D01*
X151203720Y-73661457D01*
X151204164Y-73663782D01*
X151259874Y-73955830D01*
X151259876Y-73955838D01*
X151260319Y-73958160D01*
X151353659Y-74245430D01*
X151482267Y-74518736D01*
X151644115Y-74773768D01*
X151645619Y-74775586D01*
X151835148Y-75004688D01*
X151835154Y-75004694D01*
X151836651Y-75006504D01*
X151838365Y-75008113D01*
X151838371Y-75008120D01*
X151898610Y-75064688D01*
X152056838Y-75213274D01*
X152301205Y-75390816D01*
X152303279Y-75391956D01*
X152563820Y-75535191D01*
X152563824Y-75535193D01*
X152565896Y-75536332D01*
X152846738Y-75647525D01*
X152849028Y-75648113D01*
X153137010Y-75722054D01*
X153137017Y-75722055D01*
X153139302Y-75722642D01*
X153438973Y-75760500D01*
X153741027Y-75760500D01*
X154040698Y-75722642D01*
X154042983Y-75722055D01*
X154042990Y-75722054D01*
X154330972Y-75648113D01*
X154333262Y-75647525D01*
X154614104Y-75536332D01*
X154616176Y-75535193D01*
X154616180Y-75535191D01*
X154876721Y-75391956D01*
X154878795Y-75390816D01*
X155123162Y-75213274D01*
X155281390Y-75064688D01*
X155341629Y-75008120D01*
X155341635Y-75008113D01*
X155343349Y-75006504D01*
X155344846Y-75004694D01*
X155344852Y-75004688D01*
X155534381Y-74775586D01*
X155535885Y-74773768D01*
X155697733Y-74518736D01*
X155826341Y-74245430D01*
X155919681Y-73958160D01*
X155920124Y-73955838D01*
X155920126Y-73955830D01*
X155975836Y-73663782D01*
X155976280Y-73661457D01*
X155995246Y-73360000D01*
X155976280Y-73058543D01*
X155930696Y-72819581D01*
X155920126Y-72764170D01*
X155920124Y-72764162D01*
X155919681Y-72761840D01*
X155845836Y-72534570D01*
X155827074Y-72476825D01*
X155827072Y-72476821D01*
X155826341Y-72474570D01*
X155697733Y-72201264D01*
X155573962Y-72006232D01*
X155537152Y-71948228D01*
X155537150Y-71948225D01*
X155535885Y-71946232D01*
X155394488Y-71775312D01*
X155344852Y-71715312D01*
X155344846Y-71715306D01*
X155343349Y-71713496D01*
X155341635Y-71711887D01*
X155341629Y-71711880D01*
X155124890Y-71508349D01*
X155123162Y-71506726D01*
X154878795Y-71329184D01*
X154772599Y-71270802D01*
X154616180Y-71184809D01*
X154616176Y-71184807D01*
X154614104Y-71183668D01*
X154333262Y-71072475D01*
X154273232Y-71057062D01*
X154042990Y-70997946D01*
X154042983Y-70997945D01*
X154040698Y-70997358D01*
X153741027Y-70959500D01*
X153438973Y-70959500D01*
X153139302Y-70997358D01*
X153137017Y-70997945D01*
X153137010Y-70997946D01*
X152906768Y-71057062D01*
X152846738Y-71072475D01*
X152565896Y-71183668D01*
X152563824Y-71184807D01*
X152563820Y-71184809D01*
X152407401Y-71270802D01*
X152301205Y-71329184D01*
X152056838Y-71506726D01*
X152055110Y-71508349D01*
X151838371Y-71711880D01*
X151838365Y-71711887D01*
X151836651Y-71713496D01*
X151835154Y-71715306D01*
X151835148Y-71715312D01*
X151785512Y-71775312D01*
X151644115Y-71946232D01*
X151642850Y-71948225D01*
X151642848Y-71948228D01*
X151606038Y-72006232D01*
X151482267Y-72201264D01*
X151353659Y-72474570D01*
X151352928Y-72476821D01*
X151352926Y-72476825D01*
X151334164Y-72534570D01*
X151260319Y-72761840D01*
X151259876Y-72764162D01*
X151259874Y-72764170D01*
X151249304Y-72819581D01*
X151203720Y-73058543D01*
X151184754Y-73360000D01*
X108831471Y-73360000D01*
X108816280Y-73118543D01*
X108789251Y-72976853D01*
X108760126Y-72824170D01*
X108760124Y-72824162D01*
X108759681Y-72821840D01*
X108666341Y-72534570D01*
X108537733Y-72261264D01*
X108375885Y-72006232D01*
X108256887Y-71862388D01*
X108184852Y-71775312D01*
X108184846Y-71775306D01*
X108183349Y-71773496D01*
X108181635Y-71771887D01*
X108181629Y-71771880D01*
X107964890Y-71568349D01*
X107963162Y-71566726D01*
X107718795Y-71389184D01*
X107523962Y-71282073D01*
X107456180Y-71244809D01*
X107456176Y-71244807D01*
X107454104Y-71243668D01*
X107173262Y-71132475D01*
X107170972Y-71131887D01*
X106882990Y-71057946D01*
X106882983Y-71057945D01*
X106880698Y-71057358D01*
X106581027Y-71019500D01*
X106278973Y-71019500D01*
X105979302Y-71057358D01*
X105977017Y-71057945D01*
X105977010Y-71057946D01*
X105689028Y-71131887D01*
X105686738Y-71132475D01*
X105405896Y-71243668D01*
X105403824Y-71244807D01*
X105403820Y-71244809D01*
X105336038Y-71282073D01*
X105141205Y-71389184D01*
X104896838Y-71566726D01*
X104895110Y-71568349D01*
X104678371Y-71771880D01*
X104678365Y-71771887D01*
X104676651Y-71773496D01*
X104675154Y-71775306D01*
X104675148Y-71775312D01*
X104603113Y-71862388D01*
X104484115Y-72006232D01*
X104322267Y-72261264D01*
X104193659Y-72534570D01*
X104100319Y-72821840D01*
X104099876Y-72824162D01*
X104099874Y-72824170D01*
X104070749Y-72976853D01*
X104043720Y-73118543D01*
X104024754Y-73420000D01*
X103201020Y-73420000D01*
X103204473Y-73396725D01*
X103225790Y-73253017D01*
X103227229Y-73245784D01*
X103317178Y-72886687D01*
X103319320Y-72879625D01*
X103391628Y-72677536D01*
X103444037Y-72531063D01*
X103446860Y-72524248D01*
X103605140Y-72189595D01*
X103608619Y-72183086D01*
X103798942Y-71865551D01*
X103803042Y-71859416D01*
X104023570Y-71562068D01*
X104028240Y-71556377D01*
X104276858Y-71282070D01*
X104282073Y-71276855D01*
X104556377Y-71028240D01*
X104562068Y-71023570D01*
X104859418Y-70803040D01*
X104865551Y-70798942D01*
X105183086Y-70608619D01*
X105189595Y-70605140D01*
X105335109Y-70536316D01*
X105524252Y-70446858D01*
X105531063Y-70444037D01*
X105677536Y-70391628D01*
X105879625Y-70319320D01*
X105886687Y-70317178D01*
X106066236Y-70272203D01*
X106245789Y-70227228D01*
X106253017Y-70225790D01*
X106396725Y-70204473D01*
X106619218Y-70171469D01*
X106626562Y-70170746D01*
X106812587Y-70161607D01*
X106971274Y-70153811D01*
X106984413Y-70155214D01*
X106990437Y-70155214D01*
X107000000Y-70157776D01*
X107010505Y-70154961D01*
X107029962Y-70152400D01*
X152970038Y-70152400D01*
X152989495Y-70154961D01*
G37*
G04 #@! TD.AperFunction*
G04 #@! TA.AperFunction,Conductor*
G36*
X137257047Y-102998093D02*
G01*
X137282767Y-103042642D01*
X137273834Y-103093300D01*
X137254488Y-103115360D01*
X137151718Y-103194218D01*
X137148720Y-103198125D01*
X137129305Y-103223427D01*
X137055464Y-103319659D01*
X136994956Y-103465738D01*
X136994314Y-103470616D01*
X136994313Y-103470619D01*
X136983508Y-103552693D01*
X136974318Y-103622500D01*
X136974961Y-103627384D01*
X136992922Y-103763810D01*
X136994956Y-103779262D01*
X137055464Y-103925341D01*
X137058462Y-103929248D01*
X137136372Y-104030782D01*
X137151718Y-104050782D01*
X137267990Y-104140000D01*
X137273879Y-104144519D01*
X137301517Y-104187903D01*
X137303300Y-104204179D01*
X137303300Y-108674239D01*
X137285707Y-108722577D01*
X137281274Y-108727413D01*
X136727413Y-109281274D01*
X136680793Y-109303014D01*
X136674239Y-109303300D01*
X125051679Y-109303300D01*
X125003341Y-109285707D01*
X124992019Y-109273879D01*
X124967486Y-109241907D01*
X124898282Y-109151718D01*
X124894569Y-109148869D01*
X124872868Y-109102333D01*
X124886182Y-109052646D01*
X124902001Y-109036121D01*
X124938282Y-109008282D01*
X125032019Y-108886121D01*
X125075403Y-108858483D01*
X125091679Y-108856700D01*
X134840050Y-108856700D01*
X134844711Y-108857042D01*
X134848879Y-108858473D01*
X134894695Y-108856753D01*
X134897516Y-108856700D01*
X134915736Y-108856700D01*
X134919147Y-108856065D01*
X134921310Y-108855865D01*
X134925398Y-108855600D01*
X134951885Y-108854606D01*
X134958265Y-108851865D01*
X134963254Y-108849722D01*
X134979169Y-108844886D01*
X134991337Y-108842620D01*
X135013211Y-108829137D01*
X135022985Y-108824060D01*
X135028317Y-108821769D01*
X135046593Y-108813917D01*
X135051091Y-108810222D01*
X135056429Y-108804884D01*
X135070143Y-108794043D01*
X135073174Y-108792175D01*
X135073175Y-108792174D01*
X135079085Y-108788531D01*
X135096009Y-108766274D01*
X135102695Y-108758617D01*
X135720333Y-108140979D01*
X135723874Y-108137922D01*
X135727833Y-108135987D01*
X135759032Y-108102354D01*
X135760989Y-108100323D01*
X135773854Y-108087458D01*
X135775814Y-108084601D01*
X135777199Y-108082934D01*
X135779903Y-108079855D01*
X135793214Y-108065505D01*
X135797935Y-108060416D01*
X135802523Y-108048916D01*
X135810356Y-108034248D01*
X135813429Y-108029769D01*
X135813430Y-108029768D01*
X135817356Y-108024044D01*
X135823289Y-107999043D01*
X135826610Y-107988544D01*
X135834164Y-107969608D01*
X135836132Y-107964676D01*
X135836700Y-107958883D01*
X135836700Y-107951333D01*
X135838732Y-107933970D01*
X135839554Y-107930505D01*
X135841157Y-107923750D01*
X135837387Y-107896048D01*
X135836700Y-107885907D01*
X135836700Y-104184179D01*
X135854293Y-104135841D01*
X135866121Y-104124519D01*
X135984375Y-104033780D01*
X135988282Y-104030782D01*
X136084536Y-103905341D01*
X136145044Y-103759262D01*
X136148331Y-103734300D01*
X136165039Y-103607384D01*
X136165682Y-103602500D01*
X136159125Y-103552693D01*
X136145687Y-103450619D01*
X136145686Y-103450616D01*
X136145044Y-103445738D01*
X136084536Y-103299659D01*
X136025396Y-103222586D01*
X135991280Y-103178125D01*
X135988282Y-103174218D01*
X135920092Y-103121894D01*
X135911577Y-103115360D01*
X135883939Y-103071976D01*
X135890653Y-103020976D01*
X135928578Y-102986224D01*
X135957356Y-102980500D01*
X137208709Y-102980500D01*
X137257047Y-102998093D01*
G37*
G04 #@! TD.AperFunction*
M02*
