M48
; DRILL file {KiCad (6.0.4)} date Mon Apr 25 08:49:58 2022
; FORMAT={-:-/ absolute / inch / decimal}
; #@! TF.CreationDate,2022-04-25T08:49:58+03:00
; #@! TF.GenerationSoftware,Kicad,Pcbnew,(6.0.4)
; #@! TF.FileFunction,Plated,1,2,PTH
FMAT,2
INCH
; #@! TA.AperFunction,Plated,PTH,ViaDrill
T1C0.0157
; #@! TA.AperFunction,Plated,PTH,ComponentDrill
T2C0.0157
; #@! TA.AperFunction,Plated,PTH,ComponentDrill
T3C0.0394
; #@! TA.AperFunction,Plated,PTH,ComponentDrill
T4C0.0787
; #@! TA.AperFunction,Plated,PTH,ComponentDrill
T5C0.0866
%
G90
G05
T1
X4.0831Y-3.5583
X4.0835Y-3.9169
X4.1193Y-3.5602
X4.1193Y-3.9177
X4.1559Y-3.5614
X4.1567Y-3.9157
X4.1929Y-3.5622
X4.1929Y-3.9161
X4.2287Y-3.5614
X4.2291Y-3.9169
X4.2646Y-3.5606
X4.2646Y-3.9177
X4.2992Y-3.9173
X4.3008Y-3.5622
X4.3343Y-3.9177
X4.3386Y-3.563
X4.3689Y-3.9181
X4.4035Y-3.9185
X4.4386Y-3.9181
X4.4433Y-3.5614
X4.4744Y-3.9185
X4.4772Y-3.5618
X4.4858Y-3.4211
X4.5787Y-3.8575
X4.6587Y-3.2786
X4.6835Y-3.5457
X4.7392Y-3.8264
X4.7394Y-3.911
X4.7508Y-3.5284
X4.7835Y-3.4752
X4.7909Y-3.9075
X4.7917Y-3.8264
X4.7984Y-3.237
X4.8512Y-3.6307
X4.8937Y-2.937
X4.8957Y-4.3532
X4.9004Y-4.3142
X4.9008Y-3.3677
X4.902Y-4.2748
X4.9134Y-3.0
X4.9539Y-3.0866
X5.0492Y-3.661
X5.1736Y-3.0917
X5.1748Y-3.0028
X5.1992Y-3.487
X5.1992Y-3.5248
X5.1996Y-3.5669
X5.237Y-3.5248
X5.2374Y-3.4882
X5.2406Y-3.5669
X5.2547Y-3.3382
X5.2567Y-4.0032
X5.2768Y-3.4878
X5.2768Y-3.5232
X5.2787Y-3.5689
X5.2909Y-3.7839
X5.3056Y-3.7473
X5.337Y-4.0788
X5.3429Y-3.7598
X5.3524Y-3.7189
X5.3701Y-4.2795
X5.4165Y-4.0796
X5.4268Y-3.8886
X5.4528Y-2.9134
X5.4528Y-2.9528
X5.4528Y-2.9921
X5.4543Y-3.2894
X5.4563Y-3.2118
X5.5028Y-3.4228
X5.578Y-3.4228
X5.5803Y-3.5638
X5.6433Y-3.6335
X5.7362Y-4.0114
X5.7374Y-3.9181
X5.8016Y-4.226
X5.815Y-3.2783
X5.833Y-3.824
X5.8728Y-3.0461
X5.9496Y-4.1
X6.0252Y-3.9937
T2
X4.1252Y-2.8906
X4.1307Y-4.9016
X4.1442Y-2.8446
X4.1442Y-2.9365
X4.1497Y-4.8556
X4.1497Y-4.9475
X4.1902Y-2.8256
X4.1902Y-2.9555
X4.1957Y-4.8366
X4.1957Y-4.9665
X4.2361Y-2.8446
X4.2361Y-2.9365
X4.2416Y-4.8556
X4.2416Y-4.9475
X4.2551Y-2.8906
X4.2606Y-4.9016
X5.9819Y-2.8882
X5.9819Y-4.9016
X6.0009Y-2.8423
X6.0009Y-2.9341
X6.0009Y-4.8556
X6.0009Y-4.9475
X6.0469Y-2.8232
X6.0469Y-2.9531
X6.0469Y-4.8366
X6.0469Y-4.9665
X6.0928Y-2.8423
X6.0928Y-2.9341
X6.0928Y-4.8556
X6.0928Y-4.9475
X6.1118Y-2.8882
X6.1118Y-4.9016
T3
X4.1382Y-4.1673
X4.1382Y-4.3209
X4.1382Y-4.4693
X4.1398Y-4.0142
X4.161Y-3.6756
X4.161Y-3.7756
X4.1634Y-3.4579
X4.2898Y-4.3193
X4.2898Y-4.4724
X4.9783Y-4.5591
X4.9783Y-4.6575
X4.9783Y-4.7559
X5.5492Y-4.5591
X5.5492Y-4.7559
T5
X4.1902Y-2.8906
X4.1957Y-4.9016
X6.0469Y-2.8882
X6.0469Y-4.9016
T3
G00X5.8224Y-4.5819
M15
G01X5.8224Y-4.5031
M16
G05
G00X5.9799Y-4.3575
M15
G01X5.9012Y-4.3575
M16
G05
G00X6.0587Y-4.5819
M15
G01X6.0587Y-4.5031
M16
G05
T4
G00X5.2638Y-4.437
M15
G01X5.2835Y-4.437
M16
G05
G00X5.2638Y-4.878
M15
G01X5.2835Y-4.878
M16
G05
T0
M30
