G04 #@! TF.GenerationSoftware,KiCad,Pcbnew,(6.0.4)*
G04 #@! TF.CreationDate,2022-08-17T14:13:50+03:00*
G04 #@! TF.ProjectId,ReflowController-v1,5265666c-6f77-4436-9f6e-74726f6c6c65,rev?*
G04 #@! TF.SameCoordinates,Original*
G04 #@! TF.FileFunction,Soldermask,Top*
G04 #@! TF.FilePolarity,Negative*
%FSLAX46Y46*%
G04 Gerber Fmt 4.6, Leading zero omitted, Abs format (unit mm)*
G04 Created by KiCad (PCBNEW (6.0.4)) date 2022-08-17 14:13:50*
%MOMM*%
%LPD*%
G01*
G04 APERTURE LIST*
G04 Aperture macros list*
%AMRoundRect*
0 Rectangle with rounded corners*
0 $1 Rounding radius*
0 $2 $3 $4 $5 $6 $7 $8 $9 X,Y pos of 4 corners*
0 Add a 4 corners polygon primitive as box body*
4,1,4,$2,$3,$4,$5,$6,$7,$8,$9,$2,$3,0*
0 Add four circle primitives for the rounded corners*
1,1,$1+$1,$2,$3*
1,1,$1+$1,$4,$5*
1,1,$1+$1,$6,$7*
1,1,$1+$1,$8,$9*
0 Add four rect primitives between the rounded corners*
20,1,$1+$1,$2,$3,$4,$5,0*
20,1,$1+$1,$4,$5,$6,$7,0*
20,1,$1+$1,$6,$7,$8,$9,0*
20,1,$1+$1,$8,$9,$2,$3,0*%
G04 Aperture macros list end*
%ADD10RoundRect,0.250000X0.250000X0.475000X-0.250000X0.475000X-0.250000X-0.475000X0.250000X-0.475000X0*%
%ADD11RoundRect,0.250000X0.475000X-0.250000X0.475000X0.250000X-0.475000X0.250000X-0.475000X-0.250000X0*%
%ADD12C,4.400000*%
%ADD13C,0.700000*%
%ADD14RoundRect,0.250000X-0.250000X-0.475000X0.250000X-0.475000X0.250000X0.475000X-0.250000X0.475000X0*%
%ADD15R,1.700000X1.700000*%
%ADD16R,0.812800X0.177800*%
%ADD17R,0.177800X0.812800*%
%ADD18R,3.200400X3.200400*%
%ADD19RoundRect,0.150000X-0.512500X-0.150000X0.512500X-0.150000X0.512500X0.150000X-0.512500X0.150000X0*%
%ADD20RoundRect,0.250000X0.262500X0.450000X-0.262500X0.450000X-0.262500X-0.450000X0.262500X-0.450000X0*%
%ADD21R,0.350000X1.600000*%
%ADD22RoundRect,0.250000X-0.450000X0.262500X-0.450000X-0.262500X0.450000X-0.262500X0.450000X0.262500X0*%
%ADD23RoundRect,0.250000X-0.475000X0.250000X-0.475000X-0.250000X0.475000X-0.250000X0.475000X0.250000X0*%
%ADD24C,2.000000*%
%ADD25R,1.400000X0.400000*%
%ADD26R,1.900000X2.300000*%
%ADD27R,1.900000X1.800000*%
%ADD28RoundRect,0.150000X0.650000X0.150000X-0.650000X0.150000X-0.650000X-0.150000X0.650000X-0.150000X0*%
%ADD29RoundRect,0.243750X0.243750X0.456250X-0.243750X0.456250X-0.243750X-0.456250X0.243750X-0.456250X0*%
%ADD30R,1.600000X2.180000*%
%ADD31RoundRect,0.250000X0.450000X-0.262500X0.450000X0.262500X-0.450000X0.262500X-0.450000X-0.262500X0*%
%ADD32R,3.500000X3.500000*%
%ADD33RoundRect,0.750000X0.750000X1.000000X-0.750000X1.000000X-0.750000X-1.000000X0.750000X-1.000000X0*%
%ADD34RoundRect,0.875000X0.875000X0.875000X-0.875000X0.875000X-0.875000X-0.875000X0.875000X-0.875000X0*%
%ADD35R,1.300000X1.600000*%
%ADD36RoundRect,0.150000X0.587500X0.150000X-0.587500X0.150000X-0.587500X-0.150000X0.587500X-0.150000X0*%
%ADD37RoundRect,0.250000X-0.262500X-0.450000X0.262500X-0.450000X0.262500X0.450000X-0.262500X0.450000X0*%
%ADD38R,1.460500X0.533400*%
%ADD39O,1.700000X1.700000*%
%ADD40R,2.000000X2.000000*%
%ADD41R,3.000000X2.500000*%
G04 APERTURE END LIST*
D10*
X146540000Y-92250000D03*
X144640000Y-92250000D03*
D11*
X137910000Y-98750000D03*
X137910000Y-96850000D03*
D12*
X153590000Y-73360000D03*
D13*
X153590000Y-75010000D03*
X151940000Y-73360000D03*
X155240000Y-73360000D03*
X154756726Y-74526726D03*
X153590000Y-71710000D03*
X152423274Y-74526726D03*
X154756726Y-72193274D03*
X152423274Y-72193274D03*
X106570000Y-122850000D03*
X108220000Y-124500000D03*
X105403274Y-125666726D03*
X107736726Y-125666726D03*
D12*
X106570000Y-124500000D03*
D13*
X105403274Y-123333274D03*
X107736726Y-123333274D03*
X104920000Y-124500000D03*
X106570000Y-126150000D03*
D14*
X139790000Y-92710000D03*
X141690000Y-92710000D03*
D11*
X126800000Y-92450000D03*
X126800000Y-90550000D03*
D15*
X108960000Y-109710000D03*
D16*
X129636400Y-86950000D03*
X129636400Y-87349999D03*
X129636400Y-87750001D03*
X129636400Y-88150000D03*
X129636400Y-88549999D03*
X129636400Y-88950001D03*
X129636400Y-89350000D03*
X129636400Y-89750000D03*
X129636400Y-90149999D03*
X129636400Y-90550001D03*
X129636400Y-90950000D03*
X129636400Y-91349999D03*
X129636400Y-91750001D03*
X129636400Y-92150000D03*
D17*
X130440000Y-92953600D03*
X130839999Y-92953600D03*
X131240001Y-92953600D03*
X131640000Y-92953600D03*
X132039999Y-92953600D03*
X132440001Y-92953600D03*
X132840000Y-92953600D03*
X133240000Y-92953600D03*
X133639999Y-92953600D03*
X134040001Y-92953600D03*
X134440000Y-92953600D03*
X134839999Y-92953600D03*
X135240001Y-92953600D03*
X135640000Y-92953600D03*
D16*
X136443600Y-92150000D03*
X136443600Y-91750001D03*
X136443600Y-91349999D03*
X136443600Y-90950000D03*
X136443600Y-90550001D03*
X136443600Y-90149999D03*
X136443600Y-89750000D03*
X136443600Y-89350000D03*
X136443600Y-88950001D03*
X136443600Y-88549999D03*
X136443600Y-88150000D03*
X136443600Y-87750001D03*
X136443600Y-87349999D03*
X136443600Y-86950000D03*
D17*
X135640000Y-86146400D03*
X135240001Y-86146400D03*
X134839999Y-86146400D03*
X134440000Y-86146400D03*
X134040001Y-86146400D03*
X133639999Y-86146400D03*
X133240000Y-86146400D03*
X132840000Y-86146400D03*
X132440001Y-86146400D03*
X132039999Y-86146400D03*
X131640000Y-86146400D03*
X131240001Y-86146400D03*
X130839999Y-86146400D03*
X130440000Y-86146400D03*
D18*
X133040000Y-89550000D03*
D10*
X141670000Y-86940000D03*
X139770000Y-86940000D03*
D11*
X143350000Y-79840000D03*
X143350000Y-77940000D03*
D19*
X147692500Y-79850000D03*
X147692500Y-80800000D03*
X147692500Y-81750000D03*
X149967500Y-81750000D03*
X149967500Y-79850000D03*
D20*
X117752500Y-88720000D03*
X115927500Y-88720000D03*
D21*
X122140000Y-106620000D03*
X122840000Y-106620000D03*
X123540000Y-106620000D03*
X124240000Y-106620000D03*
X124940000Y-106620000D03*
X125640000Y-106620000D03*
X126340000Y-106620000D03*
X127040000Y-106620000D03*
X127740000Y-106620000D03*
X128440000Y-106620000D03*
X129140000Y-106620000D03*
X129840000Y-106620000D03*
X130540000Y-106620000D03*
X131240000Y-106620000D03*
X131940000Y-106620000D03*
X132640000Y-106620000D03*
X133340000Y-106620000D03*
X134040000Y-106620000D03*
X134740000Y-106620000D03*
X135440000Y-106620000D03*
X136140000Y-106620000D03*
X136840000Y-106620000D03*
X137540000Y-106620000D03*
X138240000Y-106620000D03*
X138940000Y-106620000D03*
X139640000Y-106620000D03*
X140340000Y-106620000D03*
X141040000Y-106620000D03*
X141740000Y-106620000D03*
X142440000Y-106620000D03*
D22*
X131430000Y-101787500D03*
X131430000Y-103612500D03*
X109950000Y-83277500D03*
X109950000Y-85102500D03*
D23*
X116300000Y-97980000D03*
X116300000Y-99880000D03*
D24*
X151070000Y-104160000D03*
D25*
X150600000Y-90800000D03*
X150600000Y-90150000D03*
X150600000Y-89500000D03*
X150600000Y-88850000D03*
X150600000Y-88200000D03*
D26*
X153450000Y-85750000D03*
X153450000Y-93250000D03*
D27*
X153450000Y-90650000D03*
X153450000Y-88350000D03*
D28*
X136830000Y-78315000D03*
X136830000Y-77045000D03*
X136830000Y-75775000D03*
X136830000Y-74505000D03*
X129630000Y-74505000D03*
X129630000Y-75775000D03*
X129630000Y-77045000D03*
X129630000Y-78315000D03*
D24*
X153040000Y-101440000D03*
D29*
X153950000Y-97150000D03*
X152075000Y-97150000D03*
D30*
X118260000Y-71740000D03*
X118260000Y-80920000D03*
D23*
X141680000Y-101750000D03*
X141680000Y-103650000D03*
D10*
X123550000Y-101460000D03*
X121650000Y-101460000D03*
D31*
X139640000Y-103632500D03*
X139640000Y-101807500D03*
D20*
X146502500Y-88140000D03*
X144677500Y-88140000D03*
D32*
X147890000Y-115380000D03*
D33*
X153890000Y-115380000D03*
D34*
X150890000Y-110680000D03*
D14*
X152050000Y-79860000D03*
X153950000Y-79860000D03*
D15*
X105150000Y-101960000D03*
D35*
X129880000Y-98990000D03*
X129880000Y-95690000D03*
X127880000Y-95690000D03*
X127880000Y-98990000D03*
D36*
X111827500Y-88770000D03*
X111827500Y-86870000D03*
X109952500Y-87820000D03*
D11*
X145520000Y-79850000D03*
X145520000Y-77950000D03*
D15*
X105110000Y-109750000D03*
D31*
X143760000Y-117645000D03*
X143760000Y-115820000D03*
D12*
X153590000Y-124500000D03*
D13*
X152423274Y-123333274D03*
X154756726Y-123333274D03*
X153590000Y-122850000D03*
X152423274Y-125666726D03*
X155240000Y-124500000D03*
X153590000Y-126150000D03*
X151940000Y-124500000D03*
X154756726Y-125666726D03*
X105263274Y-72253274D03*
D12*
X106430000Y-73420000D03*
D13*
X107596726Y-74586726D03*
X104780000Y-73420000D03*
X106430000Y-71770000D03*
X105263274Y-74586726D03*
X107596726Y-72253274D03*
X106430000Y-75070000D03*
X108080000Y-73420000D03*
D11*
X125480000Y-97600000D03*
X125480000Y-95700000D03*
D15*
X105750000Y-87830000D03*
D31*
X113940000Y-88720000D03*
X113940000Y-86895000D03*
D24*
X155060000Y-104200000D03*
D10*
X133690000Y-98980000D03*
X131790000Y-98980000D03*
D15*
X108960000Y-113600000D03*
D10*
X141690000Y-90550000D03*
X139790000Y-90550000D03*
D23*
X135740000Y-96880000D03*
X135740000Y-98780000D03*
D11*
X133860000Y-83560000D03*
X133860000Y-81660000D03*
D22*
X115880000Y-83237500D03*
X115880000Y-85062500D03*
D23*
X143770000Y-101760000D03*
X143770000Y-103660000D03*
D37*
X148157500Y-97130000D03*
X149982500Y-97130000D03*
D11*
X129380000Y-103680000D03*
X129380000Y-101780000D03*
D14*
X125780000Y-78320000D03*
X127680000Y-78320000D03*
D22*
X137580000Y-101797500D03*
X137580000Y-103622500D03*
D38*
X116305850Y-92095000D03*
X116305850Y-93365000D03*
X116305850Y-94635000D03*
X116305850Y-95905000D03*
X121754150Y-95905000D03*
X121754150Y-94635000D03*
X121754150Y-93365000D03*
X121754150Y-92095000D03*
D15*
X105110000Y-105850000D03*
X105110000Y-113520000D03*
X105690000Y-93360000D03*
D39*
X105690000Y-95900000D03*
D10*
X141690000Y-94790000D03*
X139790000Y-94790000D03*
D14*
X152050000Y-82000000D03*
X153950000Y-82000000D03*
D20*
X146502500Y-90170000D03*
X144677500Y-90170000D03*
D23*
X138540000Y-81650000D03*
X138540000Y-83550000D03*
X124700000Y-90550000D03*
X124700000Y-92450000D03*
X133490000Y-101750000D03*
X133490000Y-103650000D03*
X124480000Y-83640000D03*
X124480000Y-85540000D03*
D40*
X126450000Y-115800000D03*
D24*
X126450000Y-120800000D03*
X126450000Y-118300000D03*
D41*
X133950000Y-112700000D03*
X133950000Y-123900000D03*
D24*
X140950000Y-115800000D03*
X140950000Y-120800000D03*
D22*
X118330000Y-83277500D03*
X118330000Y-85102500D03*
X135560000Y-101777500D03*
X135560000Y-103602500D03*
D37*
X112090000Y-84970000D03*
X113915000Y-84970000D03*
D30*
X112590000Y-71720000D03*
X112590000Y-80900000D03*
D23*
X126660000Y-83640000D03*
X126660000Y-85540000D03*
D10*
X123550000Y-103660000D03*
X121650000Y-103660000D03*
M02*
