G04 #@! TF.GenerationSoftware,KiCad,Pcbnew,(6.0.4)*
G04 #@! TF.CreationDate,2022-08-17T14:13:50+03:00*
G04 #@! TF.ProjectId,ReflowController-v1,5265666c-6f77-4436-9f6e-74726f6c6c65,rev?*
G04 #@! TF.SameCoordinates,Original*
G04 #@! TF.FileFunction,Legend,Bot*
G04 #@! TF.FilePolarity,Positive*
%FSLAX46Y46*%
G04 Gerber Fmt 4.6, Leading zero omitted, Abs format (unit mm)*
G04 Created by KiCad (PCBNEW (6.0.4)) date 2022-08-17 14:13:50*
%MOMM*%
%LPD*%
G01*
G04 APERTURE LIST*
G04 Aperture macros list*
%AMRoundRect*
0 Rectangle with rounded corners*
0 $1 Rounding radius*
0 $2 $3 $4 $5 $6 $7 $8 $9 X,Y pos of 4 corners*
0 Add a 4 corners polygon primitive as box body*
4,1,4,$2,$3,$4,$5,$6,$7,$8,$9,$2,$3,0*
0 Add four circle primitives for the rounded corners*
1,1,$1+$1,$2,$3*
1,1,$1+$1,$4,$5*
1,1,$1+$1,$6,$7*
1,1,$1+$1,$8,$9*
0 Add four rect primitives between the rounded corners*
20,1,$1+$1,$2,$3,$4,$5,0*
20,1,$1+$1,$4,$5,$6,$7,0*
20,1,$1+$1,$6,$7,$8,$9,0*
20,1,$1+$1,$8,$9,$2,$3,0*%
G04 Aperture macros list end*
%ADD10C,4.400000*%
%ADD11C,0.700000*%
%ADD12R,1.700000X1.700000*%
%ADD13R,3.500000X3.500000*%
%ADD14RoundRect,0.750000X0.750000X1.000000X-0.750000X1.000000X-0.750000X-1.000000X0.750000X-1.000000X0*%
%ADD15RoundRect,0.875000X0.875000X0.875000X-0.875000X0.875000X-0.875000X-0.875000X0.875000X-0.875000X0*%
%ADD16O,1.700000X1.700000*%
%ADD17R,2.000000X2.000000*%
%ADD18C,2.000000*%
%ADD19R,3.000000X2.500000*%
G04 APERTURE END LIST*
%LPC*%
D10*
X153590000Y-73360000D03*
D11*
X153590000Y-75010000D03*
X151940000Y-73360000D03*
X155240000Y-73360000D03*
X154756726Y-74526726D03*
X153590000Y-71710000D03*
X152423274Y-74526726D03*
X154756726Y-72193274D03*
X152423274Y-72193274D03*
X106570000Y-122850000D03*
X108220000Y-124500000D03*
X105403274Y-125666726D03*
X107736726Y-125666726D03*
D10*
X106570000Y-124500000D03*
D11*
X105403274Y-123333274D03*
X107736726Y-123333274D03*
X104920000Y-124500000D03*
X106570000Y-126150000D03*
D12*
X108960000Y-109710000D03*
D13*
X147890000Y-115380000D03*
D14*
X153890000Y-115380000D03*
D15*
X150890000Y-110680000D03*
D12*
X105150000Y-101960000D03*
X105110000Y-109750000D03*
D10*
X153590000Y-124500000D03*
D11*
X152423274Y-123333274D03*
X154756726Y-123333274D03*
X153590000Y-122850000D03*
X152423274Y-125666726D03*
X155240000Y-124500000D03*
X153590000Y-126150000D03*
X151940000Y-124500000D03*
X154756726Y-125666726D03*
X105263274Y-72253274D03*
D10*
X106430000Y-73420000D03*
D11*
X107596726Y-74586726D03*
X104780000Y-73420000D03*
X106430000Y-71770000D03*
X105263274Y-74586726D03*
X107596726Y-72253274D03*
X106430000Y-75070000D03*
X108080000Y-73420000D03*
D12*
X105750000Y-87830000D03*
X108960000Y-113600000D03*
X105110000Y-105850000D03*
X105110000Y-113520000D03*
X105690000Y-93360000D03*
D16*
X105690000Y-95900000D03*
D17*
X126450000Y-115800000D03*
D18*
X126450000Y-120800000D03*
X126450000Y-118300000D03*
D19*
X133950000Y-112700000D03*
X133950000Y-123900000D03*
D18*
X140950000Y-115800000D03*
X140950000Y-120800000D03*
M02*
