G04 #@! TF.GenerationSoftware,KiCad,Pcbnew,(6.0.4)*
G04 #@! TF.CreationDate,2022-08-17T14:13:50+03:00*
G04 #@! TF.ProjectId,ReflowController-v1,5265666c-6f77-4436-9f6e-74726f6c6c65,rev?*
G04 #@! TF.SameCoordinates,Original*
G04 #@! TF.FileFunction,Legend,Top*
G04 #@! TF.FilePolarity,Positive*
%FSLAX46Y46*%
G04 Gerber Fmt 4.6, Leading zero omitted, Abs format (unit mm)*
G04 Created by KiCad (PCBNEW (6.0.4)) date 2022-08-17 14:13:50*
%MOMM*%
%LPD*%
G01*
G04 APERTURE LIST*
G04 Aperture macros list*
%AMRoundRect*
0 Rectangle with rounded corners*
0 $1 Rounding radius*
0 $2 $3 $4 $5 $6 $7 $8 $9 X,Y pos of 4 corners*
0 Add a 4 corners polygon primitive as box body*
4,1,4,$2,$3,$4,$5,$6,$7,$8,$9,$2,$3,0*
0 Add four circle primitives for the rounded corners*
1,1,$1+$1,$2,$3*
1,1,$1+$1,$4,$5*
1,1,$1+$1,$6,$7*
1,1,$1+$1,$8,$9*
0 Add four rect primitives between the rounded corners*
20,1,$1+$1,$2,$3,$4,$5,0*
20,1,$1+$1,$4,$5,$6,$7,0*
20,1,$1+$1,$6,$7,$8,$9,0*
20,1,$1+$1,$8,$9,$2,$3,0*%
G04 Aperture macros list end*
%ADD10C,0.150000*%
%ADD11C,0.250000*%
%ADD12C,0.125000*%
%ADD13C,0.120000*%
%ADD14C,0.100000*%
%ADD15RoundRect,0.250000X0.250000X0.475000X-0.250000X0.475000X-0.250000X-0.475000X0.250000X-0.475000X0*%
%ADD16RoundRect,0.250000X0.475000X-0.250000X0.475000X0.250000X-0.475000X0.250000X-0.475000X-0.250000X0*%
%ADD17C,4.400000*%
%ADD18C,0.700000*%
%ADD19RoundRect,0.250000X-0.250000X-0.475000X0.250000X-0.475000X0.250000X0.475000X-0.250000X0.475000X0*%
%ADD20R,1.700000X1.700000*%
%ADD21R,0.812800X0.177800*%
%ADD22R,0.177800X0.812800*%
%ADD23R,3.200400X3.200400*%
%ADD24RoundRect,0.150000X-0.512500X-0.150000X0.512500X-0.150000X0.512500X0.150000X-0.512500X0.150000X0*%
%ADD25RoundRect,0.250000X0.262500X0.450000X-0.262500X0.450000X-0.262500X-0.450000X0.262500X-0.450000X0*%
%ADD26R,0.350000X1.600000*%
%ADD27RoundRect,0.250000X-0.450000X0.262500X-0.450000X-0.262500X0.450000X-0.262500X0.450000X0.262500X0*%
%ADD28RoundRect,0.250000X-0.475000X0.250000X-0.475000X-0.250000X0.475000X-0.250000X0.475000X0.250000X0*%
%ADD29C,2.000000*%
%ADD30R,1.400000X0.400000*%
%ADD31R,1.900000X2.300000*%
%ADD32R,1.900000X1.800000*%
%ADD33RoundRect,0.150000X0.650000X0.150000X-0.650000X0.150000X-0.650000X-0.150000X0.650000X-0.150000X0*%
%ADD34RoundRect,0.243750X0.243750X0.456250X-0.243750X0.456250X-0.243750X-0.456250X0.243750X-0.456250X0*%
%ADD35R,1.600000X2.180000*%
%ADD36RoundRect,0.250000X0.450000X-0.262500X0.450000X0.262500X-0.450000X0.262500X-0.450000X-0.262500X0*%
%ADD37R,3.500000X3.500000*%
%ADD38RoundRect,0.750000X0.750000X1.000000X-0.750000X1.000000X-0.750000X-1.000000X0.750000X-1.000000X0*%
%ADD39RoundRect,0.875000X0.875000X0.875000X-0.875000X0.875000X-0.875000X-0.875000X0.875000X-0.875000X0*%
%ADD40R,1.300000X1.600000*%
%ADD41RoundRect,0.150000X0.587500X0.150000X-0.587500X0.150000X-0.587500X-0.150000X0.587500X-0.150000X0*%
%ADD42RoundRect,0.250000X-0.262500X-0.450000X0.262500X-0.450000X0.262500X0.450000X-0.262500X0.450000X0*%
%ADD43R,1.460500X0.533400*%
%ADD44O,1.700000X1.700000*%
%ADD45R,2.000000X2.000000*%
%ADD46R,3.000000X2.500000*%
G04 APERTURE END LIST*
D10*
X118000000Y-109000000D02*
X118000000Y-114000000D01*
X118000000Y-114000000D02*
X112000000Y-114000000D01*
X112000000Y-111500000D02*
X118000000Y-111500000D01*
X115000000Y-109000000D02*
X115000000Y-114000000D01*
X112000000Y-114000000D02*
X112000000Y-109000000D01*
X112000000Y-109000000D02*
X118000000Y-109000000D01*
D11*
X127380476Y-127132380D02*
X127047142Y-126656190D01*
X126809047Y-127132380D02*
X126809047Y-126132380D01*
X127190000Y-126132380D01*
X127285238Y-126180000D01*
X127332857Y-126227619D01*
X127380476Y-126322857D01*
X127380476Y-126465714D01*
X127332857Y-126560952D01*
X127285238Y-126608571D01*
X127190000Y-126656190D01*
X126809047Y-126656190D01*
X128190000Y-127084761D02*
X128094761Y-127132380D01*
X127904285Y-127132380D01*
X127809047Y-127084761D01*
X127761428Y-126989523D01*
X127761428Y-126608571D01*
X127809047Y-126513333D01*
X127904285Y-126465714D01*
X128094761Y-126465714D01*
X128190000Y-126513333D01*
X128237619Y-126608571D01*
X128237619Y-126703809D01*
X127761428Y-126799047D01*
X128523333Y-126465714D02*
X128904285Y-126465714D01*
X128666190Y-127132380D02*
X128666190Y-126275238D01*
X128713809Y-126180000D01*
X128809047Y-126132380D01*
X128904285Y-126132380D01*
X129380476Y-127132380D02*
X129285238Y-127084761D01*
X129237619Y-126989523D01*
X129237619Y-126132380D01*
X129904285Y-127132380D02*
X129809047Y-127084761D01*
X129761428Y-127037142D01*
X129713809Y-126941904D01*
X129713809Y-126656190D01*
X129761428Y-126560952D01*
X129809047Y-126513333D01*
X129904285Y-126465714D01*
X130047142Y-126465714D01*
X130142380Y-126513333D01*
X130190000Y-126560952D01*
X130237619Y-126656190D01*
X130237619Y-126941904D01*
X130190000Y-127037142D01*
X130142380Y-127084761D01*
X130047142Y-127132380D01*
X129904285Y-127132380D01*
X130570952Y-126465714D02*
X130761428Y-127132380D01*
X130951904Y-126656190D01*
X131142380Y-127132380D01*
X131332857Y-126465714D01*
X132285238Y-127037142D02*
X132237619Y-127084761D01*
X132094761Y-127132380D01*
X131999523Y-127132380D01*
X131856666Y-127084761D01*
X131761428Y-126989523D01*
X131713809Y-126894285D01*
X131666190Y-126703809D01*
X131666190Y-126560952D01*
X131713809Y-126370476D01*
X131761428Y-126275238D01*
X131856666Y-126180000D01*
X131999523Y-126132380D01*
X132094761Y-126132380D01*
X132237619Y-126180000D01*
X132285238Y-126227619D01*
X132856666Y-127132380D02*
X132761428Y-127084761D01*
X132713809Y-127037142D01*
X132666190Y-126941904D01*
X132666190Y-126656190D01*
X132713809Y-126560952D01*
X132761428Y-126513333D01*
X132856666Y-126465714D01*
X132999523Y-126465714D01*
X133094761Y-126513333D01*
X133142380Y-126560952D01*
X133190000Y-126656190D01*
X133190000Y-126941904D01*
X133142380Y-127037142D01*
X133094761Y-127084761D01*
X132999523Y-127132380D01*
X132856666Y-127132380D01*
X133618571Y-126465714D02*
X133618571Y-127132380D01*
X133618571Y-126560952D02*
X133666190Y-126513333D01*
X133761428Y-126465714D01*
X133904285Y-126465714D01*
X133999523Y-126513333D01*
X134047142Y-126608571D01*
X134047142Y-127132380D01*
X134380476Y-126465714D02*
X134761428Y-126465714D01*
X134523333Y-126132380D02*
X134523333Y-126989523D01*
X134570952Y-127084761D01*
X134666190Y-127132380D01*
X134761428Y-127132380D01*
X135094761Y-127132380D02*
X135094761Y-126465714D01*
X135094761Y-126656190D02*
X135142380Y-126560952D01*
X135190000Y-126513333D01*
X135285238Y-126465714D01*
X135380476Y-126465714D01*
X135856666Y-127132380D02*
X135761428Y-127084761D01*
X135713809Y-127037142D01*
X135666190Y-126941904D01*
X135666190Y-126656190D01*
X135713809Y-126560952D01*
X135761428Y-126513333D01*
X135856666Y-126465714D01*
X135999523Y-126465714D01*
X136094761Y-126513333D01*
X136142380Y-126560952D01*
X136190000Y-126656190D01*
X136190000Y-126941904D01*
X136142380Y-127037142D01*
X136094761Y-127084761D01*
X135999523Y-127132380D01*
X135856666Y-127132380D01*
X136761428Y-127132380D02*
X136666190Y-127084761D01*
X136618571Y-126989523D01*
X136618571Y-126132380D01*
X137285238Y-127132380D02*
X137190000Y-127084761D01*
X137142380Y-126989523D01*
X137142380Y-126132380D01*
X138047142Y-127084761D02*
X137951904Y-127132380D01*
X137761428Y-127132380D01*
X137666190Y-127084761D01*
X137618571Y-126989523D01*
X137618571Y-126608571D01*
X137666190Y-126513333D01*
X137761428Y-126465714D01*
X137951904Y-126465714D01*
X138047142Y-126513333D01*
X138094761Y-126608571D01*
X138094761Y-126703809D01*
X137618571Y-126799047D01*
X138523333Y-127132380D02*
X138523333Y-126465714D01*
X138523333Y-126656190D02*
X138570952Y-126560952D01*
X138618571Y-126513333D01*
X138713809Y-126465714D01*
X138809047Y-126465714D01*
X139809047Y-126465714D02*
X140047142Y-127132380D01*
X140285238Y-126465714D01*
X141190000Y-127132380D02*
X140618571Y-127132380D01*
X140904285Y-127132380D02*
X140904285Y-126132380D01*
X140809047Y-126275238D01*
X140713809Y-126370476D01*
X140618571Y-126418095D01*
X141618571Y-127037142D02*
X141666190Y-127084761D01*
X141618571Y-127132380D01*
X141570952Y-127084761D01*
X141618571Y-127037142D01*
X141618571Y-127132380D01*
X142285238Y-126132380D02*
X142380476Y-126132380D01*
X142475714Y-126180000D01*
X142523333Y-126227619D01*
X142570952Y-126322857D01*
X142618571Y-126513333D01*
X142618571Y-126751428D01*
X142570952Y-126941904D01*
X142523333Y-127037142D01*
X142475714Y-127084761D01*
X142380476Y-127132380D01*
X142285238Y-127132380D01*
X142190000Y-127084761D01*
X142142380Y-127037142D01*
X142094761Y-126941904D01*
X142047142Y-126751428D01*
X142047142Y-126513333D01*
X142094761Y-126322857D01*
X142142380Y-126227619D01*
X142190000Y-126180000D01*
X142285238Y-126132380D01*
D12*
X145193333Y-93784285D02*
X145026666Y-93784285D01*
X145026666Y-94046190D02*
X145026666Y-93546190D01*
X145264761Y-93546190D01*
X145621904Y-93784285D02*
X145693333Y-93808095D01*
X145717142Y-93831904D01*
X145740952Y-93879523D01*
X145740952Y-93950952D01*
X145717142Y-93998571D01*
X145693333Y-94022380D01*
X145645714Y-94046190D01*
X145455238Y-94046190D01*
X145455238Y-93546190D01*
X145621904Y-93546190D01*
X145669523Y-93570000D01*
X145693333Y-93593809D01*
X145717142Y-93641428D01*
X145717142Y-93689047D01*
X145693333Y-93736666D01*
X145669523Y-93760476D01*
X145621904Y-93784285D01*
X145455238Y-93784285D01*
X146217142Y-94046190D02*
X145931428Y-94046190D01*
X146074285Y-94046190D02*
X146074285Y-93546190D01*
X146026666Y-93617619D01*
X145979047Y-93665238D01*
X145931428Y-93689047D01*
X137788571Y-95483333D02*
X137812380Y-95507142D01*
X137836190Y-95578571D01*
X137836190Y-95626190D01*
X137812380Y-95697619D01*
X137764761Y-95745238D01*
X137717142Y-95769047D01*
X137621904Y-95792857D01*
X137550476Y-95792857D01*
X137455238Y-95769047D01*
X137407619Y-95745238D01*
X137360000Y-95697619D01*
X137336190Y-95626190D01*
X137336190Y-95578571D01*
X137360000Y-95507142D01*
X137383809Y-95483333D01*
X137502857Y-95054761D02*
X137836190Y-95054761D01*
X137312380Y-95173809D02*
X137669523Y-95292857D01*
X137669523Y-94983333D01*
X138698571Y-92823333D02*
X138722380Y-92847142D01*
X138746190Y-92918571D01*
X138746190Y-92966190D01*
X138722380Y-93037619D01*
X138674761Y-93085238D01*
X138627142Y-93109047D01*
X138531904Y-93132857D01*
X138460476Y-93132857D01*
X138365238Y-93109047D01*
X138317619Y-93085238D01*
X138270000Y-93037619D01*
X138246190Y-92966190D01*
X138246190Y-92918571D01*
X138270000Y-92847142D01*
X138293809Y-92823333D01*
X138246190Y-92656666D02*
X138246190Y-92347142D01*
X138436666Y-92513809D01*
X138436666Y-92442380D01*
X138460476Y-92394761D01*
X138484285Y-92370952D01*
X138531904Y-92347142D01*
X138650952Y-92347142D01*
X138698571Y-92370952D01*
X138722380Y-92394761D01*
X138746190Y-92442380D01*
X138746190Y-92585238D01*
X138722380Y-92632857D01*
X138698571Y-92656666D01*
X126498571Y-89328571D02*
X126474761Y-89352380D01*
X126403333Y-89376190D01*
X126355714Y-89376190D01*
X126284285Y-89352380D01*
X126236666Y-89304761D01*
X126212857Y-89257142D01*
X126189047Y-89161904D01*
X126189047Y-89090476D01*
X126212857Y-88995238D01*
X126236666Y-88947619D01*
X126284285Y-88900000D01*
X126355714Y-88876190D01*
X126403333Y-88876190D01*
X126474761Y-88900000D01*
X126498571Y-88923809D01*
X126689047Y-88923809D02*
X126712857Y-88900000D01*
X126760476Y-88876190D01*
X126879523Y-88876190D01*
X126927142Y-88900000D01*
X126950952Y-88923809D01*
X126974761Y-88971428D01*
X126974761Y-89019047D01*
X126950952Y-89090476D01*
X126665238Y-89376190D01*
X126974761Y-89376190D01*
X127284285Y-88876190D02*
X127331904Y-88876190D01*
X127379523Y-88900000D01*
X127403333Y-88923809D01*
X127427142Y-88971428D01*
X127450952Y-89066666D01*
X127450952Y-89185714D01*
X127427142Y-89280952D01*
X127403333Y-89328571D01*
X127379523Y-89352380D01*
X127331904Y-89376190D01*
X127284285Y-89376190D01*
X127236666Y-89352380D01*
X127212857Y-89328571D01*
X127189047Y-89280952D01*
X127165238Y-89185714D01*
X127165238Y-89066666D01*
X127189047Y-88971428D01*
X127212857Y-88923809D01*
X127236666Y-88900000D01*
X127284285Y-88876190D01*
D10*
X116409523Y-109752380D02*
X115933333Y-109752380D01*
X115885714Y-110228571D01*
X115933333Y-110180952D01*
X116028571Y-110133333D01*
X116266666Y-110133333D01*
X116361904Y-110180952D01*
X116409523Y-110228571D01*
X116457142Y-110323809D01*
X116457142Y-110561904D01*
X116409523Y-110657142D01*
X116361904Y-110704761D01*
X116266666Y-110752380D01*
X116028571Y-110752380D01*
X115933333Y-110704761D01*
X115885714Y-110657142D01*
X116742857Y-109752380D02*
X117076190Y-110752380D01*
X117409523Y-109752380D01*
D12*
X137219047Y-85386190D02*
X137219047Y-85790952D01*
X137242857Y-85838571D01*
X137266666Y-85862380D01*
X137314285Y-85886190D01*
X137409523Y-85886190D01*
X137457142Y-85862380D01*
X137480952Y-85838571D01*
X137504761Y-85790952D01*
X137504761Y-85386190D01*
X138004761Y-85886190D02*
X137719047Y-85886190D01*
X137861904Y-85886190D02*
X137861904Y-85386190D01*
X137814285Y-85457619D01*
X137766666Y-85505238D01*
X137719047Y-85529047D01*
D10*
X128610000Y-85442380D02*
X128610000Y-85680476D01*
X128371904Y-85585238D02*
X128610000Y-85680476D01*
X128848095Y-85585238D01*
X128467142Y-85870952D02*
X128610000Y-85680476D01*
X128752857Y-85870952D01*
X128595000Y-86202380D02*
X128595000Y-86440476D01*
X128356904Y-86345238D02*
X128595000Y-86440476D01*
X128833095Y-86345238D01*
X128452142Y-86630952D02*
X128595000Y-86440476D01*
X128737857Y-86630952D01*
D12*
X140398571Y-88798571D02*
X140374761Y-88822380D01*
X140303333Y-88846190D01*
X140255714Y-88846190D01*
X140184285Y-88822380D01*
X140136666Y-88774761D01*
X140112857Y-88727142D01*
X140089047Y-88631904D01*
X140089047Y-88560476D01*
X140112857Y-88465238D01*
X140136666Y-88417619D01*
X140184285Y-88370000D01*
X140255714Y-88346190D01*
X140303333Y-88346190D01*
X140374761Y-88370000D01*
X140398571Y-88393809D01*
X140874761Y-88846190D02*
X140589047Y-88846190D01*
X140731904Y-88846190D02*
X140731904Y-88346190D01*
X140684285Y-88417619D01*
X140636666Y-88465238D01*
X140589047Y-88489047D01*
X141184285Y-88346190D02*
X141231904Y-88346190D01*
X141279523Y-88370000D01*
X141303333Y-88393809D01*
X141327142Y-88441428D01*
X141350952Y-88536666D01*
X141350952Y-88655714D01*
X141327142Y-88750952D01*
X141303333Y-88798571D01*
X141279523Y-88822380D01*
X141231904Y-88846190D01*
X141184285Y-88846190D01*
X141136666Y-88822380D01*
X141112857Y-88798571D01*
X141089047Y-88750952D01*
X141065238Y-88655714D01*
X141065238Y-88536666D01*
X141089047Y-88441428D01*
X141112857Y-88393809D01*
X141136666Y-88370000D01*
X141184285Y-88346190D01*
X142978571Y-76858571D02*
X142954761Y-76882380D01*
X142883333Y-76906190D01*
X142835714Y-76906190D01*
X142764285Y-76882380D01*
X142716666Y-76834761D01*
X142692857Y-76787142D01*
X142669047Y-76691904D01*
X142669047Y-76620476D01*
X142692857Y-76525238D01*
X142716666Y-76477619D01*
X142764285Y-76430000D01*
X142835714Y-76406190D01*
X142883333Y-76406190D01*
X142954761Y-76430000D01*
X142978571Y-76453809D01*
X143454761Y-76906190D02*
X143169047Y-76906190D01*
X143311904Y-76906190D02*
X143311904Y-76406190D01*
X143264285Y-76477619D01*
X143216666Y-76525238D01*
X143169047Y-76549047D01*
X143621428Y-76406190D02*
X143930952Y-76406190D01*
X143764285Y-76596666D01*
X143835714Y-76596666D01*
X143883333Y-76620476D01*
X143907142Y-76644285D01*
X143930952Y-76691904D01*
X143930952Y-76810952D01*
X143907142Y-76858571D01*
X143883333Y-76882380D01*
X143835714Y-76906190D01*
X143692857Y-76906190D01*
X143645238Y-76882380D01*
X143621428Y-76858571D01*
X146979047Y-78376190D02*
X146979047Y-78780952D01*
X147002857Y-78828571D01*
X147026666Y-78852380D01*
X147074285Y-78876190D01*
X147169523Y-78876190D01*
X147217142Y-78852380D01*
X147240952Y-78828571D01*
X147264761Y-78780952D01*
X147264761Y-78376190D01*
X147455238Y-78376190D02*
X147764761Y-78376190D01*
X147598095Y-78566666D01*
X147669523Y-78566666D01*
X147717142Y-78590476D01*
X147740952Y-78614285D01*
X147764761Y-78661904D01*
X147764761Y-78780952D01*
X147740952Y-78828571D01*
X147717142Y-78852380D01*
X147669523Y-78876190D01*
X147526666Y-78876190D01*
X147479047Y-78852380D01*
X147455238Y-78828571D01*
X116618571Y-90716190D02*
X116451904Y-90478095D01*
X116332857Y-90716190D02*
X116332857Y-90216190D01*
X116523333Y-90216190D01*
X116570952Y-90240000D01*
X116594761Y-90263809D01*
X116618571Y-90311428D01*
X116618571Y-90382857D01*
X116594761Y-90430476D01*
X116570952Y-90454285D01*
X116523333Y-90478095D01*
X116332857Y-90478095D01*
X117094761Y-90716190D02*
X116809047Y-90716190D01*
X116951904Y-90716190D02*
X116951904Y-90216190D01*
X116904285Y-90287619D01*
X116856666Y-90335238D01*
X116809047Y-90359047D01*
X117570952Y-90716190D02*
X117285238Y-90716190D01*
X117428095Y-90716190D02*
X117428095Y-90216190D01*
X117380476Y-90287619D01*
X117332857Y-90335238D01*
X117285238Y-90359047D01*
X120439047Y-106266190D02*
X120439047Y-106670952D01*
X120462857Y-106718571D01*
X120486666Y-106742380D01*
X120534285Y-106766190D01*
X120629523Y-106766190D01*
X120677142Y-106742380D01*
X120700952Y-106718571D01*
X120724761Y-106670952D01*
X120724761Y-106266190D01*
X121200952Y-106266190D02*
X120962857Y-106266190D01*
X120939047Y-106504285D01*
X120962857Y-106480476D01*
X121010476Y-106456666D01*
X121129523Y-106456666D01*
X121177142Y-106480476D01*
X121200952Y-106504285D01*
X121224761Y-106551904D01*
X121224761Y-106670952D01*
X121200952Y-106718571D01*
X121177142Y-106742380D01*
X121129523Y-106766190D01*
X121010476Y-106766190D01*
X120962857Y-106742380D01*
X120939047Y-106718571D01*
D10*
X128318095Y-108649523D02*
X127952380Y-108649523D01*
X128135238Y-108649523D02*
X128135238Y-108009523D01*
X128074285Y-108100952D01*
X128013333Y-108161904D01*
X127952380Y-108192380D01*
X128714285Y-108009523D02*
X128775238Y-108009523D01*
X128836190Y-108040000D01*
X128866666Y-108070476D01*
X128897142Y-108131428D01*
X128927619Y-108253333D01*
X128927619Y-108405714D01*
X128897142Y-108527619D01*
X128866666Y-108588571D01*
X128836190Y-108619047D01*
X128775238Y-108649523D01*
X128714285Y-108649523D01*
X128653333Y-108619047D01*
X128622857Y-108588571D01*
X128592380Y-108527619D01*
X128561904Y-108405714D01*
X128561904Y-108253333D01*
X128592380Y-108131428D01*
X128622857Y-108070476D01*
X128653333Y-108040000D01*
X128714285Y-108009523D01*
X142591904Y-108019523D02*
X142988095Y-108019523D01*
X142774761Y-108263333D01*
X142866190Y-108263333D01*
X142927142Y-108293809D01*
X142957619Y-108324285D01*
X142988095Y-108385238D01*
X142988095Y-108537619D01*
X142957619Y-108598571D01*
X142927142Y-108629047D01*
X142866190Y-108659523D01*
X142683333Y-108659523D01*
X142622380Y-108629047D01*
X142591904Y-108598571D01*
X143384285Y-108019523D02*
X143445238Y-108019523D01*
X143506190Y-108050000D01*
X143536666Y-108080476D01*
X143567142Y-108141428D01*
X143597619Y-108263333D01*
X143597619Y-108415714D01*
X143567142Y-108537619D01*
X143536666Y-108598571D01*
X143506190Y-108629047D01*
X143445238Y-108659523D01*
X143384285Y-108659523D01*
X143323333Y-108629047D01*
X143292857Y-108598571D01*
X143262380Y-108537619D01*
X143231904Y-108415714D01*
X143231904Y-108263333D01*
X143262380Y-108141428D01*
X143292857Y-108080476D01*
X143323333Y-108050000D01*
X143384285Y-108019523D01*
X134912380Y-108120476D02*
X134942857Y-108090000D01*
X135003809Y-108059523D01*
X135156190Y-108059523D01*
X135217142Y-108090000D01*
X135247619Y-108120476D01*
X135278095Y-108181428D01*
X135278095Y-108242380D01*
X135247619Y-108333809D01*
X134881904Y-108699523D01*
X135278095Y-108699523D01*
X135674285Y-108059523D02*
X135735238Y-108059523D01*
X135796190Y-108090000D01*
X135826666Y-108120476D01*
X135857142Y-108181428D01*
X135887619Y-108303333D01*
X135887619Y-108455714D01*
X135857142Y-108577619D01*
X135826666Y-108638571D01*
X135796190Y-108669047D01*
X135735238Y-108699523D01*
X135674285Y-108699523D01*
X135613333Y-108669047D01*
X135582857Y-108638571D01*
X135552380Y-108577619D01*
X135521904Y-108455714D01*
X135521904Y-108303333D01*
X135552380Y-108181428D01*
X135582857Y-108120476D01*
X135613333Y-108090000D01*
X135674285Y-108059523D01*
X122312857Y-108649523D02*
X121947142Y-108649523D01*
X122130000Y-108649523D02*
X122130000Y-108009523D01*
X122069047Y-108100952D01*
X122008095Y-108161904D01*
X121947142Y-108192380D01*
D12*
X131356666Y-105186190D02*
X131190000Y-104948095D01*
X131070952Y-105186190D02*
X131070952Y-104686190D01*
X131261428Y-104686190D01*
X131309047Y-104710000D01*
X131332857Y-104733809D01*
X131356666Y-104781428D01*
X131356666Y-104852857D01*
X131332857Y-104900476D01*
X131309047Y-104924285D01*
X131261428Y-104948095D01*
X131070952Y-104948095D01*
X131785238Y-104686190D02*
X131690000Y-104686190D01*
X131642380Y-104710000D01*
X131618571Y-104733809D01*
X131570952Y-104805238D01*
X131547142Y-104900476D01*
X131547142Y-105090952D01*
X131570952Y-105138571D01*
X131594761Y-105162380D01*
X131642380Y-105186190D01*
X131737619Y-105186190D01*
X131785238Y-105162380D01*
X131809047Y-105138571D01*
X131832857Y-105090952D01*
X131832857Y-104971904D01*
X131809047Y-104924285D01*
X131785238Y-104900476D01*
X131737619Y-104876666D01*
X131642380Y-104876666D01*
X131594761Y-104900476D01*
X131570952Y-104924285D01*
X131547142Y-104971904D01*
X108256190Y-84461428D02*
X108018095Y-84628095D01*
X108256190Y-84747142D02*
X107756190Y-84747142D01*
X107756190Y-84556666D01*
X107780000Y-84509047D01*
X107803809Y-84485238D01*
X107851428Y-84461428D01*
X107922857Y-84461428D01*
X107970476Y-84485238D01*
X107994285Y-84509047D01*
X108018095Y-84556666D01*
X108018095Y-84747142D01*
X108256190Y-83985238D02*
X108256190Y-84270952D01*
X108256190Y-84128095D02*
X107756190Y-84128095D01*
X107827619Y-84175714D01*
X107875238Y-84223333D01*
X107899047Y-84270952D01*
X107756190Y-83818571D02*
X107756190Y-83509047D01*
X107946666Y-83675714D01*
X107946666Y-83604285D01*
X107970476Y-83556666D01*
X107994285Y-83532857D01*
X108041904Y-83509047D01*
X108160952Y-83509047D01*
X108208571Y-83532857D01*
X108232380Y-83556666D01*
X108256190Y-83604285D01*
X108256190Y-83747142D01*
X108232380Y-83794761D01*
X108208571Y-83818571D01*
X114768571Y-99581428D02*
X114792380Y-99605238D01*
X114816190Y-99676666D01*
X114816190Y-99724285D01*
X114792380Y-99795714D01*
X114744761Y-99843333D01*
X114697142Y-99867142D01*
X114601904Y-99890952D01*
X114530476Y-99890952D01*
X114435238Y-99867142D01*
X114387619Y-99843333D01*
X114340000Y-99795714D01*
X114316190Y-99724285D01*
X114316190Y-99676666D01*
X114340000Y-99605238D01*
X114363809Y-99581428D01*
X114816190Y-99105238D02*
X114816190Y-99390952D01*
X114816190Y-99248095D02*
X114316190Y-99248095D01*
X114387619Y-99295714D01*
X114435238Y-99343333D01*
X114459047Y-99390952D01*
X114316190Y-98938571D02*
X114316190Y-98605238D01*
X114816190Y-98819523D01*
X148798190Y-104790952D02*
X148798190Y-104505238D01*
X149298190Y-104648095D02*
X148798190Y-104648095D01*
X149298190Y-104338571D02*
X148798190Y-104338571D01*
X148798190Y-104148095D01*
X148822000Y-104100476D01*
X148845809Y-104076666D01*
X148893428Y-104052857D01*
X148964857Y-104052857D01*
X149012476Y-104076666D01*
X149036285Y-104100476D01*
X149060095Y-104148095D01*
X149060095Y-104338571D01*
X148798190Y-103886190D02*
X148798190Y-103576666D01*
X148988666Y-103743333D01*
X148988666Y-103671904D01*
X149012476Y-103624285D01*
X149036285Y-103600476D01*
X149083904Y-103576666D01*
X149202952Y-103576666D01*
X149250571Y-103600476D01*
X149274380Y-103624285D01*
X149298190Y-103671904D01*
X149298190Y-103814761D01*
X149274380Y-103862380D01*
X149250571Y-103886190D01*
X148326190Y-89666666D02*
X148683333Y-89666666D01*
X148754761Y-89690476D01*
X148802380Y-89738095D01*
X148826190Y-89809523D01*
X148826190Y-89857142D01*
X148826190Y-89166666D02*
X148826190Y-89452380D01*
X148826190Y-89309523D02*
X148326190Y-89309523D01*
X148397619Y-89357142D01*
X148445238Y-89404761D01*
X148469047Y-89452380D01*
X130619047Y-79566190D02*
X130619047Y-79970952D01*
X130642857Y-80018571D01*
X130666666Y-80042380D01*
X130714285Y-80066190D01*
X130809523Y-80066190D01*
X130857142Y-80042380D01*
X130880952Y-80018571D01*
X130904761Y-79970952D01*
X130904761Y-79566190D01*
X131119047Y-79613809D02*
X131142857Y-79590000D01*
X131190476Y-79566190D01*
X131309523Y-79566190D01*
X131357142Y-79590000D01*
X131380952Y-79613809D01*
X131404761Y-79661428D01*
X131404761Y-79709047D01*
X131380952Y-79780476D01*
X131095238Y-80066190D01*
X131404761Y-80066190D01*
X150768190Y-102070952D02*
X150768190Y-101785238D01*
X151268190Y-101928095D02*
X150768190Y-101928095D01*
X151268190Y-101618571D02*
X150768190Y-101618571D01*
X150768190Y-101428095D01*
X150792000Y-101380476D01*
X150815809Y-101356666D01*
X150863428Y-101332857D01*
X150934857Y-101332857D01*
X150982476Y-101356666D01*
X151006285Y-101380476D01*
X151030095Y-101428095D01*
X151030095Y-101618571D01*
X151268190Y-100856666D02*
X151268190Y-101142380D01*
X151268190Y-100999523D02*
X150768190Y-100999523D01*
X150839619Y-101047142D01*
X150887238Y-101094761D01*
X150911047Y-101142380D01*
X152643452Y-99026190D02*
X152643452Y-98526190D01*
X152762500Y-98526190D01*
X152833928Y-98550000D01*
X152881547Y-98597619D01*
X152905357Y-98645238D01*
X152929166Y-98740476D01*
X152929166Y-98811904D01*
X152905357Y-98907142D01*
X152881547Y-98954761D01*
X152833928Y-99002380D01*
X152762500Y-99026190D01*
X152643452Y-99026190D01*
X153405357Y-99026190D02*
X153119642Y-99026190D01*
X153262500Y-99026190D02*
X153262500Y-98526190D01*
X153214880Y-98597619D01*
X153167261Y-98645238D01*
X153119642Y-98669047D01*
D10*
X121672380Y-77427619D02*
X121196190Y-77760952D01*
X121672380Y-77999047D02*
X120672380Y-77999047D01*
X120672380Y-77618095D01*
X120720000Y-77522857D01*
X120767619Y-77475238D01*
X120862857Y-77427619D01*
X121005714Y-77427619D01*
X121100952Y-77475238D01*
X121148571Y-77522857D01*
X121196190Y-77618095D01*
X121196190Y-77999047D01*
X121624761Y-77046666D02*
X121672380Y-76903809D01*
X121672380Y-76665714D01*
X121624761Y-76570476D01*
X121577142Y-76522857D01*
X121481904Y-76475238D01*
X121386666Y-76475238D01*
X121291428Y-76522857D01*
X121243809Y-76570476D01*
X121196190Y-76665714D01*
X121148571Y-76856190D01*
X121100952Y-76951428D01*
X121053333Y-76999047D01*
X120958095Y-77046666D01*
X120862857Y-77046666D01*
X120767619Y-76999047D01*
X120720000Y-76951428D01*
X120672380Y-76856190D01*
X120672380Y-76618095D01*
X120720000Y-76475238D01*
X120672380Y-76189523D02*
X120672380Y-75618095D01*
X121672380Y-75903809D02*
X120672380Y-75903809D01*
D12*
X141328571Y-105008571D02*
X141304761Y-105032380D01*
X141233333Y-105056190D01*
X141185714Y-105056190D01*
X141114285Y-105032380D01*
X141066666Y-104984761D01*
X141042857Y-104937142D01*
X141019047Y-104841904D01*
X141019047Y-104770476D01*
X141042857Y-104675238D01*
X141066666Y-104627619D01*
X141114285Y-104580000D01*
X141185714Y-104556190D01*
X141233333Y-104556190D01*
X141304761Y-104580000D01*
X141328571Y-104603809D01*
X141519047Y-104603809D02*
X141542857Y-104580000D01*
X141590476Y-104556190D01*
X141709523Y-104556190D01*
X141757142Y-104580000D01*
X141780952Y-104603809D01*
X141804761Y-104651428D01*
X141804761Y-104699047D01*
X141780952Y-104770476D01*
X141495238Y-105056190D01*
X141804761Y-105056190D01*
X142233333Y-104556190D02*
X142138095Y-104556190D01*
X142090476Y-104580000D01*
X142066666Y-104603809D01*
X142019047Y-104675238D01*
X141995238Y-104770476D01*
X141995238Y-104960952D01*
X142019047Y-105008571D01*
X142042857Y-105032380D01*
X142090476Y-105056190D01*
X142185714Y-105056190D01*
X142233333Y-105032380D01*
X142257142Y-105008571D01*
X142280952Y-104960952D01*
X142280952Y-104841904D01*
X142257142Y-104794285D01*
X142233333Y-104770476D01*
X142185714Y-104746666D01*
X142090476Y-104746666D01*
X142042857Y-104770476D01*
X142019047Y-104794285D01*
X141995238Y-104841904D01*
X120588571Y-101631428D02*
X120612380Y-101655238D01*
X120636190Y-101726666D01*
X120636190Y-101774285D01*
X120612380Y-101845714D01*
X120564761Y-101893333D01*
X120517142Y-101917142D01*
X120421904Y-101940952D01*
X120350476Y-101940952D01*
X120255238Y-101917142D01*
X120207619Y-101893333D01*
X120160000Y-101845714D01*
X120136190Y-101774285D01*
X120136190Y-101726666D01*
X120160000Y-101655238D01*
X120183809Y-101631428D01*
X120636190Y-101155238D02*
X120636190Y-101440952D01*
X120636190Y-101298095D02*
X120136190Y-101298095D01*
X120207619Y-101345714D01*
X120255238Y-101393333D01*
X120279047Y-101440952D01*
X120636190Y-100917142D02*
X120636190Y-100821904D01*
X120612380Y-100774285D01*
X120588571Y-100750476D01*
X120517142Y-100702857D01*
X120421904Y-100679047D01*
X120231428Y-100679047D01*
X120183809Y-100702857D01*
X120160000Y-100726666D01*
X120136190Y-100774285D01*
X120136190Y-100869523D01*
X120160000Y-100917142D01*
X120183809Y-100940952D01*
X120231428Y-100964761D01*
X120350476Y-100964761D01*
X120398095Y-100940952D01*
X120421904Y-100917142D01*
X120445714Y-100869523D01*
X120445714Y-100774285D01*
X120421904Y-100726666D01*
X120398095Y-100702857D01*
X120350476Y-100679047D01*
X139416666Y-105056190D02*
X139250000Y-104818095D01*
X139130952Y-105056190D02*
X139130952Y-104556190D01*
X139321428Y-104556190D01*
X139369047Y-104580000D01*
X139392857Y-104603809D01*
X139416666Y-104651428D01*
X139416666Y-104722857D01*
X139392857Y-104770476D01*
X139369047Y-104794285D01*
X139321428Y-104818095D01*
X139130952Y-104818095D01*
X139654761Y-105056190D02*
X139750000Y-105056190D01*
X139797619Y-105032380D01*
X139821428Y-105008571D01*
X139869047Y-104937142D01*
X139892857Y-104841904D01*
X139892857Y-104651428D01*
X139869047Y-104603809D01*
X139845238Y-104580000D01*
X139797619Y-104556190D01*
X139702380Y-104556190D01*
X139654761Y-104580000D01*
X139630952Y-104603809D01*
X139607142Y-104651428D01*
X139607142Y-104770476D01*
X139630952Y-104818095D01*
X139654761Y-104841904D01*
X139702380Y-104865714D01*
X139797619Y-104865714D01*
X139845238Y-104841904D01*
X139869047Y-104818095D01*
X139892857Y-104770476D01*
X143616190Y-88113333D02*
X143378095Y-88280000D01*
X143616190Y-88399047D02*
X143116190Y-88399047D01*
X143116190Y-88208571D01*
X143140000Y-88160952D01*
X143163809Y-88137142D01*
X143211428Y-88113333D01*
X143282857Y-88113333D01*
X143330476Y-88137142D01*
X143354285Y-88160952D01*
X143378095Y-88208571D01*
X143378095Y-88399047D01*
X143282857Y-87684761D02*
X143616190Y-87684761D01*
X143092380Y-87803809D02*
X143449523Y-87922857D01*
X143449523Y-87613333D01*
D10*
X146490476Y-121352380D02*
X146490476Y-122066666D01*
X146442857Y-122209523D01*
X146347619Y-122304761D01*
X146204761Y-122352380D01*
X146109523Y-122352380D01*
X147490476Y-122352380D02*
X146919047Y-122352380D01*
X147204761Y-122352380D02*
X147204761Y-121352380D01*
X147109523Y-121495238D01*
X147014285Y-121590476D01*
X146919047Y-121638095D01*
X148109523Y-121352380D02*
X148204761Y-121352380D01*
X148300000Y-121400000D01*
X148347619Y-121447619D01*
X148395238Y-121542857D01*
X148442857Y-121733333D01*
X148442857Y-121971428D01*
X148395238Y-122161904D01*
X148347619Y-122257142D01*
X148300000Y-122304761D01*
X148204761Y-122352380D01*
X148109523Y-122352380D01*
X148014285Y-122304761D01*
X147966666Y-122257142D01*
X147919047Y-122161904D01*
X147871428Y-121971428D01*
X147871428Y-121733333D01*
X147919047Y-121542857D01*
X147966666Y-121447619D01*
X148014285Y-121400000D01*
X148109523Y-121352380D01*
D12*
X155448571Y-80171428D02*
X155472380Y-80195238D01*
X155496190Y-80266666D01*
X155496190Y-80314285D01*
X155472380Y-80385714D01*
X155424761Y-80433333D01*
X155377142Y-80457142D01*
X155281904Y-80480952D01*
X155210476Y-80480952D01*
X155115238Y-80457142D01*
X155067619Y-80433333D01*
X155020000Y-80385714D01*
X154996190Y-80314285D01*
X154996190Y-80266666D01*
X155020000Y-80195238D01*
X155043809Y-80171428D01*
X155496190Y-79695238D02*
X155496190Y-79980952D01*
X155496190Y-79838095D02*
X154996190Y-79838095D01*
X155067619Y-79885714D01*
X155115238Y-79933333D01*
X155139047Y-79980952D01*
X154996190Y-79266666D02*
X154996190Y-79361904D01*
X155020000Y-79409523D01*
X155043809Y-79433333D01*
X155115238Y-79480952D01*
X155210476Y-79504761D01*
X155400952Y-79504761D01*
X155448571Y-79480952D01*
X155472380Y-79457142D01*
X155496190Y-79409523D01*
X155496190Y-79314285D01*
X155472380Y-79266666D01*
X155448571Y-79242857D01*
X155400952Y-79219047D01*
X155281904Y-79219047D01*
X155234285Y-79242857D01*
X155210476Y-79266666D01*
X155186666Y-79314285D01*
X155186666Y-79409523D01*
X155210476Y-79457142D01*
X155234285Y-79480952D01*
X155281904Y-79504761D01*
D10*
X107344761Y-102374761D02*
X107487619Y-102422380D01*
X107725714Y-102422380D01*
X107820952Y-102374761D01*
X107868571Y-102327142D01*
X107916190Y-102231904D01*
X107916190Y-102136666D01*
X107868571Y-102041428D01*
X107820952Y-101993809D01*
X107725714Y-101946190D01*
X107535238Y-101898571D01*
X107440000Y-101850952D01*
X107392380Y-101803333D01*
X107344761Y-101708095D01*
X107344761Y-101612857D01*
X107392380Y-101517619D01*
X107440000Y-101470000D01*
X107535238Y-101422380D01*
X107773333Y-101422380D01*
X107916190Y-101470000D01*
X108249523Y-101422380D02*
X108487619Y-102422380D01*
X108678095Y-101708095D01*
X108868571Y-102422380D01*
X109106666Y-101422380D01*
X109440000Y-102374761D02*
X109582857Y-102422380D01*
X109820952Y-102422380D01*
X109916190Y-102374761D01*
X109963809Y-102327142D01*
X110011428Y-102231904D01*
X110011428Y-102136666D01*
X109963809Y-102041428D01*
X109916190Y-101993809D01*
X109820952Y-101946190D01*
X109630476Y-101898571D01*
X109535238Y-101850952D01*
X109487619Y-101803333D01*
X109440000Y-101708095D01*
X109440000Y-101612857D01*
X109487619Y-101517619D01*
X109535238Y-101470000D01*
X109630476Y-101422380D01*
X109868571Y-101422380D01*
X110011428Y-101470000D01*
X110440000Y-102422380D02*
X110440000Y-101422380D01*
X111106666Y-101422380D02*
X111297142Y-101422380D01*
X111392380Y-101470000D01*
X111487619Y-101565238D01*
X111535238Y-101755714D01*
X111535238Y-102089047D01*
X111487619Y-102279523D01*
X111392380Y-102374761D01*
X111297142Y-102422380D01*
X111106666Y-102422380D01*
X111011428Y-102374761D01*
X110916190Y-102279523D01*
X110868571Y-102089047D01*
X110868571Y-101755714D01*
X110916190Y-101565238D01*
X111011428Y-101470000D01*
X111106666Y-101422380D01*
D12*
X125738095Y-99758095D02*
X125976190Y-99758095D01*
X125476190Y-99924761D02*
X125738095Y-99758095D01*
X125476190Y-99591428D01*
X125976190Y-99162857D02*
X125976190Y-99448571D01*
X125976190Y-99305714D02*
X125476190Y-99305714D01*
X125547619Y-99353333D01*
X125595238Y-99400952D01*
X125619047Y-99448571D01*
X110842380Y-90493809D02*
X110794761Y-90470000D01*
X110747142Y-90422380D01*
X110675714Y-90350952D01*
X110628095Y-90327142D01*
X110580476Y-90327142D01*
X110604285Y-90446190D02*
X110556666Y-90422380D01*
X110509047Y-90374761D01*
X110485238Y-90279523D01*
X110485238Y-90112857D01*
X110509047Y-90017619D01*
X110556666Y-89970000D01*
X110604285Y-89946190D01*
X110699523Y-89946190D01*
X110747142Y-89970000D01*
X110794761Y-90017619D01*
X110818571Y-90112857D01*
X110818571Y-90279523D01*
X110794761Y-90374761D01*
X110747142Y-90422380D01*
X110699523Y-90446190D01*
X110604285Y-90446190D01*
X111294761Y-90446190D02*
X111009047Y-90446190D01*
X111151904Y-90446190D02*
X111151904Y-89946190D01*
X111104285Y-90017619D01*
X111056666Y-90065238D01*
X111009047Y-90089047D01*
X145058571Y-76918571D02*
X145034761Y-76942380D01*
X144963333Y-76966190D01*
X144915714Y-76966190D01*
X144844285Y-76942380D01*
X144796666Y-76894761D01*
X144772857Y-76847142D01*
X144749047Y-76751904D01*
X144749047Y-76680476D01*
X144772857Y-76585238D01*
X144796666Y-76537619D01*
X144844285Y-76490000D01*
X144915714Y-76466190D01*
X144963333Y-76466190D01*
X145034761Y-76490000D01*
X145058571Y-76513809D01*
X145534761Y-76966190D02*
X145249047Y-76966190D01*
X145391904Y-76966190D02*
X145391904Y-76466190D01*
X145344285Y-76537619D01*
X145296666Y-76585238D01*
X145249047Y-76609047D01*
X145963333Y-76632857D02*
X145963333Y-76966190D01*
X145844285Y-76442380D02*
X145725238Y-76799523D01*
X146034761Y-76799523D01*
D10*
X113333333Y-110752380D02*
X113000000Y-110276190D01*
X112761904Y-110752380D02*
X112761904Y-109752380D01*
X113142857Y-109752380D01*
X113238095Y-109800000D01*
X113285714Y-109847619D01*
X113333333Y-109942857D01*
X113333333Y-110085714D01*
X113285714Y-110180952D01*
X113238095Y-110228571D01*
X113142857Y-110276190D01*
X112761904Y-110276190D01*
X113666666Y-109752380D02*
X114333333Y-110752380D01*
X114333333Y-109752380D02*
X113666666Y-110752380D01*
D12*
X144026190Y-119721428D02*
X143788095Y-119888095D01*
X144026190Y-120007142D02*
X143526190Y-120007142D01*
X143526190Y-119816666D01*
X143550000Y-119769047D01*
X143573809Y-119745238D01*
X143621428Y-119721428D01*
X143692857Y-119721428D01*
X143740476Y-119745238D01*
X143764285Y-119769047D01*
X143788095Y-119816666D01*
X143788095Y-120007142D01*
X144026190Y-119245238D02*
X144026190Y-119530952D01*
X144026190Y-119388095D02*
X143526190Y-119388095D01*
X143597619Y-119435714D01*
X143645238Y-119483333D01*
X143669047Y-119530952D01*
X143526190Y-118935714D02*
X143526190Y-118888095D01*
X143550000Y-118840476D01*
X143573809Y-118816666D01*
X143621428Y-118792857D01*
X143716666Y-118769047D01*
X143835714Y-118769047D01*
X143930952Y-118792857D01*
X143978571Y-118816666D01*
X144002380Y-118840476D01*
X144026190Y-118888095D01*
X144026190Y-118935714D01*
X144002380Y-118983333D01*
X143978571Y-119007142D01*
X143930952Y-119030952D01*
X143835714Y-119054761D01*
X143716666Y-119054761D01*
X143621428Y-119030952D01*
X143573809Y-119007142D01*
X143550000Y-118983333D01*
X143526190Y-118935714D01*
X123918571Y-97031428D02*
X123942380Y-97055238D01*
X123966190Y-97126666D01*
X123966190Y-97174285D01*
X123942380Y-97245714D01*
X123894761Y-97293333D01*
X123847142Y-97317142D01*
X123751904Y-97340952D01*
X123680476Y-97340952D01*
X123585238Y-97317142D01*
X123537619Y-97293333D01*
X123490000Y-97245714D01*
X123466190Y-97174285D01*
X123466190Y-97126666D01*
X123490000Y-97055238D01*
X123513809Y-97031428D01*
X123513809Y-96840952D02*
X123490000Y-96817142D01*
X123466190Y-96769523D01*
X123466190Y-96650476D01*
X123490000Y-96602857D01*
X123513809Y-96579047D01*
X123561428Y-96555238D01*
X123609047Y-96555238D01*
X123680476Y-96579047D01*
X123966190Y-96864761D01*
X123966190Y-96555238D01*
X123966190Y-96079047D02*
X123966190Y-96364761D01*
X123966190Y-96221904D02*
X123466190Y-96221904D01*
X123537619Y-96269523D01*
X123585238Y-96317142D01*
X123609047Y-96364761D01*
X105400000Y-84899285D02*
X105400000Y-85435000D01*
X105364285Y-85542142D01*
X105292857Y-85613571D01*
X105185714Y-85649285D01*
X105114285Y-85649285D01*
X105685714Y-84899285D02*
X106150000Y-84899285D01*
X105900000Y-85185000D01*
X106007142Y-85185000D01*
X106078571Y-85220714D01*
X106114285Y-85256428D01*
X106150000Y-85327857D01*
X106150000Y-85506428D01*
X106114285Y-85577857D01*
X106078571Y-85613571D01*
X106007142Y-85649285D01*
X105792857Y-85649285D01*
X105721428Y-85613571D01*
X105685714Y-85577857D01*
X116178571Y-87036190D02*
X116011904Y-86798095D01*
X115892857Y-87036190D02*
X115892857Y-86536190D01*
X116083333Y-86536190D01*
X116130952Y-86560000D01*
X116154761Y-86583809D01*
X116178571Y-86631428D01*
X116178571Y-86702857D01*
X116154761Y-86750476D01*
X116130952Y-86774285D01*
X116083333Y-86798095D01*
X115892857Y-86798095D01*
X116654761Y-87036190D02*
X116369047Y-87036190D01*
X116511904Y-87036190D02*
X116511904Y-86536190D01*
X116464285Y-86607619D01*
X116416666Y-86655238D01*
X116369047Y-86679047D01*
X116845238Y-86583809D02*
X116869047Y-86560000D01*
X116916666Y-86536190D01*
X117035714Y-86536190D01*
X117083333Y-86560000D01*
X117107142Y-86583809D01*
X117130952Y-86631428D01*
X117130952Y-86679047D01*
X117107142Y-86750476D01*
X116821428Y-87036190D01*
X117130952Y-87036190D01*
X152788190Y-104830952D02*
X152788190Y-104545238D01*
X153288190Y-104688095D02*
X152788190Y-104688095D01*
X153288190Y-104378571D02*
X152788190Y-104378571D01*
X152788190Y-104188095D01*
X152812000Y-104140476D01*
X152835809Y-104116666D01*
X152883428Y-104092857D01*
X152954857Y-104092857D01*
X153002476Y-104116666D01*
X153026285Y-104140476D01*
X153050095Y-104188095D01*
X153050095Y-104378571D01*
X152835809Y-103902380D02*
X152812000Y-103878571D01*
X152788190Y-103830952D01*
X152788190Y-103711904D01*
X152812000Y-103664285D01*
X152835809Y-103640476D01*
X152883428Y-103616666D01*
X152931047Y-103616666D01*
X153002476Y-103640476D01*
X153288190Y-103926190D01*
X153288190Y-103616666D01*
X132488571Y-97728571D02*
X132464761Y-97752380D01*
X132393333Y-97776190D01*
X132345714Y-97776190D01*
X132274285Y-97752380D01*
X132226666Y-97704761D01*
X132202857Y-97657142D01*
X132179047Y-97561904D01*
X132179047Y-97490476D01*
X132202857Y-97395238D01*
X132226666Y-97347619D01*
X132274285Y-97300000D01*
X132345714Y-97276190D01*
X132393333Y-97276190D01*
X132464761Y-97300000D01*
X132488571Y-97323809D01*
X132679047Y-97323809D02*
X132702857Y-97300000D01*
X132750476Y-97276190D01*
X132869523Y-97276190D01*
X132917142Y-97300000D01*
X132940952Y-97323809D01*
X132964761Y-97371428D01*
X132964761Y-97419047D01*
X132940952Y-97490476D01*
X132655238Y-97776190D01*
X132964761Y-97776190D01*
X133155238Y-97323809D02*
X133179047Y-97300000D01*
X133226666Y-97276190D01*
X133345714Y-97276190D01*
X133393333Y-97300000D01*
X133417142Y-97323809D01*
X133440952Y-97371428D01*
X133440952Y-97419047D01*
X133417142Y-97490476D01*
X133131428Y-97776190D01*
X133440952Y-97776190D01*
D10*
X115824285Y-112350000D02*
X115738571Y-112307142D01*
X115610000Y-112307142D01*
X115481428Y-112350000D01*
X115395714Y-112435714D01*
X115352857Y-112521428D01*
X115310000Y-112692857D01*
X115310000Y-112821428D01*
X115352857Y-112992857D01*
X115395714Y-113078571D01*
X115481428Y-113164285D01*
X115610000Y-113207142D01*
X115695714Y-113207142D01*
X115824285Y-113164285D01*
X115867142Y-113121428D01*
X115867142Y-112821428D01*
X115695714Y-112821428D01*
X116252857Y-113207142D02*
X116252857Y-112307142D01*
X116767142Y-113207142D01*
X116767142Y-112307142D01*
X117195714Y-113207142D02*
X117195714Y-112307142D01*
X117410000Y-112307142D01*
X117538571Y-112350000D01*
X117624285Y-112435714D01*
X117667142Y-112521428D01*
X117710000Y-112692857D01*
X117710000Y-112821428D01*
X117667142Y-112992857D01*
X117624285Y-113078571D01*
X117538571Y-113164285D01*
X117410000Y-113207142D01*
X117195714Y-113207142D01*
D12*
X138658571Y-90663333D02*
X138682380Y-90687142D01*
X138706190Y-90758571D01*
X138706190Y-90806190D01*
X138682380Y-90877619D01*
X138634761Y-90925238D01*
X138587142Y-90949047D01*
X138491904Y-90972857D01*
X138420476Y-90972857D01*
X138325238Y-90949047D01*
X138277619Y-90925238D01*
X138230000Y-90877619D01*
X138206190Y-90806190D01*
X138206190Y-90758571D01*
X138230000Y-90687142D01*
X138253809Y-90663333D01*
X138206190Y-90496666D02*
X138206190Y-90163333D01*
X138706190Y-90377619D01*
X136688571Y-95543333D02*
X136712380Y-95567142D01*
X136736190Y-95638571D01*
X136736190Y-95686190D01*
X136712380Y-95757619D01*
X136664761Y-95805238D01*
X136617142Y-95829047D01*
X136521904Y-95852857D01*
X136450476Y-95852857D01*
X136355238Y-95829047D01*
X136307619Y-95805238D01*
X136260000Y-95757619D01*
X136236190Y-95686190D01*
X136236190Y-95638571D01*
X136260000Y-95567142D01*
X136283809Y-95543333D01*
X136450476Y-95257619D02*
X136426666Y-95305238D01*
X136402857Y-95329047D01*
X136355238Y-95352857D01*
X136331428Y-95352857D01*
X136283809Y-95329047D01*
X136260000Y-95305238D01*
X136236190Y-95257619D01*
X136236190Y-95162380D01*
X136260000Y-95114761D01*
X136283809Y-95090952D01*
X136331428Y-95067142D01*
X136355238Y-95067142D01*
X136402857Y-95090952D01*
X136426666Y-95114761D01*
X136450476Y-95162380D01*
X136450476Y-95257619D01*
X136474285Y-95305238D01*
X136498095Y-95329047D01*
X136545714Y-95352857D01*
X136640952Y-95352857D01*
X136688571Y-95329047D01*
X136712380Y-95305238D01*
X136736190Y-95257619D01*
X136736190Y-95162380D01*
X136712380Y-95114761D01*
X136688571Y-95090952D01*
X136640952Y-95067142D01*
X136545714Y-95067142D01*
X136498095Y-95090952D01*
X136474285Y-95114761D01*
X136450476Y-95162380D01*
X132358571Y-82693333D02*
X132382380Y-82717142D01*
X132406190Y-82788571D01*
X132406190Y-82836190D01*
X132382380Y-82907619D01*
X132334761Y-82955238D01*
X132287142Y-82979047D01*
X132191904Y-83002857D01*
X132120476Y-83002857D01*
X132025238Y-82979047D01*
X131977619Y-82955238D01*
X131930000Y-82907619D01*
X131906190Y-82836190D01*
X131906190Y-82788571D01*
X131930000Y-82717142D01*
X131953809Y-82693333D01*
X131906190Y-82264761D02*
X131906190Y-82360000D01*
X131930000Y-82407619D01*
X131953809Y-82431428D01*
X132025238Y-82479047D01*
X132120476Y-82502857D01*
X132310952Y-82502857D01*
X132358571Y-82479047D01*
X132382380Y-82455238D01*
X132406190Y-82407619D01*
X132406190Y-82312380D01*
X132382380Y-82264761D01*
X132358571Y-82240952D01*
X132310952Y-82217142D01*
X132191904Y-82217142D01*
X132144285Y-82240952D01*
X132120476Y-82264761D01*
X132096666Y-82312380D01*
X132096666Y-82407619D01*
X132120476Y-82455238D01*
X132144285Y-82479047D01*
X132191904Y-82502857D01*
X114706190Y-83133333D02*
X114468095Y-83300000D01*
X114706190Y-83419047D02*
X114206190Y-83419047D01*
X114206190Y-83228571D01*
X114230000Y-83180952D01*
X114253809Y-83157142D01*
X114301428Y-83133333D01*
X114372857Y-83133333D01*
X114420476Y-83157142D01*
X114444285Y-83180952D01*
X114468095Y-83228571D01*
X114468095Y-83419047D01*
X114706190Y-82657142D02*
X114706190Y-82942857D01*
X114706190Y-82800000D02*
X114206190Y-82800000D01*
X114277619Y-82847619D01*
X114325238Y-82895238D01*
X114349047Y-82942857D01*
X143518571Y-105068571D02*
X143494761Y-105092380D01*
X143423333Y-105116190D01*
X143375714Y-105116190D01*
X143304285Y-105092380D01*
X143256666Y-105044761D01*
X143232857Y-104997142D01*
X143209047Y-104901904D01*
X143209047Y-104830476D01*
X143232857Y-104735238D01*
X143256666Y-104687619D01*
X143304285Y-104640000D01*
X143375714Y-104616190D01*
X143423333Y-104616190D01*
X143494761Y-104640000D01*
X143518571Y-104663809D01*
X143709047Y-104663809D02*
X143732857Y-104640000D01*
X143780476Y-104616190D01*
X143899523Y-104616190D01*
X143947142Y-104640000D01*
X143970952Y-104663809D01*
X143994761Y-104711428D01*
X143994761Y-104759047D01*
X143970952Y-104830476D01*
X143685238Y-105116190D01*
X143994761Y-105116190D01*
X144447142Y-104616190D02*
X144209047Y-104616190D01*
X144185238Y-104854285D01*
X144209047Y-104830476D01*
X144256666Y-104806666D01*
X144375714Y-104806666D01*
X144423333Y-104830476D01*
X144447142Y-104854285D01*
X144470952Y-104901904D01*
X144470952Y-105020952D01*
X144447142Y-105068571D01*
X144423333Y-105092380D01*
X144375714Y-105116190D01*
X144256666Y-105116190D01*
X144209047Y-105092380D01*
X144185238Y-105068571D01*
X148986666Y-95706190D02*
X148820000Y-95468095D01*
X148700952Y-95706190D02*
X148700952Y-95206190D01*
X148891428Y-95206190D01*
X148939047Y-95230000D01*
X148962857Y-95253809D01*
X148986666Y-95301428D01*
X148986666Y-95372857D01*
X148962857Y-95420476D01*
X148939047Y-95444285D01*
X148891428Y-95468095D01*
X148700952Y-95468095D01*
X149153333Y-95206190D02*
X149462857Y-95206190D01*
X149296190Y-95396666D01*
X149367619Y-95396666D01*
X149415238Y-95420476D01*
X149439047Y-95444285D01*
X149462857Y-95491904D01*
X149462857Y-95610952D01*
X149439047Y-95658571D01*
X149415238Y-95682380D01*
X149367619Y-95706190D01*
X149224761Y-95706190D01*
X149177142Y-95682380D01*
X149153333Y-95658571D01*
X129048571Y-105098571D02*
X129024761Y-105122380D01*
X128953333Y-105146190D01*
X128905714Y-105146190D01*
X128834285Y-105122380D01*
X128786666Y-105074761D01*
X128762857Y-105027142D01*
X128739047Y-104931904D01*
X128739047Y-104860476D01*
X128762857Y-104765238D01*
X128786666Y-104717619D01*
X128834285Y-104670000D01*
X128905714Y-104646190D01*
X128953333Y-104646190D01*
X129024761Y-104670000D01*
X129048571Y-104693809D01*
X129239047Y-104693809D02*
X129262857Y-104670000D01*
X129310476Y-104646190D01*
X129429523Y-104646190D01*
X129477142Y-104670000D01*
X129500952Y-104693809D01*
X129524761Y-104741428D01*
X129524761Y-104789047D01*
X129500952Y-104860476D01*
X129215238Y-105146190D01*
X129524761Y-105146190D01*
X129691428Y-104646190D02*
X130000952Y-104646190D01*
X129834285Y-104836666D01*
X129905714Y-104836666D01*
X129953333Y-104860476D01*
X129977142Y-104884285D01*
X130000952Y-104931904D01*
X130000952Y-105050952D01*
X129977142Y-105098571D01*
X129953333Y-105122380D01*
X129905714Y-105146190D01*
X129762857Y-105146190D01*
X129715238Y-105122380D01*
X129691428Y-105098571D01*
X123618571Y-78518571D02*
X123594761Y-78542380D01*
X123523333Y-78566190D01*
X123475714Y-78566190D01*
X123404285Y-78542380D01*
X123356666Y-78494761D01*
X123332857Y-78447142D01*
X123309047Y-78351904D01*
X123309047Y-78280476D01*
X123332857Y-78185238D01*
X123356666Y-78137619D01*
X123404285Y-78090000D01*
X123475714Y-78066190D01*
X123523333Y-78066190D01*
X123594761Y-78090000D01*
X123618571Y-78113809D01*
X124094761Y-78566190D02*
X123809047Y-78566190D01*
X123951904Y-78566190D02*
X123951904Y-78066190D01*
X123904285Y-78137619D01*
X123856666Y-78185238D01*
X123809047Y-78209047D01*
X124285238Y-78113809D02*
X124309047Y-78090000D01*
X124356666Y-78066190D01*
X124475714Y-78066190D01*
X124523333Y-78090000D01*
X124547142Y-78113809D01*
X124570952Y-78161428D01*
X124570952Y-78209047D01*
X124547142Y-78280476D01*
X124261428Y-78566190D01*
X124570952Y-78566190D01*
X137506666Y-105146190D02*
X137340000Y-104908095D01*
X137220952Y-105146190D02*
X137220952Y-104646190D01*
X137411428Y-104646190D01*
X137459047Y-104670000D01*
X137482857Y-104693809D01*
X137506666Y-104741428D01*
X137506666Y-104812857D01*
X137482857Y-104860476D01*
X137459047Y-104884285D01*
X137411428Y-104908095D01*
X137220952Y-104908095D01*
X137792380Y-104860476D02*
X137744761Y-104836666D01*
X137720952Y-104812857D01*
X137697142Y-104765238D01*
X137697142Y-104741428D01*
X137720952Y-104693809D01*
X137744761Y-104670000D01*
X137792380Y-104646190D01*
X137887619Y-104646190D01*
X137935238Y-104670000D01*
X137959047Y-104693809D01*
X137982857Y-104741428D01*
X137982857Y-104765238D01*
X137959047Y-104812857D01*
X137935238Y-104836666D01*
X137887619Y-104860476D01*
X137792380Y-104860476D01*
X137744761Y-104884285D01*
X137720952Y-104908095D01*
X137697142Y-104955714D01*
X137697142Y-105050952D01*
X137720952Y-105098571D01*
X137744761Y-105122380D01*
X137792380Y-105146190D01*
X137887619Y-105146190D01*
X137935238Y-105122380D01*
X137959047Y-105098571D01*
X137982857Y-105050952D01*
X137982857Y-104955714D01*
X137959047Y-104908095D01*
X137935238Y-104884285D01*
X137887619Y-104860476D01*
X121939047Y-90396190D02*
X121939047Y-90800952D01*
X121962857Y-90848571D01*
X121986666Y-90872380D01*
X122034285Y-90896190D01*
X122129523Y-90896190D01*
X122177142Y-90872380D01*
X122200952Y-90848571D01*
X122224761Y-90800952D01*
X122224761Y-90396190D01*
X122677142Y-90562857D02*
X122677142Y-90896190D01*
X122558095Y-90372380D02*
X122439047Y-90729523D01*
X122748571Y-90729523D01*
D10*
X114660000Y-90852380D02*
X114660000Y-91090476D01*
X114421904Y-90995238D02*
X114660000Y-91090476D01*
X114898095Y-90995238D01*
X114517142Y-91280952D02*
X114660000Y-91090476D01*
X114802857Y-91280952D01*
X114730000Y-92072380D02*
X114730000Y-92310476D01*
X114491904Y-92215238D02*
X114730000Y-92310476D01*
X114968095Y-92215238D01*
X114587142Y-92500952D02*
X114730000Y-92310476D01*
X114872857Y-92500952D01*
X107208095Y-106074761D02*
X107350952Y-106122380D01*
X107589047Y-106122380D01*
X107684285Y-106074761D01*
X107731904Y-106027142D01*
X107779523Y-105931904D01*
X107779523Y-105836666D01*
X107731904Y-105741428D01*
X107684285Y-105693809D01*
X107589047Y-105646190D01*
X107398571Y-105598571D01*
X107303333Y-105550952D01*
X107255714Y-105503333D01*
X107208095Y-105408095D01*
X107208095Y-105312857D01*
X107255714Y-105217619D01*
X107303333Y-105170000D01*
X107398571Y-105122380D01*
X107636666Y-105122380D01*
X107779523Y-105170000D01*
X108112857Y-105122380D02*
X108350952Y-106122380D01*
X108541428Y-105408095D01*
X108731904Y-106122380D01*
X108970000Y-105122380D01*
X109922380Y-106027142D02*
X109874761Y-106074761D01*
X109731904Y-106122380D01*
X109636666Y-106122380D01*
X109493809Y-106074761D01*
X109398571Y-105979523D01*
X109350952Y-105884285D01*
X109303333Y-105693809D01*
X109303333Y-105550952D01*
X109350952Y-105360476D01*
X109398571Y-105265238D01*
X109493809Y-105170000D01*
X109636666Y-105122380D01*
X109731904Y-105122380D01*
X109874761Y-105170000D01*
X109922380Y-105217619D01*
X110827142Y-106122380D02*
X110350952Y-106122380D01*
X110350952Y-105122380D01*
X111160476Y-106122380D02*
X111160476Y-105122380D01*
X111731904Y-106122380D02*
X111303333Y-105550952D01*
X111731904Y-105122380D02*
X111160476Y-105693809D01*
X112738095Y-112352380D02*
X113309523Y-112352380D01*
X113023809Y-113352380D02*
X113023809Y-112352380D01*
X113547619Y-112352380D02*
X114214285Y-113352380D01*
X114214285Y-112352380D02*
X113547619Y-113352380D01*
D12*
X108089285Y-98803571D02*
X108089285Y-98375000D01*
X108839285Y-98589285D02*
X108089285Y-98589285D01*
X108839285Y-98125000D02*
X108089285Y-98125000D01*
X108839285Y-97803571D02*
X108446428Y-97803571D01*
X108375000Y-97839285D01*
X108339285Y-97910714D01*
X108339285Y-98017857D01*
X108375000Y-98089285D01*
X108410714Y-98125000D01*
X108803571Y-97160714D02*
X108839285Y-97232142D01*
X108839285Y-97375000D01*
X108803571Y-97446428D01*
X108732142Y-97482142D01*
X108446428Y-97482142D01*
X108375000Y-97446428D01*
X108339285Y-97375000D01*
X108339285Y-97232142D01*
X108375000Y-97160714D01*
X108446428Y-97125000D01*
X108517857Y-97125000D01*
X108589285Y-97482142D01*
X108839285Y-96803571D02*
X108339285Y-96803571D01*
X108482142Y-96803571D02*
X108410714Y-96767857D01*
X108375000Y-96732142D01*
X108339285Y-96660714D01*
X108339285Y-96589285D01*
X108839285Y-96339285D02*
X108339285Y-96339285D01*
X108410714Y-96339285D02*
X108375000Y-96303571D01*
X108339285Y-96232142D01*
X108339285Y-96125000D01*
X108375000Y-96053571D01*
X108446428Y-96017857D01*
X108839285Y-96017857D01*
X108446428Y-96017857D02*
X108375000Y-95982142D01*
X108339285Y-95910714D01*
X108339285Y-95803571D01*
X108375000Y-95732142D01*
X108446428Y-95696428D01*
X108839285Y-95696428D01*
X108839285Y-95232142D02*
X108803571Y-95303571D01*
X108767857Y-95339285D01*
X108696428Y-95375000D01*
X108482142Y-95375000D01*
X108410714Y-95339285D01*
X108375000Y-95303571D01*
X108339285Y-95232142D01*
X108339285Y-95125000D01*
X108375000Y-95053571D01*
X108410714Y-95017857D01*
X108482142Y-94982142D01*
X108696428Y-94982142D01*
X108767857Y-95017857D01*
X108803571Y-95053571D01*
X108839285Y-95125000D01*
X108839285Y-95232142D01*
X108803571Y-94339285D02*
X108839285Y-94410714D01*
X108839285Y-94553571D01*
X108803571Y-94625000D01*
X108767857Y-94660714D01*
X108696428Y-94696428D01*
X108482142Y-94696428D01*
X108410714Y-94660714D01*
X108375000Y-94625000D01*
X108339285Y-94553571D01*
X108339285Y-94410714D01*
X108375000Y-94339285D01*
X108839285Y-93910714D02*
X108803571Y-93982142D01*
X108767857Y-94017857D01*
X108696428Y-94053571D01*
X108482142Y-94053571D01*
X108410714Y-94017857D01*
X108375000Y-93982142D01*
X108339285Y-93910714D01*
X108339285Y-93803571D01*
X108375000Y-93732142D01*
X108410714Y-93696428D01*
X108482142Y-93660714D01*
X108696428Y-93660714D01*
X108767857Y-93696428D01*
X108803571Y-93732142D01*
X108839285Y-93803571D01*
X108839285Y-93910714D01*
X108339285Y-93017857D02*
X108839285Y-93017857D01*
X108339285Y-93339285D02*
X108732142Y-93339285D01*
X108803571Y-93303571D01*
X108839285Y-93232142D01*
X108839285Y-93125000D01*
X108803571Y-93053571D01*
X108767857Y-93017857D01*
X108339285Y-92660714D02*
X109089285Y-92660714D01*
X108375000Y-92660714D02*
X108339285Y-92589285D01*
X108339285Y-92446428D01*
X108375000Y-92375000D01*
X108410714Y-92339285D01*
X108482142Y-92303571D01*
X108696428Y-92303571D01*
X108767857Y-92339285D01*
X108803571Y-92375000D01*
X108839285Y-92446428D01*
X108839285Y-92589285D01*
X108803571Y-92660714D01*
X108839285Y-91875000D02*
X108803571Y-91946428D01*
X108732142Y-91982142D01*
X108089285Y-91982142D01*
X108803571Y-91303571D02*
X108839285Y-91375000D01*
X108839285Y-91517857D01*
X108803571Y-91589285D01*
X108732142Y-91625000D01*
X108446428Y-91625000D01*
X108375000Y-91589285D01*
X108339285Y-91517857D01*
X108339285Y-91375000D01*
X108375000Y-91303571D01*
X108446428Y-91267857D01*
X108517857Y-91267857D01*
X108589285Y-91625000D01*
X138658571Y-94893333D02*
X138682380Y-94917142D01*
X138706190Y-94988571D01*
X138706190Y-95036190D01*
X138682380Y-95107619D01*
X138634761Y-95155238D01*
X138587142Y-95179047D01*
X138491904Y-95202857D01*
X138420476Y-95202857D01*
X138325238Y-95179047D01*
X138277619Y-95155238D01*
X138230000Y-95107619D01*
X138206190Y-95036190D01*
X138206190Y-94988571D01*
X138230000Y-94917142D01*
X138253809Y-94893333D01*
X138253809Y-94702857D02*
X138230000Y-94679047D01*
X138206190Y-94631428D01*
X138206190Y-94512380D01*
X138230000Y-94464761D01*
X138253809Y-94440952D01*
X138301428Y-94417142D01*
X138349047Y-94417142D01*
X138420476Y-94440952D01*
X138706190Y-94726666D01*
X138706190Y-94417142D01*
X155398571Y-82241428D02*
X155422380Y-82265238D01*
X155446190Y-82336666D01*
X155446190Y-82384285D01*
X155422380Y-82455714D01*
X155374761Y-82503333D01*
X155327142Y-82527142D01*
X155231904Y-82550952D01*
X155160476Y-82550952D01*
X155065238Y-82527142D01*
X155017619Y-82503333D01*
X154970000Y-82455714D01*
X154946190Y-82384285D01*
X154946190Y-82336666D01*
X154970000Y-82265238D01*
X154993809Y-82241428D01*
X155446190Y-81765238D02*
X155446190Y-82050952D01*
X155446190Y-81908095D02*
X154946190Y-81908095D01*
X155017619Y-81955714D01*
X155065238Y-82003333D01*
X155089047Y-82050952D01*
X154946190Y-81312857D02*
X154946190Y-81550952D01*
X155184285Y-81574761D01*
X155160476Y-81550952D01*
X155136666Y-81503333D01*
X155136666Y-81384285D01*
X155160476Y-81336666D01*
X155184285Y-81312857D01*
X155231904Y-81289047D01*
X155350952Y-81289047D01*
X155398571Y-81312857D01*
X155422380Y-81336666D01*
X155446190Y-81384285D01*
X155446190Y-81503333D01*
X155422380Y-81550952D01*
X155398571Y-81574761D01*
X143576190Y-90203333D02*
X143338095Y-90370000D01*
X143576190Y-90489047D02*
X143076190Y-90489047D01*
X143076190Y-90298571D01*
X143100000Y-90250952D01*
X143123809Y-90227142D01*
X143171428Y-90203333D01*
X143242857Y-90203333D01*
X143290476Y-90227142D01*
X143314285Y-90250952D01*
X143338095Y-90298571D01*
X143338095Y-90489047D01*
X143076190Y-89750952D02*
X143076190Y-89989047D01*
X143314285Y-90012857D01*
X143290476Y-89989047D01*
X143266666Y-89941428D01*
X143266666Y-89822380D01*
X143290476Y-89774761D01*
X143314285Y-89750952D01*
X143361904Y-89727142D01*
X143480952Y-89727142D01*
X143528571Y-89750952D01*
X143552380Y-89774761D01*
X143576190Y-89822380D01*
X143576190Y-89941428D01*
X143552380Y-89989047D01*
X143528571Y-90012857D01*
X140398571Y-82683333D02*
X140422380Y-82707142D01*
X140446190Y-82778571D01*
X140446190Y-82826190D01*
X140422380Y-82897619D01*
X140374761Y-82945238D01*
X140327142Y-82969047D01*
X140231904Y-82992857D01*
X140160476Y-82992857D01*
X140065238Y-82969047D01*
X140017619Y-82945238D01*
X139970000Y-82897619D01*
X139946190Y-82826190D01*
X139946190Y-82778571D01*
X139970000Y-82707142D01*
X139993809Y-82683333D01*
X140446190Y-82207142D02*
X140446190Y-82492857D01*
X140446190Y-82350000D02*
X139946190Y-82350000D01*
X140017619Y-82397619D01*
X140065238Y-82445238D01*
X140089047Y-82492857D01*
X124626666Y-89328571D02*
X124602857Y-89352380D01*
X124531428Y-89376190D01*
X124483809Y-89376190D01*
X124412380Y-89352380D01*
X124364761Y-89304761D01*
X124340952Y-89257142D01*
X124317142Y-89161904D01*
X124317142Y-89090476D01*
X124340952Y-88995238D01*
X124364761Y-88947619D01*
X124412380Y-88900000D01*
X124483809Y-88876190D01*
X124531428Y-88876190D01*
X124602857Y-88900000D01*
X124626666Y-88923809D01*
X125079047Y-88876190D02*
X124840952Y-88876190D01*
X124817142Y-89114285D01*
X124840952Y-89090476D01*
X124888571Y-89066666D01*
X125007619Y-89066666D01*
X125055238Y-89090476D01*
X125079047Y-89114285D01*
X125102857Y-89161904D01*
X125102857Y-89280952D01*
X125079047Y-89328571D01*
X125055238Y-89352380D01*
X125007619Y-89376190D01*
X124888571Y-89376190D01*
X124840952Y-89352380D01*
X124817142Y-89328571D01*
X133138571Y-105068571D02*
X133114761Y-105092380D01*
X133043333Y-105116190D01*
X132995714Y-105116190D01*
X132924285Y-105092380D01*
X132876666Y-105044761D01*
X132852857Y-104997142D01*
X132829047Y-104901904D01*
X132829047Y-104830476D01*
X132852857Y-104735238D01*
X132876666Y-104687619D01*
X132924285Y-104640000D01*
X132995714Y-104616190D01*
X133043333Y-104616190D01*
X133114761Y-104640000D01*
X133138571Y-104663809D01*
X133329047Y-104663809D02*
X133352857Y-104640000D01*
X133400476Y-104616190D01*
X133519523Y-104616190D01*
X133567142Y-104640000D01*
X133590952Y-104663809D01*
X133614761Y-104711428D01*
X133614761Y-104759047D01*
X133590952Y-104830476D01*
X133305238Y-105116190D01*
X133614761Y-105116190D01*
X134043333Y-104782857D02*
X134043333Y-105116190D01*
X133924285Y-104592380D02*
X133805238Y-104949523D01*
X134114761Y-104949523D01*
X124466666Y-82628571D02*
X124442857Y-82652380D01*
X124371428Y-82676190D01*
X124323809Y-82676190D01*
X124252380Y-82652380D01*
X124204761Y-82604761D01*
X124180952Y-82557142D01*
X124157142Y-82461904D01*
X124157142Y-82390476D01*
X124180952Y-82295238D01*
X124204761Y-82247619D01*
X124252380Y-82200000D01*
X124323809Y-82176190D01*
X124371428Y-82176190D01*
X124442857Y-82200000D01*
X124466666Y-82223809D01*
X124704761Y-82676190D02*
X124800000Y-82676190D01*
X124847619Y-82652380D01*
X124871428Y-82628571D01*
X124919047Y-82557142D01*
X124942857Y-82461904D01*
X124942857Y-82271428D01*
X124919047Y-82223809D01*
X124895238Y-82200000D01*
X124847619Y-82176190D01*
X124752380Y-82176190D01*
X124704761Y-82200000D01*
X124680952Y-82223809D01*
X124657142Y-82271428D01*
X124657142Y-82390476D01*
X124680952Y-82438095D01*
X124704761Y-82461904D01*
X124752380Y-82485714D01*
X124847619Y-82485714D01*
X124895238Y-82461904D01*
X124919047Y-82438095D01*
X124942857Y-82390476D01*
X128583333Y-111302380D02*
X128654761Y-111326190D01*
X128773809Y-111326190D01*
X128821428Y-111302380D01*
X128845238Y-111278571D01*
X128869047Y-111230952D01*
X128869047Y-111183333D01*
X128845238Y-111135714D01*
X128821428Y-111111904D01*
X128773809Y-111088095D01*
X128678571Y-111064285D01*
X128630952Y-111040476D01*
X128607142Y-111016666D01*
X128583333Y-110969047D01*
X128583333Y-110921428D01*
X128607142Y-110873809D01*
X128630952Y-110850000D01*
X128678571Y-110826190D01*
X128797619Y-110826190D01*
X128869047Y-110850000D01*
X129035714Y-110826190D02*
X129154761Y-111326190D01*
X129250000Y-110969047D01*
X129345238Y-111326190D01*
X129464285Y-110826190D01*
X129607142Y-110826190D02*
X129916666Y-110826190D01*
X129750000Y-111016666D01*
X129821428Y-111016666D01*
X129869047Y-111040476D01*
X129892857Y-111064285D01*
X129916666Y-111111904D01*
X129916666Y-111230952D01*
X129892857Y-111278571D01*
X129869047Y-111302380D01*
X129821428Y-111326190D01*
X129678571Y-111326190D01*
X129630952Y-111302380D01*
X129607142Y-111278571D01*
X117998571Y-86606190D02*
X117831904Y-86368095D01*
X117712857Y-86606190D02*
X117712857Y-86106190D01*
X117903333Y-86106190D01*
X117950952Y-86130000D01*
X117974761Y-86153809D01*
X117998571Y-86201428D01*
X117998571Y-86272857D01*
X117974761Y-86320476D01*
X117950952Y-86344285D01*
X117903333Y-86368095D01*
X117712857Y-86368095D01*
X118474761Y-86606190D02*
X118189047Y-86606190D01*
X118331904Y-86606190D02*
X118331904Y-86106190D01*
X118284285Y-86177619D01*
X118236666Y-86225238D01*
X118189047Y-86249047D01*
X118760476Y-86320476D02*
X118712857Y-86296666D01*
X118689047Y-86272857D01*
X118665238Y-86225238D01*
X118665238Y-86201428D01*
X118689047Y-86153809D01*
X118712857Y-86130000D01*
X118760476Y-86106190D01*
X118855714Y-86106190D01*
X118903333Y-86130000D01*
X118927142Y-86153809D01*
X118950952Y-86201428D01*
X118950952Y-86225238D01*
X118927142Y-86272857D01*
X118903333Y-86296666D01*
X118855714Y-86320476D01*
X118760476Y-86320476D01*
X118712857Y-86344285D01*
X118689047Y-86368095D01*
X118665238Y-86415714D01*
X118665238Y-86510952D01*
X118689047Y-86558571D01*
X118712857Y-86582380D01*
X118760476Y-86606190D01*
X118855714Y-86606190D01*
X118903333Y-86582380D01*
X118927142Y-86558571D01*
X118950952Y-86510952D01*
X118950952Y-86415714D01*
X118927142Y-86368095D01*
X118903333Y-86344285D01*
X118855714Y-86320476D01*
X135526666Y-105146190D02*
X135360000Y-104908095D01*
X135240952Y-105146190D02*
X135240952Y-104646190D01*
X135431428Y-104646190D01*
X135479047Y-104670000D01*
X135502857Y-104693809D01*
X135526666Y-104741428D01*
X135526666Y-104812857D01*
X135502857Y-104860476D01*
X135479047Y-104884285D01*
X135431428Y-104908095D01*
X135240952Y-104908095D01*
X135693333Y-104646190D02*
X136026666Y-104646190D01*
X135812380Y-105146190D01*
X112861666Y-83506190D02*
X112695000Y-83268095D01*
X112575952Y-83506190D02*
X112575952Y-83006190D01*
X112766428Y-83006190D01*
X112814047Y-83030000D01*
X112837857Y-83053809D01*
X112861666Y-83101428D01*
X112861666Y-83172857D01*
X112837857Y-83220476D01*
X112814047Y-83244285D01*
X112766428Y-83268095D01*
X112575952Y-83268095D01*
X113052142Y-83053809D02*
X113075952Y-83030000D01*
X113123571Y-83006190D01*
X113242619Y-83006190D01*
X113290238Y-83030000D01*
X113314047Y-83053809D01*
X113337857Y-83101428D01*
X113337857Y-83149047D01*
X113314047Y-83220476D01*
X113028333Y-83506190D01*
X113337857Y-83506190D01*
D10*
X109508571Y-78577142D02*
X109556190Y-78434285D01*
X109603809Y-78386666D01*
X109699047Y-78339047D01*
X109841904Y-78339047D01*
X109937142Y-78386666D01*
X109984761Y-78434285D01*
X110032380Y-78529523D01*
X110032380Y-78910476D01*
X109032380Y-78910476D01*
X109032380Y-78577142D01*
X109080000Y-78481904D01*
X109127619Y-78434285D01*
X109222857Y-78386666D01*
X109318095Y-78386666D01*
X109413333Y-78434285D01*
X109460952Y-78481904D01*
X109508571Y-78577142D01*
X109508571Y-78910476D01*
X109032380Y-77720000D02*
X109032380Y-77529523D01*
X109080000Y-77434285D01*
X109175238Y-77339047D01*
X109365714Y-77291428D01*
X109699047Y-77291428D01*
X109889523Y-77339047D01*
X109984761Y-77434285D01*
X110032380Y-77529523D01*
X110032380Y-77720000D01*
X109984761Y-77815238D01*
X109889523Y-77910476D01*
X109699047Y-77958095D01*
X109365714Y-77958095D01*
X109175238Y-77910476D01*
X109080000Y-77815238D01*
X109032380Y-77720000D01*
X109032380Y-76672380D02*
X109032380Y-76481904D01*
X109080000Y-76386666D01*
X109175238Y-76291428D01*
X109365714Y-76243809D01*
X109699047Y-76243809D01*
X109889523Y-76291428D01*
X109984761Y-76386666D01*
X110032380Y-76481904D01*
X110032380Y-76672380D01*
X109984761Y-76767619D01*
X109889523Y-76862857D01*
X109699047Y-76910476D01*
X109365714Y-76910476D01*
X109175238Y-76862857D01*
X109080000Y-76767619D01*
X109032380Y-76672380D01*
X109032380Y-75958095D02*
X109032380Y-75386666D01*
X110032380Y-75672380D02*
X109032380Y-75672380D01*
D12*
X126418571Y-82548571D02*
X126394761Y-82572380D01*
X126323333Y-82596190D01*
X126275714Y-82596190D01*
X126204285Y-82572380D01*
X126156666Y-82524761D01*
X126132857Y-82477142D01*
X126109047Y-82381904D01*
X126109047Y-82310476D01*
X126132857Y-82215238D01*
X126156666Y-82167619D01*
X126204285Y-82120000D01*
X126275714Y-82096190D01*
X126323333Y-82096190D01*
X126394761Y-82120000D01*
X126418571Y-82143809D01*
X126894761Y-82596190D02*
X126609047Y-82596190D01*
X126751904Y-82596190D02*
X126751904Y-82096190D01*
X126704285Y-82167619D01*
X126656666Y-82215238D01*
X126609047Y-82239047D01*
X127370952Y-82596190D02*
X127085238Y-82596190D01*
X127228095Y-82596190D02*
X127228095Y-82096190D01*
X127180476Y-82167619D01*
X127132857Y-82215238D01*
X127085238Y-82239047D01*
X120568571Y-104011428D02*
X120592380Y-104035238D01*
X120616190Y-104106666D01*
X120616190Y-104154285D01*
X120592380Y-104225714D01*
X120544761Y-104273333D01*
X120497142Y-104297142D01*
X120401904Y-104320952D01*
X120330476Y-104320952D01*
X120235238Y-104297142D01*
X120187619Y-104273333D01*
X120140000Y-104225714D01*
X120116190Y-104154285D01*
X120116190Y-104106666D01*
X120140000Y-104035238D01*
X120163809Y-104011428D01*
X120616190Y-103535238D02*
X120616190Y-103820952D01*
X120616190Y-103678095D02*
X120116190Y-103678095D01*
X120187619Y-103725714D01*
X120235238Y-103773333D01*
X120259047Y-103820952D01*
X120330476Y-103249523D02*
X120306666Y-103297142D01*
X120282857Y-103320952D01*
X120235238Y-103344761D01*
X120211428Y-103344761D01*
X120163809Y-103320952D01*
X120140000Y-103297142D01*
X120116190Y-103249523D01*
X120116190Y-103154285D01*
X120140000Y-103106666D01*
X120163809Y-103082857D01*
X120211428Y-103059047D01*
X120235238Y-103059047D01*
X120282857Y-103082857D01*
X120306666Y-103106666D01*
X120330476Y-103154285D01*
X120330476Y-103249523D01*
X120354285Y-103297142D01*
X120378095Y-103320952D01*
X120425714Y-103344761D01*
X120520952Y-103344761D01*
X120568571Y-103320952D01*
X120592380Y-103297142D01*
X120616190Y-103249523D01*
X120616190Y-103154285D01*
X120592380Y-103106666D01*
X120568571Y-103082857D01*
X120520952Y-103059047D01*
X120425714Y-103059047D01*
X120378095Y-103082857D01*
X120354285Y-103106666D01*
X120330476Y-103154285D01*
D13*
X145851252Y-91515000D02*
X145328748Y-91515000D01*
X145851252Y-92985000D02*
X145328748Y-92985000D01*
X137175000Y-98061252D02*
X137175000Y-97538748D01*
X138645000Y-98061252D02*
X138645000Y-97538748D01*
X140478748Y-91975000D02*
X141001252Y-91975000D01*
X140478748Y-93445000D02*
X141001252Y-93445000D01*
X127535000Y-91761252D02*
X127535000Y-91238748D01*
X126065000Y-91761252D02*
X126065000Y-91238748D01*
X107630000Y-109710000D02*
X107630000Y-108380000D01*
X107630000Y-110980000D02*
X107630000Y-111040000D01*
X107630000Y-111040000D02*
X110290000Y-111040000D01*
X110290000Y-110980000D02*
X110290000Y-111040000D01*
X107630000Y-108380000D02*
X108960000Y-108380000D01*
X107630000Y-110980000D02*
X110290000Y-110980000D01*
X129407800Y-85917800D02*
X129407800Y-86528360D01*
X129407800Y-92571640D02*
X129407800Y-93182200D01*
X129407800Y-93182200D02*
X130018360Y-93182200D01*
X136672200Y-86528360D02*
X136672200Y-85917800D01*
X136672200Y-85917800D02*
X136061640Y-85917800D01*
X136672200Y-93182200D02*
X136672200Y-92571640D01*
X130018360Y-85917800D02*
X129407800Y-85917800D01*
X136061640Y-93182200D02*
X136672200Y-93182200D01*
G36*
X137358000Y-87940501D02*
G01*
X137104000Y-87940501D01*
X137104000Y-87559501D01*
X137358000Y-87559501D01*
X137358000Y-87940501D01*
G37*
D14*
X137358000Y-87940501D02*
X137104000Y-87940501D01*
X137104000Y-87559501D01*
X137358000Y-87559501D01*
X137358000Y-87940501D01*
G36*
X133030500Y-85486000D02*
G01*
X132649500Y-85486000D01*
X132649500Y-85232000D01*
X133030500Y-85232000D01*
X133030500Y-85486000D01*
G37*
X133030500Y-85486000D02*
X132649500Y-85486000D01*
X132649500Y-85232000D01*
X133030500Y-85232000D01*
X133030500Y-85486000D01*
G36*
X137358000Y-91940501D02*
G01*
X137104000Y-91940501D01*
X137104000Y-91559501D01*
X137358000Y-91559501D01*
X137358000Y-91940501D01*
G37*
X137358000Y-91940501D02*
X137104000Y-91940501D01*
X137104000Y-91559501D01*
X137358000Y-91559501D01*
X137358000Y-91940501D01*
G36*
X132630501Y-93868000D02*
G01*
X132249501Y-93868000D01*
X132249501Y-93614000D01*
X132630501Y-93614000D01*
X132630501Y-93868000D01*
G37*
X132630501Y-93868000D02*
X132249501Y-93868000D01*
X132249501Y-93614000D01*
X132630501Y-93614000D01*
X132630501Y-93868000D01*
G36*
X128976000Y-90740501D02*
G01*
X128722000Y-90740501D01*
X128722000Y-90359501D01*
X128976000Y-90359501D01*
X128976000Y-90740501D01*
G37*
X128976000Y-90740501D02*
X128722000Y-90740501D01*
X128722000Y-90359501D01*
X128976000Y-90359501D01*
X128976000Y-90740501D01*
D13*
X140981252Y-86205000D02*
X140458748Y-86205000D01*
X140981252Y-87675000D02*
X140458748Y-87675000D01*
X142615000Y-79151252D02*
X142615000Y-78628748D01*
X144085000Y-79151252D02*
X144085000Y-78628748D01*
X148830000Y-82360000D02*
X149630000Y-82360000D01*
X148830000Y-79240000D02*
X149630000Y-79240000D01*
X148830000Y-79240000D02*
X147030000Y-79240000D01*
X148830000Y-82360000D02*
X148030000Y-82360000D01*
X117067064Y-87985000D02*
X116612936Y-87985000D01*
X117067064Y-89455000D02*
X116612936Y-89455000D01*
X130695000Y-102472936D02*
X130695000Y-102927064D01*
X132165000Y-102472936D02*
X132165000Y-102927064D01*
X110685000Y-83962936D02*
X110685000Y-84417064D01*
X109215000Y-83962936D02*
X109215000Y-84417064D01*
X117035000Y-98668748D02*
X117035000Y-99191252D01*
X115565000Y-98668748D02*
X115565000Y-99191252D01*
X152270000Y-104160000D02*
G75*
G03*
X152270000Y-104160000I-1200000J0D01*
G01*
X150490000Y-85640000D02*
X150490000Y-87700000D01*
X152200000Y-85640000D02*
X150490000Y-85640000D01*
X156310000Y-93360000D02*
X154700000Y-93360000D01*
X156310000Y-85640000D02*
X154700000Y-85640000D01*
X156310000Y-93360000D02*
X156310000Y-85640000D01*
X152200000Y-93360000D02*
X150490000Y-93360000D01*
X150490000Y-93360000D02*
X150490000Y-91300000D01*
X150490000Y-91300000D02*
X149900000Y-91300000D01*
X135955000Y-73685000D02*
X135955000Y-73945000D01*
X130505000Y-73685000D02*
X130505000Y-73945000D01*
X133230000Y-73685000D02*
X135955000Y-73685000D01*
X133230000Y-79135000D02*
X130505000Y-79135000D01*
X135955000Y-79135000D02*
X135955000Y-78875000D01*
X133230000Y-73685000D02*
X130505000Y-73685000D01*
X133230000Y-79135000D02*
X135955000Y-79135000D01*
X130505000Y-79135000D02*
X130505000Y-78875000D01*
X135955000Y-78875000D02*
X137630000Y-78875000D01*
X154240000Y-101440000D02*
G75*
G03*
X154240000Y-101440000I-1200000J0D01*
G01*
X154697500Y-98110000D02*
X154697500Y-96190000D01*
X154697500Y-96190000D02*
X152012500Y-96190000D01*
X152012500Y-98110000D02*
X154697500Y-98110000D01*
X116450000Y-73270000D02*
X120070000Y-73270000D01*
X120070000Y-79390000D02*
X116450000Y-79390000D01*
X116450000Y-79390000D02*
X116450000Y-73270000D01*
X120070000Y-73270000D02*
X120070000Y-79390000D01*
X140945000Y-102438748D02*
X140945000Y-102961252D01*
X142415000Y-102438748D02*
X142415000Y-102961252D01*
X122861252Y-102195000D02*
X122338748Y-102195000D01*
X122861252Y-100725000D02*
X122338748Y-100725000D01*
X140375000Y-102947064D02*
X140375000Y-102492936D01*
X138905000Y-102947064D02*
X138905000Y-102492936D01*
X145817064Y-87405000D02*
X145362936Y-87405000D01*
X145817064Y-88875000D02*
X145362936Y-88875000D01*
X146990000Y-113480000D02*
X146990000Y-110780000D01*
X146990000Y-110780000D02*
X148890000Y-110780000D01*
X161690000Y-110780000D02*
X161690000Y-119980000D01*
X146790000Y-119130000D02*
X146790000Y-120180000D01*
X147840000Y-120180000D02*
X146790000Y-120180000D01*
X146990000Y-119980000D02*
X146990000Y-117380000D01*
X152890000Y-110780000D02*
X161690000Y-110780000D01*
X161690000Y-119980000D02*
X146990000Y-119980000D01*
X152738748Y-79125000D02*
X153261252Y-79125000D01*
X152738748Y-80595000D02*
X153261252Y-80595000D01*
X103880000Y-100630000D02*
X103880000Y-103290000D01*
X106480000Y-100630000D02*
X106480000Y-101960000D01*
X103880000Y-103290000D02*
X103820000Y-103290000D01*
X105150000Y-100630000D02*
X106480000Y-100630000D01*
X103880000Y-100630000D02*
X103820000Y-100630000D01*
X103820000Y-100630000D02*
X103820000Y-103290000D01*
X130730000Y-99990000D02*
X130730000Y-94690000D01*
X127030000Y-99990000D02*
X130730000Y-99990000D01*
X110890000Y-89380000D02*
X112565000Y-89380000D01*
X110890000Y-89380000D02*
X110240000Y-89380000D01*
X110890000Y-86260000D02*
X111540000Y-86260000D01*
X110890000Y-86260000D02*
X110240000Y-86260000D01*
X146255000Y-79161252D02*
X146255000Y-78638748D01*
X144785000Y-79161252D02*
X144785000Y-78638748D01*
X103780000Y-108420000D02*
X105110000Y-108420000D01*
X106440000Y-111020000D02*
X106440000Y-111080000D01*
X103780000Y-111020000D02*
X106440000Y-111020000D01*
X103780000Y-111080000D02*
X106440000Y-111080000D01*
X103780000Y-109750000D02*
X103780000Y-108420000D01*
X103780000Y-111020000D02*
X103780000Y-111080000D01*
X144495000Y-116959564D02*
X144495000Y-116505436D01*
X143025000Y-116959564D02*
X143025000Y-116505436D01*
X126215000Y-96911252D02*
X126215000Y-96388748D01*
X124745000Y-96911252D02*
X124745000Y-96388748D01*
X104420000Y-86500000D02*
X105750000Y-86500000D01*
X104420000Y-87830000D02*
X104420000Y-86500000D01*
X104420000Y-89100000D02*
X104420000Y-89160000D01*
X104420000Y-89100000D02*
X107080000Y-89100000D01*
X107080000Y-89100000D02*
X107080000Y-89160000D01*
X104420000Y-89160000D02*
X107080000Y-89160000D01*
X114675000Y-88034564D02*
X114675000Y-87580436D01*
X113205000Y-88034564D02*
X113205000Y-87580436D01*
X156260000Y-104200000D02*
G75*
G03*
X156260000Y-104200000I-1200000J0D01*
G01*
X133001252Y-98245000D02*
X132478748Y-98245000D01*
X133001252Y-99715000D02*
X132478748Y-99715000D01*
X107630000Y-112270000D02*
X108960000Y-112270000D01*
X107630000Y-114870000D02*
X110290000Y-114870000D01*
X107630000Y-114930000D02*
X110290000Y-114930000D01*
X110290000Y-114870000D02*
X110290000Y-114930000D01*
X107630000Y-114870000D02*
X107630000Y-114930000D01*
X107630000Y-113600000D02*
X107630000Y-112270000D01*
G36*
X118915045Y-117889774D02*
G01*
X119140879Y-117915253D01*
X119349884Y-117965015D01*
X119568653Y-118045144D01*
X119785397Y-118143229D01*
X119952228Y-118227610D01*
X120086623Y-118309245D01*
X120210825Y-118404362D01*
X120347078Y-118529190D01*
X120438636Y-118619834D01*
X120679533Y-118888196D01*
X120862893Y-119155982D01*
X121000656Y-119443220D01*
X121088891Y-119710628D01*
X121170695Y-120135194D01*
X121181715Y-120555132D01*
X121123625Y-120964590D01*
X120998099Y-121357718D01*
X120806809Y-121728664D01*
X120551431Y-122071576D01*
X120356042Y-122272772D01*
X120111266Y-122466375D01*
X119822264Y-122639349D01*
X119517075Y-122776490D01*
X119300480Y-122845163D01*
X119169149Y-122870898D01*
X119001010Y-122893346D01*
X118816715Y-122910957D01*
X118636914Y-122922181D01*
X118482261Y-122925466D01*
X118373405Y-122919262D01*
X118355920Y-122916082D01*
X118280233Y-122899687D01*
X118164559Y-122875663D01*
X118084165Y-122859336D01*
X117804883Y-122776202D01*
X117511881Y-122641750D01*
X117226245Y-122468220D01*
X116969062Y-122267855D01*
X116828252Y-122130233D01*
X116735805Y-122023463D01*
X116645621Y-121908510D01*
X116568006Y-121800030D01*
X116513268Y-121712676D01*
X116491713Y-121661103D01*
X116493627Y-121654444D01*
X116543749Y-121620545D01*
X116637910Y-121563775D01*
X116760408Y-121492909D01*
X116895538Y-121416722D01*
X117027598Y-121343987D01*
X117140885Y-121283479D01*
X117219694Y-121243973D01*
X117247193Y-121233381D01*
X117285241Y-121257477D01*
X117287018Y-121267550D01*
X117310128Y-121308344D01*
X117371560Y-121386636D01*
X117459473Y-121487629D01*
X117488696Y-121519554D01*
X117737684Y-121738259D01*
X118017514Y-121896619D01*
X118318463Y-121994338D01*
X118630807Y-122031122D01*
X118944821Y-122006675D01*
X119250783Y-121920701D01*
X119538967Y-121772906D01*
X119772837Y-121588929D01*
X119967585Y-121378605D01*
X120109153Y-121158929D01*
X120214602Y-120902717D01*
X120226172Y-120866516D01*
X120287396Y-120551360D01*
X120282469Y-120225414D01*
X120213514Y-119902183D01*
X120082654Y-119595171D01*
X120006498Y-119469431D01*
X119845616Y-119263636D01*
X119658092Y-119096825D01*
X119424536Y-118952894D01*
X119324593Y-118903172D01*
X119213901Y-118852862D01*
X119121891Y-118819738D01*
X119028092Y-118800231D01*
X118912028Y-118790767D01*
X118753227Y-118787775D01*
X118662029Y-118787589D01*
X118480150Y-118788492D01*
X118349917Y-118793930D01*
X118250513Y-118808001D01*
X118161116Y-118834801D01*
X118060907Y-118878427D01*
X117966582Y-118924430D01*
X117789934Y-119022447D01*
X117640869Y-119133600D01*
X117490179Y-119280341D01*
X117457378Y-119315823D01*
X117225052Y-119570377D01*
X116875601Y-119365787D01*
X116733594Y-119281073D01*
X116615949Y-119207929D01*
X116536166Y-119154940D01*
X116508187Y-119132133D01*
X116517893Y-119085712D01*
X116568398Y-119000306D01*
X116649700Y-118888613D01*
X116751797Y-118763327D01*
X116864684Y-118637145D01*
X116978361Y-118522761D01*
X117014195Y-118489898D01*
X117312410Y-118267810D01*
X117662909Y-118083403D01*
X117975463Y-117966832D01*
X118132257Y-117924018D01*
X118284510Y-117897962D01*
X118459092Y-117885280D01*
X118645792Y-117882492D01*
X118915045Y-117889774D01*
G37*
G36*
X111257608Y-119861508D02*
G01*
X111307651Y-119638553D01*
X111385404Y-119425234D01*
X111474566Y-119239976D01*
X111702593Y-118880089D01*
X111983684Y-118564441D01*
X112310335Y-118300215D01*
X112667190Y-118098194D01*
X112886915Y-118005933D01*
X113090216Y-117943242D01*
X113300549Y-117905541D01*
X113541371Y-117888248D01*
X113754208Y-117885904D01*
X113962197Y-117889776D01*
X114121787Y-117900620D01*
X114256953Y-117921663D01*
X114391668Y-117956136D01*
X114478887Y-117983505D01*
X114876344Y-118149008D01*
X115228848Y-118370746D01*
X115537279Y-118649521D01*
X115802519Y-118986137D01*
X116025448Y-119381397D01*
X116035898Y-119403566D01*
X116112250Y-119557861D01*
X116189706Y-119699148D01*
X116256239Y-119806073D01*
X116281707Y-119840042D01*
X116425184Y-119969813D01*
X116603500Y-120072054D01*
X116799172Y-120142076D01*
X116994716Y-120175192D01*
X117172648Y-120166712D01*
X117309648Y-120115730D01*
X117388053Y-120045786D01*
X117476645Y-119936779D01*
X117542141Y-119835778D01*
X117723266Y-119576211D01*
X117935391Y-119380367D01*
X118184264Y-119244044D01*
X118457931Y-119166216D01*
X118737227Y-119149894D01*
X119010131Y-119200302D01*
X119265818Y-119311837D01*
X119493463Y-119478898D01*
X119682239Y-119695882D01*
X119771466Y-119845966D01*
X119822619Y-119954523D01*
X119854138Y-120049285D01*
X119870612Y-120154320D01*
X119876633Y-120293694D01*
X119877144Y-120400000D01*
X119863644Y-120650062D01*
X119818058Y-120853424D01*
X119731479Y-121032048D01*
X119595001Y-121207895D01*
X119515682Y-121291218D01*
X119292485Y-121466347D01*
X119036971Y-121582441D01*
X118761460Y-121637555D01*
X118478270Y-121629746D01*
X118199720Y-121557068D01*
X118102282Y-121514322D01*
X117926183Y-121400646D01*
X117754092Y-121242836D01*
X117611390Y-121065999D01*
X117557504Y-120975405D01*
X117481295Y-120853566D01*
X117389745Y-120742701D01*
X117354020Y-120708949D01*
X117278947Y-120653055D01*
X117207279Y-120625609D01*
X117110931Y-120619529D01*
X117017074Y-120623978D01*
X116774702Y-120663162D01*
X116563598Y-120751023D01*
X116376634Y-120893241D01*
X116206683Y-121095498D01*
X116046617Y-121363475D01*
X116017499Y-121420749D01*
X115923590Y-121597460D01*
X115818399Y-121776270D01*
X115717830Y-121930881D01*
X115667111Y-122000092D01*
X115442988Y-122238609D01*
X115166989Y-122458141D01*
X114859472Y-122645520D01*
X114540795Y-122787579D01*
X114364592Y-122842547D01*
X114166754Y-122881226D01*
X113934529Y-122907400D01*
X113696100Y-122919396D01*
X113479650Y-122915542D01*
X113355635Y-122902409D01*
X113080783Y-122845927D01*
X112837627Y-122767155D01*
X112598833Y-122659656D01*
X112228483Y-122435658D01*
X111909221Y-122160818D01*
X111643532Y-121838010D01*
X111433899Y-121470107D01*
X111319107Y-121179030D01*
X111277845Y-121044545D01*
X111250307Y-120924655D01*
X111233814Y-120798094D01*
X111225684Y-120643594D01*
X111223236Y-120439885D01*
X111223203Y-120418117D01*
X111225781Y-120316595D01*
X112091962Y-120316595D01*
X112107562Y-120633736D01*
X112181431Y-120938822D01*
X112309759Y-121223238D01*
X112488737Y-121478367D01*
X112714555Y-121695592D01*
X112983404Y-121866298D01*
X113265050Y-121974735D01*
X113471536Y-122010661D01*
X113714977Y-122019839D01*
X113966139Y-122003613D01*
X114195789Y-121963330D01*
X114315834Y-121926371D01*
X114605666Y-121779043D01*
X114850495Y-121582287D01*
X115048205Y-121345091D01*
X115196682Y-121076442D01*
X115293811Y-120785326D01*
X115337475Y-120480730D01*
X115325559Y-120171643D01*
X115255948Y-119867050D01*
X115126527Y-119575938D01*
X114935179Y-119307296D01*
X114932922Y-119304726D01*
X114693855Y-119083945D01*
X114424482Y-118922515D01*
X114134024Y-118819144D01*
X113831700Y-118772540D01*
X113526732Y-118781410D01*
X113228342Y-118844462D01*
X112945748Y-118960404D01*
X112688173Y-119127944D01*
X112464837Y-119345789D01*
X112284961Y-119612647D01*
X112250804Y-119680616D01*
X112138440Y-119996016D01*
X112091962Y-120316595D01*
X111225781Y-120316595D01*
X111230912Y-120114548D01*
X111257608Y-119861508D01*
G37*
G36*
X113888320Y-119158214D02*
G01*
X114139329Y-119218845D01*
X114374816Y-119333484D01*
X114585616Y-119502397D01*
X114762566Y-119725850D01*
X114830646Y-119848191D01*
X114891403Y-119979818D01*
X114927265Y-120088293D01*
X114944603Y-120203043D01*
X114949786Y-120353491D01*
X114949928Y-120399238D01*
X114946262Y-120567231D01*
X114931619Y-120690846D01*
X114900535Y-120797964D01*
X114849222Y-120913061D01*
X114689103Y-121163987D01*
X114483173Y-121368317D01*
X114241812Y-121520462D01*
X113975401Y-121614833D01*
X113694322Y-121645843D01*
X113516210Y-121630629D01*
X113251400Y-121552022D01*
X113005741Y-121410760D01*
X112791524Y-121216333D01*
X112621040Y-120978229D01*
X112586727Y-120913061D01*
X112512823Y-120695016D01*
X112481538Y-120446126D01*
X112493339Y-120193553D01*
X112548693Y-119964459D01*
X112569532Y-119913728D01*
X112721214Y-119655887D01*
X112912362Y-119450461D01*
X113133811Y-119297715D01*
X113376397Y-119197915D01*
X113630955Y-119151326D01*
X113888320Y-119158214D01*
G37*
X141001252Y-91285000D02*
X140478748Y-91285000D01*
X141001252Y-89815000D02*
X140478748Y-89815000D01*
X135005000Y-97568748D02*
X135005000Y-98091252D01*
X136475000Y-97568748D02*
X136475000Y-98091252D01*
X134595000Y-82871252D02*
X134595000Y-82348748D01*
X133125000Y-82871252D02*
X133125000Y-82348748D01*
X116615000Y-83922936D02*
X116615000Y-84377064D01*
X115145000Y-83922936D02*
X115145000Y-84377064D01*
X143035000Y-102448748D02*
X143035000Y-102971252D01*
X144505000Y-102448748D02*
X144505000Y-102971252D01*
X148842936Y-97865000D02*
X149297064Y-97865000D01*
X148842936Y-96395000D02*
X149297064Y-96395000D01*
X130115000Y-102991252D02*
X130115000Y-102468748D01*
X128645000Y-102991252D02*
X128645000Y-102468748D01*
X126468748Y-79055000D02*
X126991252Y-79055000D01*
X126468748Y-77585000D02*
X126991252Y-77585000D01*
X138315000Y-102482936D02*
X138315000Y-102937064D01*
X136845000Y-102482936D02*
X136845000Y-102937064D01*
X116909100Y-96628900D02*
X121150900Y-96628900D01*
X121150900Y-91371100D02*
X116909100Y-91371100D01*
X103840000Y-107180000D02*
X103780000Y-107180000D01*
X103840000Y-104520000D02*
X103780000Y-104520000D01*
X105110000Y-104520000D02*
X106440000Y-104520000D01*
X103780000Y-104520000D02*
X103780000Y-107180000D01*
X106440000Y-104520000D02*
X106440000Y-105850000D01*
X103840000Y-104520000D02*
X103840000Y-107180000D01*
X103780000Y-113520000D02*
X103780000Y-112190000D01*
X106440000Y-114790000D02*
X106440000Y-114850000D01*
X103780000Y-112190000D02*
X105110000Y-112190000D01*
X103780000Y-114790000D02*
X106440000Y-114790000D01*
X103780000Y-114790000D02*
X103780000Y-114850000D01*
X103780000Y-114850000D02*
X106440000Y-114850000D01*
X104360000Y-93360000D02*
X104360000Y-92030000D01*
X104360000Y-92030000D02*
X105690000Y-92030000D01*
X104360000Y-94630000D02*
X104360000Y-97230000D01*
X107020000Y-94630000D02*
X107020000Y-97230000D01*
X104360000Y-94630000D02*
X107020000Y-94630000D01*
X104360000Y-97230000D02*
X107020000Y-97230000D01*
X141001252Y-94055000D02*
X140478748Y-94055000D01*
X141001252Y-95525000D02*
X140478748Y-95525000D01*
X152738748Y-82735000D02*
X153261252Y-82735000D01*
X152738748Y-81265000D02*
X153261252Y-81265000D01*
X145817064Y-89435000D02*
X145362936Y-89435000D01*
X145817064Y-90905000D02*
X145362936Y-90905000D01*
X139275000Y-82338748D02*
X139275000Y-82861252D01*
X137805000Y-82338748D02*
X137805000Y-82861252D01*
X123965000Y-91238748D02*
X123965000Y-91761252D01*
X125435000Y-91238748D02*
X125435000Y-91761252D01*
X132755000Y-102438748D02*
X132755000Y-102961252D01*
X134225000Y-102438748D02*
X134225000Y-102961252D01*
X125215000Y-84328748D02*
X125215000Y-84851252D01*
X123745000Y-84328748D02*
X123745000Y-84851252D01*
X135750000Y-112000000D02*
X140650000Y-112000000D01*
X140650000Y-122000000D02*
X140650000Y-124600000D01*
X132050000Y-112000000D02*
X127250000Y-112000000D01*
X127250000Y-112000000D02*
X127250000Y-114500000D01*
X126750000Y-114200000D02*
X126450000Y-114500000D01*
X140650000Y-117000000D02*
X140650000Y-119600000D01*
X140650000Y-112000000D02*
X140650000Y-114600000D01*
X127250000Y-124600000D02*
X127250000Y-121800000D01*
X126150000Y-114200000D02*
X126750000Y-114200000D01*
X133450000Y-118300000D02*
X134450000Y-118300000D01*
X126450000Y-114500000D02*
X126150000Y-114200000D01*
X140650000Y-124600000D02*
X135750000Y-124600000D01*
X133950000Y-117800000D02*
X133950000Y-118800000D01*
X132150000Y-124600000D02*
X127250000Y-124600000D01*
X136950000Y-118300000D02*
G75*
G03*
X136950000Y-118300000I-3000000J0D01*
G01*
X119065000Y-83962936D02*
X119065000Y-84417064D01*
X117595000Y-83962936D02*
X117595000Y-84417064D01*
X134825000Y-102462936D02*
X134825000Y-102917064D01*
X136295000Y-102462936D02*
X136295000Y-102917064D01*
X112775436Y-85705000D02*
X113229564Y-85705000D01*
X112775436Y-84235000D02*
X113229564Y-84235000D01*
X114400000Y-73250000D02*
X114400000Y-79370000D01*
X110780000Y-79370000D02*
X110780000Y-73250000D01*
X110780000Y-73250000D02*
X114400000Y-73250000D01*
X114400000Y-79370000D02*
X110780000Y-79370000D01*
X125925000Y-84328748D02*
X125925000Y-84851252D01*
X127395000Y-84328748D02*
X127395000Y-84851252D01*
X122861252Y-104395000D02*
X122338748Y-104395000D01*
X122861252Y-102925000D02*
X122338748Y-102925000D01*
%LPC*%
D15*
X146540000Y-92250000D03*
X144640000Y-92250000D03*
D16*
X137910000Y-98750000D03*
X137910000Y-96850000D03*
D17*
X153590000Y-73360000D03*
D18*
X153590000Y-75010000D03*
X151940000Y-73360000D03*
X155240000Y-73360000D03*
X154756726Y-74526726D03*
X153590000Y-71710000D03*
X152423274Y-74526726D03*
X154756726Y-72193274D03*
X152423274Y-72193274D03*
X106570000Y-122850000D03*
X108220000Y-124500000D03*
X105403274Y-125666726D03*
X107736726Y-125666726D03*
D17*
X106570000Y-124500000D03*
D18*
X105403274Y-123333274D03*
X107736726Y-123333274D03*
X104920000Y-124500000D03*
X106570000Y-126150000D03*
D19*
X139790000Y-92710000D03*
X141690000Y-92710000D03*
D16*
X126800000Y-92450000D03*
X126800000Y-90550000D03*
D20*
X108960000Y-109710000D03*
D21*
X129636400Y-86950000D03*
X129636400Y-87349999D03*
X129636400Y-87750001D03*
X129636400Y-88150000D03*
X129636400Y-88549999D03*
X129636400Y-88950001D03*
X129636400Y-89350000D03*
X129636400Y-89750000D03*
X129636400Y-90149999D03*
X129636400Y-90550001D03*
X129636400Y-90950000D03*
X129636400Y-91349999D03*
X129636400Y-91750001D03*
X129636400Y-92150000D03*
D22*
X130440000Y-92953600D03*
X130839999Y-92953600D03*
X131240001Y-92953600D03*
X131640000Y-92953600D03*
X132039999Y-92953600D03*
X132440001Y-92953600D03*
X132840000Y-92953600D03*
X133240000Y-92953600D03*
X133639999Y-92953600D03*
X134040001Y-92953600D03*
X134440000Y-92953600D03*
X134839999Y-92953600D03*
X135240001Y-92953600D03*
X135640000Y-92953600D03*
D21*
X136443600Y-92150000D03*
X136443600Y-91750001D03*
X136443600Y-91349999D03*
X136443600Y-90950000D03*
X136443600Y-90550001D03*
X136443600Y-90149999D03*
X136443600Y-89750000D03*
X136443600Y-89350000D03*
X136443600Y-88950001D03*
X136443600Y-88549999D03*
X136443600Y-88150000D03*
X136443600Y-87750001D03*
X136443600Y-87349999D03*
X136443600Y-86950000D03*
D22*
X135640000Y-86146400D03*
X135240001Y-86146400D03*
X134839999Y-86146400D03*
X134440000Y-86146400D03*
X134040001Y-86146400D03*
X133639999Y-86146400D03*
X133240000Y-86146400D03*
X132840000Y-86146400D03*
X132440001Y-86146400D03*
X132039999Y-86146400D03*
X131640000Y-86146400D03*
X131240001Y-86146400D03*
X130839999Y-86146400D03*
X130440000Y-86146400D03*
D23*
X133040000Y-89550000D03*
D15*
X141670000Y-86940000D03*
X139770000Y-86940000D03*
D16*
X143350000Y-79840000D03*
X143350000Y-77940000D03*
D24*
X147692500Y-79850000D03*
X147692500Y-80800000D03*
X147692500Y-81750000D03*
X149967500Y-81750000D03*
X149967500Y-79850000D03*
D25*
X117752500Y-88720000D03*
X115927500Y-88720000D03*
D26*
X122140000Y-106620000D03*
X122840000Y-106620000D03*
X123540000Y-106620000D03*
X124240000Y-106620000D03*
X124940000Y-106620000D03*
X125640000Y-106620000D03*
X126340000Y-106620000D03*
X127040000Y-106620000D03*
X127740000Y-106620000D03*
X128440000Y-106620000D03*
X129140000Y-106620000D03*
X129840000Y-106620000D03*
X130540000Y-106620000D03*
X131240000Y-106620000D03*
X131940000Y-106620000D03*
X132640000Y-106620000D03*
X133340000Y-106620000D03*
X134040000Y-106620000D03*
X134740000Y-106620000D03*
X135440000Y-106620000D03*
X136140000Y-106620000D03*
X136840000Y-106620000D03*
X137540000Y-106620000D03*
X138240000Y-106620000D03*
X138940000Y-106620000D03*
X139640000Y-106620000D03*
X140340000Y-106620000D03*
X141040000Y-106620000D03*
X141740000Y-106620000D03*
X142440000Y-106620000D03*
D27*
X131430000Y-101787500D03*
X131430000Y-103612500D03*
X109950000Y-83277500D03*
X109950000Y-85102500D03*
D28*
X116300000Y-97980000D03*
X116300000Y-99880000D03*
D29*
X151070000Y-104160000D03*
D30*
X150600000Y-90800000D03*
X150600000Y-90150000D03*
X150600000Y-89500000D03*
X150600000Y-88850000D03*
X150600000Y-88200000D03*
D31*
X153450000Y-85750000D03*
X153450000Y-93250000D03*
D32*
X153450000Y-90650000D03*
X153450000Y-88350000D03*
D33*
X136830000Y-78315000D03*
X136830000Y-77045000D03*
X136830000Y-75775000D03*
X136830000Y-74505000D03*
X129630000Y-74505000D03*
X129630000Y-75775000D03*
X129630000Y-77045000D03*
X129630000Y-78315000D03*
D29*
X153040000Y-101440000D03*
D34*
X153950000Y-97150000D03*
X152075000Y-97150000D03*
D35*
X118260000Y-71740000D03*
X118260000Y-80920000D03*
D28*
X141680000Y-101750000D03*
X141680000Y-103650000D03*
D15*
X123550000Y-101460000D03*
X121650000Y-101460000D03*
D36*
X139640000Y-103632500D03*
X139640000Y-101807500D03*
D25*
X146502500Y-88140000D03*
X144677500Y-88140000D03*
D37*
X147890000Y-115380000D03*
D38*
X153890000Y-115380000D03*
D39*
X150890000Y-110680000D03*
D19*
X152050000Y-79860000D03*
X153950000Y-79860000D03*
D20*
X105150000Y-101960000D03*
D40*
X129880000Y-98990000D03*
X129880000Y-95690000D03*
X127880000Y-95690000D03*
X127880000Y-98990000D03*
D41*
X111827500Y-88770000D03*
X111827500Y-86870000D03*
X109952500Y-87820000D03*
D16*
X145520000Y-79850000D03*
X145520000Y-77950000D03*
D20*
X105110000Y-109750000D03*
D36*
X143760000Y-117645000D03*
X143760000Y-115820000D03*
D17*
X153590000Y-124500000D03*
D18*
X152423274Y-123333274D03*
X154756726Y-123333274D03*
X153590000Y-122850000D03*
X152423274Y-125666726D03*
X155240000Y-124500000D03*
X153590000Y-126150000D03*
X151940000Y-124500000D03*
X154756726Y-125666726D03*
X105263274Y-72253274D03*
D17*
X106430000Y-73420000D03*
D18*
X107596726Y-74586726D03*
X104780000Y-73420000D03*
X106430000Y-71770000D03*
X105263274Y-74586726D03*
X107596726Y-72253274D03*
X106430000Y-75070000D03*
X108080000Y-73420000D03*
D16*
X125480000Y-97600000D03*
X125480000Y-95700000D03*
D20*
X105750000Y-87830000D03*
D36*
X113940000Y-88720000D03*
X113940000Y-86895000D03*
D29*
X155060000Y-104200000D03*
D15*
X133690000Y-98980000D03*
X131790000Y-98980000D03*
D20*
X108960000Y-113600000D03*
D15*
X141690000Y-90550000D03*
X139790000Y-90550000D03*
D28*
X135740000Y-96880000D03*
X135740000Y-98780000D03*
D16*
X133860000Y-83560000D03*
X133860000Y-81660000D03*
D27*
X115880000Y-83237500D03*
X115880000Y-85062500D03*
D28*
X143770000Y-101760000D03*
X143770000Y-103660000D03*
D42*
X148157500Y-97130000D03*
X149982500Y-97130000D03*
D16*
X129380000Y-103680000D03*
X129380000Y-101780000D03*
D19*
X125780000Y-78320000D03*
X127680000Y-78320000D03*
D27*
X137580000Y-101797500D03*
X137580000Y-103622500D03*
D43*
X116305850Y-92095000D03*
X116305850Y-93365000D03*
X116305850Y-94635000D03*
X116305850Y-95905000D03*
X121754150Y-95905000D03*
X121754150Y-94635000D03*
X121754150Y-93365000D03*
X121754150Y-92095000D03*
D20*
X105110000Y-105850000D03*
X105110000Y-113520000D03*
X105690000Y-93360000D03*
D44*
X105690000Y-95900000D03*
D15*
X141690000Y-94790000D03*
X139790000Y-94790000D03*
D19*
X152050000Y-82000000D03*
X153950000Y-82000000D03*
D25*
X146502500Y-90170000D03*
X144677500Y-90170000D03*
D28*
X138540000Y-81650000D03*
X138540000Y-83550000D03*
X124700000Y-90550000D03*
X124700000Y-92450000D03*
X133490000Y-101750000D03*
X133490000Y-103650000D03*
X124480000Y-83640000D03*
X124480000Y-85540000D03*
D45*
X126450000Y-115800000D03*
D29*
X126450000Y-120800000D03*
X126450000Y-118300000D03*
D46*
X133950000Y-112700000D03*
X133950000Y-123900000D03*
D29*
X140950000Y-115800000D03*
X140950000Y-120800000D03*
D27*
X118330000Y-83277500D03*
X118330000Y-85102500D03*
X135560000Y-101777500D03*
X135560000Y-103602500D03*
D42*
X112090000Y-84970000D03*
X113915000Y-84970000D03*
D35*
X112590000Y-71720000D03*
X112590000Y-80900000D03*
D28*
X126660000Y-83640000D03*
X126660000Y-85540000D03*
D15*
X123550000Y-103660000D03*
X121650000Y-103660000D03*
M02*
